<svg id="svg" version="1.1" width="400" height="400" xmlns="http://www.w3.org/2000/svg" xmlns:xlink="http://www.w3.org/1999/xlink" style="display: block;"><g id="svgg"><path id="path0" d="M246.787 12.014 C 246.206 12.188,245.492 12.529,245.200 12.771 C 244.908 13.014,242.784 13.859,240.480 14.650 C 238.176 15.441,235.344 16.589,234.187 17.203 C 233.029 17.816,231.323 18.517,230.394 18.761 C 229.465 19.005,228.141 19.469,227.451 19.793 C 226.393 20.289,226.146 20.300,225.876 19.863 C 225.616 19.442,225.393 19.496,224.691 20.151 C 224.216 20.595,223.361 21.073,222.792 21.215 C 222.222 21.356,221.664 21.622,221.550 21.805 C 221.437 21.989,221.010 22.139,220.601 22.139 C 219.595 22.139,217.774 23.115,213.330 26.036 C 210.189 28.100,209.533 28.401,209.257 27.908 C 208.985 27.422,208.807 27.520,208.222 28.482 C 207.834 29.121,207.329 29.644,207.100 29.644 C 206.872 29.644,206.256 29.981,205.731 30.394 C 205.206 30.807,204.526 31.144,204.220 31.144 C 203.914 31.144,203.087 31.651,202.382 32.270 C 201.677 32.889,200.852 33.396,200.550 33.396 C 200.220 33.396,200.000 33.755,200.000 34.295 C 200.000 35.211,199.280 35.931,195.542 38.753 C 194.483 39.552,192.882 41.351,191.867 42.880 C 190.877 44.371,189.625 45.966,189.083 46.424 C 187.086 48.114,182.018 56.587,180.333 61.055 C 180.038 61.837,179.348 63.659,178.799 65.103 C 178.251 66.548,177.666 68.236,177.501 68.856 C 177.335 69.475,176.991 70.488,176.736 71.107 C 176.318 72.126,176.137 73.157,175.379 78.844 C 175.232 79.951,175.300 80.671,175.567 80.836 C 176.115 81.176,176.157 99.287,175.610 99.625 C 175.033 99.981,175.161 105.258,175.833 108.818 C 176.596 112.864,177.714 117.804,178.071 118.705 C 178.367 119.453,174.718 119.367,170.816 118.534 C 169.933 118.345,167.316 117.937,164.999 117.627 C 162.683 117.316,159.353 116.729,157.598 116.321 C 155.844 115.914,152.805 115.229,150.845 114.800 C 148.885 114.371,147.028 113.797,146.718 113.524 C 146.408 113.252,145.563 112.906,144.841 112.756 C 144.118 112.606,143.358 112.360,143.152 112.209 C 142.946 112.058,141.257 111.470,139.400 110.903 C 137.542 110.336,134.503 109.148,132.645 108.262 C 130.788 107.376,128.171 106.375,126.829 106.036 C 125.488 105.698,123.546 104.886,122.514 104.233 C 121.482 103.580,119.962 102.689,119.137 102.254 C 111.106 98.018,105.619 93.786,105.370 91.634 C 105.292 90.961,104.901 90.456,104.194 90.119 C 103.221 89.655,103.155 89.495,103.383 88.147 C 103.689 86.335,103.265 86.282,102.158 87.992 C 101.219 89.440,101.097 90.056,101.747 90.056 C 102.014 90.056,101.952 90.309,101.587 90.713 C 101.093 91.259,101.020 92.156,101.152 96.060 C 101.435 104.436,101.658 107.265,102.431 112.304 C 102.849 115.030,103.461 119.034,103.792 121.201 C 104.123 123.368,104.517 125.310,104.667 125.516 C 104.817 125.722,105.165 126.904,105.441 128.143 C 105.717 129.381,106.061 130.563,106.205 130.769 C 106.350 130.976,106.583 131.778,106.722 132.552 C 106.862 133.326,107.137 133.959,107.334 133.959 C 107.531 133.959,107.692 134.383,107.692 134.902 C 107.692 135.421,107.847 136.138,108.035 136.497 C 108.224 136.855,108.729 138.289,109.159 139.683 C 109.944 142.232,110.046 142.488,111.194 144.777 C 111.538 145.465,111.820 146.361,111.820 146.769 C 111.820 147.177,111.991 147.406,112.200 147.277 C 112.410 147.147,112.680 147.545,112.804 148.169 C 112.928 148.788,113.264 149.385,113.551 149.495 C 113.837 149.605,114.071 150.207,114.071 150.833 C 114.071 151.458,114.220 151.970,114.403 151.970 C 114.585 151.970,114.833 152.265,114.955 152.627 C 115.076 152.988,115.337 153.537,115.534 153.846 C 115.732 154.156,115.992 154.662,116.112 154.972 C 116.232 155.281,116.666 156.041,117.076 156.660 C 117.486 157.280,118.007 158.250,118.234 158.818 C 118.462 159.386,118.800 159.850,118.986 159.850 C 119.172 159.850,119.325 160.095,119.325 160.394 C 119.325 160.693,119.550 161.073,119.824 161.238 C 120.099 161.403,120.817 162.425,121.419 163.508 C 122.021 164.591,122.641 165.478,122.795 165.478 C 122.950 165.478,123.077 165.717,123.077 166.009 C 123.077 166.301,123.748 167.272,124.568 168.167 C 126.416 170.183,126.479 169.950,123.712 171.321 C 117.735 174.284,113.699 176.627,111.665 178.317 C 110.445 179.330,108.841 180.492,108.101 180.898 C 106.205 181.938,103.028 183.963,102.402 184.529 C 101.251 185.571,95.391 189.258,93.623 190.054 C 92.590 190.518,91.532 191.258,91.273 191.697 C 91.013 192.136,90.522 192.495,90.182 192.495 C 89.842 192.495,89.042 192.893,88.403 193.380 C 87.765 193.867,86.367 194.708,85.299 195.249 C 84.230 195.790,83.249 196.405,83.119 196.616 C 82.989 196.826,82.548 196.998,82.139 196.998 C 81.207 196.998,78.574 198.319,77.176 199.488 C 76.592 199.976,75.876 200.375,75.584 200.375 C 75.292 200.375,73.574 201.119,71.766 202.028 C 69.959 202.937,66.454 204.476,63.977 205.448 C 61.501 206.420,59.306 207.339,59.099 207.490 C 58.893 207.641,57.289 208.150,55.535 208.621 C 45.176 211.400,44.126 212.601,48.499 216.665 C 50.751 218.758,56.700 223.265,57.211 223.265 C 57.549 223.265,65.647 228.081,66.716 228.917 C 67.190 229.288,68.088 229.704,68.711 229.841 C 69.334 229.978,69.942 230.343,70.061 230.654 C 70.304 231.286,73.218 232.645,74.333 232.645 C 74.731 232.645,75.350 232.808,75.709 233.006 C 76.067 233.204,77.666 233.742,79.262 234.201 L 82.163 235.036 81.946 236.392 C 81.789 237.375,81.894 237.884,82.328 238.244 C 82.852 238.679,82.928 238.607,82.933 237.663 C 82.944 235.555,85.632 235.255,88.983 236.987 L 89.988 237.507 89.422 239.298 C 89.110 240.282,88.633 242.101,88.362 243.340 C 88.090 244.578,87.589 246.773,87.247 248.218 C 86.906 249.662,86.477 251.773,86.295 252.908 C 85.711 256.549,85.290 258.317,84.672 259.726 C 83.939 261.397,82.552 267.481,82.552 269.025 C 82.552 269.639,82.240 271.034,81.860 272.125 C 80.501 276.024,80.293 276.831,79.942 279.579 C 79.697 281.495,79.217 283.044,78.403 284.542 C 77.123 286.898,75.047 292.455,75.047 293.524 C 75.047 293.887,74.881 294.184,74.679 294.184 C 74.476 294.184,74.197 294.648,74.059 295.216 C 73.920 295.783,73.094 297.767,72.223 299.625 C 71.352 301.482,70.175 304.015,69.608 305.253 C 66.096 312.917,65.014 314.947,63.498 316.711 C 61.860 318.617,61.538 319.171,61.538 320.087 C 61.538 322.036,61.676 322.054,74.763 321.847 C 84.403 321.694,87.287 321.531,88.931 321.046 C 90.066 320.711,92.092 320.290,93.433 320.111 C 94.775 319.932,96.801 319.370,97.936 318.863 C 99.071 318.356,100.591 317.717,101.313 317.444 C 102.036 317.171,102.795 316.821,103.002 316.667 C 103.208 316.513,104.491 315.968,105.852 315.455 C 110.516 313.700,117.549 309.914,119.414 308.154 C 119.980 307.621,120.493 307.256,120.554 307.344 C 120.615 307.433,121.099 308.180,121.628 309.006 C 122.158 309.831,123.418 311.748,124.429 313.266 C 125.439 314.784,126.873 316.943,127.614 318.065 C 128.354 319.186,129.826 321.015,130.883 322.131 C 131.940 323.246,133.054 324.756,133.360 325.488 C 133.665 326.219,134.594 327.706,135.423 328.793 L 136.931 330.769 136.007 331.563 C 134.735 332.658,134.869 335.158,136.210 335.354 C 137.081 335.481,138.489 334.216,138.562 333.240 C 138.640 332.212,140.073 333.674,142.388 337.142 C 143.079 338.177,144.167 339.520,144.805 340.126 C 145.444 340.733,145.966 341.439,145.966 341.696 C 145.966 341.952,146.563 342.892,147.293 343.783 C 151.156 348.499,152.884 350.822,153.663 352.345 C 154.138 353.274,155.062 354.540,155.717 355.159 C 156.372 355.779,157.692 357.467,158.650 358.912 C 159.608 360.356,160.755 361.829,161.199 362.185 C 161.643 362.540,162.270 363.385,162.592 364.061 C 163.234 365.410,167.587 372.204,168.828 373.793 C 169.256 374.342,169.606 374.962,169.606 375.172 C 169.606 375.671,172.237 381.053,173.306 382.739 C 173.763 383.462,174.236 384.514,174.357 385.079 C 174.477 385.643,175.309 386.781,176.204 387.606 C 179.128 390.302,182.325 389.113,184.692 384.451 C 185.314 383.225,186.120 381.790,186.482 381.261 C 188.618 378.145,190.107 375.573,191.417 372.738 C 193.193 368.895,195.677 365.025,197.524 363.224 C 198.267 362.500,198.874 361.731,198.874 361.516 C 198.874 360.996,201.705 361.383,206.864 362.609 C 212.958 364.056,222.076 364.470,251.407 364.633 C 283.498 364.812,284.383 364.836,286.068 365.584 C 286.867 365.939,287.757 366.229,288.046 366.229 C 288.334 366.229,289.239 366.651,290.056 367.167 C 290.874 367.683,291.704 368.105,291.901 368.105 C 292.098 368.105,292.734 368.301,293.315 368.540 C 293.896 368.780,294.596 368.938,294.871 368.892 C 295.145 368.846,295.772 369.072,296.263 369.394 C 297.195 370.005,297.218 370.000,300.415 368.623 C 304.327 366.938,304.077 352.643,299.963 342.815 C 293.671 327.785,276.574 310.968,259.850 303.358 C 258.612 302.795,257.176 302.121,256.660 301.860 C 255.123 301.082,251.684 300.615,242.964 299.999 C 226.166 298.813,219.311 298.274,218.802 298.099 C 218.515 298.000,215.725 297.591,212.602 297.190 C 204.767 296.184,199.609 295.142,195.055 293.644 C 192.925 292.943,190.494 292.189,189.653 291.967 C 186.790 291.212,179.334 284.287,176.673 279.913 C 176.328 279.346,175.863 278.768,175.640 278.630 C 175.417 278.493,175.235 278.042,175.235 277.629 C 175.235 277.217,174.652 276.256,173.940 275.494 C 172.204 273.638,171.010 272.073,170.381 270.832 C 170.095 270.268,169.562 269.485,169.196 269.092 C 168.830 268.699,168.412 267.746,168.267 266.975 C 168.122 266.203,167.689 265.302,167.304 264.973 C 166.919 264.643,166.603 264.031,166.603 263.613 C 166.602 263.194,166.304 262.345,165.941 261.726 C 165.577 261.107,164.956 259.587,164.560 258.349 C 164.164 257.111,163.717 255.929,163.566 255.722 C 162.405 254.132,161.833 241.763,162.718 237.374 C 163.005 235.950,163.167 234.712,163.079 234.623 C 162.990 234.534,163.336 233.251,163.848 231.771 C 164.359 230.291,164.845 228.769,164.926 228.388 C 165.689 224.815,173.293 215.154,176.334 213.895 C 176.967 213.632,177.486 213.289,177.486 213.133 C 177.486 212.977,179.386 211.914,181.707 210.772 C 211.342 196.197,242.719 226.018,232.426 258.976 C 231.183 262.956,227.454 270.169,226.639 270.169 C 225.790 270.169,225.141 270.927,225.141 271.919 C 225.141 272.386,224.794 273.646,224.371 274.720 C 223.337 277.344,223.509 278.453,225.073 279.234 C 225.758 279.576,226.640 280.147,227.033 280.503 C 227.923 281.308,228.293 281.176,235.272 277.547 C 242.829 273.619,249.458 269.704,255.347 265.691 C 257.547 264.192,264.268 259.232,264.540 258.906 C 264.644 258.783,265.572 258.045,266.604 257.266 C 273.868 251.783,285.583 239.382,291.636 230.769 C 308.370 206.957,312.862 179.133,304.417 151.595 C 303.689 149.221,302.716 145.760,302.255 143.902 C 301.464 140.714,300.396 138.268,299.211 136.931 C 298.923 136.605,298.687 136.094,298.687 135.795 C 298.687 135.496,298.419 134.869,298.092 134.403 C 297.765 133.936,296.057 130.817,294.296 127.471 C 290.868 120.958,285.163 111.411,275.528 96.060 C 259.622 70.721,252.789 56.258,249.644 41.276 C 248.393 35.316,248.079 26.161,249.014 22.882 C 249.336 21.751,249.663 19.559,249.740 18.011 C 249.817 16.463,249.987 14.669,250.117 14.024 C 250.486 12.192,249.060 11.331,246.787 12.014 M188.856 211.789 C 157.542 220.084,157.347 267.681,188.590 276.735 C 200.539 280.198,214.394 275.614,221.801 265.747 C 222.687 264.568,223.594 263.433,223.816 263.227 C 227.635 259.687,230.232 243.872,228.278 236.046 C 223.777 218.015,206.194 207.196,188.856 211.789 M299.726 220.602 C 298.184 221.322,296.719 222.799,296.925 223.426 C 297.101 223.962,298.687 224.178,298.687 223.666 C 298.687 223.445,299.132 223.265,299.676 223.265 C 300.819 223.265,302.439 221.713,302.439 220.619 C 302.439 219.719,301.626 219.714,299.726 220.602 M25.891 224.203 C 25.891 224.512,26.144 224.765,26.454 224.765 C 26.764 224.765,27.017 224.512,27.017 224.203 C 27.017 223.893,26.764 223.640,26.454 223.640 C 26.144 223.640,25.891 223.893,25.891 224.203 M228.332 231.567 C 228.679 232.712,229.178 233.241,229.543 232.850 C 229.702 232.681,229.620 232.467,229.362 232.375 C 229.104 232.283,228.893 231.978,228.893 231.698 C 228.893 231.418,228.706 231.073,228.478 230.932 C 228.193 230.756,228.147 230.956,228.332 231.567 M72.795 244.465 C 72.795 245.310,72.946 245.403,74.296 245.403 C 75.647 245.403,75.797 245.310,75.797 244.465 C 75.797 243.621,75.647 243.527,74.296 243.527 C 72.946 243.527,72.795 243.621,72.795 244.465 M280.575 244.938 C 280.011 245.526,279.550 246.294,279.550 246.643 C 279.550 246.993,279.381 247.280,279.174 247.280 C 278.968 247.280,278.799 247.533,278.799 247.842 C 278.799 248.152,278.630 248.405,278.424 248.405 C 278.218 248.405,278.049 248.680,278.049 249.015 C 278.049 250.414,283.508 247.865,283.912 246.277 C 284.523 243.872,282.408 243.023,280.575 244.938 M141.088 342.777 C 141.088 343.569,141.263 343.715,142.214 343.715 C 143.164 343.715,143.340 343.569,143.340 342.777 C 143.340 341.985,143.164 341.839,142.214 341.839 C 141.263 341.839,141.088 341.985,141.088 342.777 M126.454 367.730 C 126.454 368.730,126.579 368.856,127.580 368.856 C 128.580 368.856,128.705 368.730,128.705 367.730 C 128.705 366.729,128.580 366.604,127.580 366.604 C 126.579 366.604,126.454 366.729,126.454 367.730 M131.707 367.167 C 131.707 367.477,131.454 367.730,131.144 367.730 C 130.835 367.730,130.582 367.983,130.582 368.293 C 130.582 368.602,130.413 368.856,130.206 368.856 C 129.517 368.856,129.821 369.927,130.578 370.168 C 131.472 370.451,132.083 370.138,132.083 369.396 C 132.083 369.099,132.251 368.856,132.458 368.856 C 132.664 368.856,132.833 368.349,132.833 367.730 C 132.833 366.979,132.645 366.604,132.270 366.604 C 131.961 366.604,131.707 366.857,131.707 367.167 M332.382 398.698 C 329.210 399.712,329.876 400.001,335.344 399.983 L 340.525 399.967 339.096 399.213 C 337.188 398.206,334.553 398.004,332.382 398.698 M5.816 399.625 C 5.664 399.871,9.134 400.000,15.947 400.000 C 22.761 400.000,26.231 399.871,26.079 399.625 C 25.934 399.390,22.142 399.250,15.947 399.250 C 9.753 399.250,5.961 399.390,5.816 399.625 M251.970 399.625 C 251.824 399.860,252.661 400.000,254.221 400.000 C 255.781 400.000,256.618 399.860,256.473 399.625 C 256.345 399.418,255.332 399.250,254.221 399.250 C 253.111 399.250,252.098 399.418,251.970 399.625 M273.734 399.625 C 273.589 399.859,274.362 400.000,275.797 400.000 C 277.232 400.000,278.006 399.859,277.861 399.625 C 277.734 399.418,276.805 399.250,275.797 399.250 C 274.790 399.250,273.861 399.418,273.734 399.625 M372.420 399.625 C 372.275 399.859,373.042 400.000,374.462 400.000 C 375.727 400.000,376.735 399.834,376.735 399.625 C 376.735 399.418,375.817 399.250,374.694 399.250 C 373.571 399.250,372.548 399.418,372.420 399.625 M381.801 399.625 C 381.656 399.859,382.423 400.000,383.843 400.000 C 385.108 400.000,386.116 399.834,386.116 399.625 C 386.116 399.418,385.198 399.250,384.075 399.250 C 382.952 399.250,381.929 399.418,381.801 399.625 " stroke="none" fill="#ffffff" fill-rule="evenodd"></path><path id="path1" d="M246.787 12.014 C 246.206 12.188,245.492 12.529,245.200 12.771 C 244.908 13.014,242.784 13.859,240.480 14.650 C 238.176 15.441,235.344 16.589,234.187 17.203 C 233.029 17.816,231.323 18.517,230.394 18.761 C 229.465 19.005,228.141 19.469,227.451 19.793 C 226.393 20.289,226.146 20.300,225.876 19.863 C 225.616 19.442,225.393 19.496,224.691 20.151 C 224.216 20.595,223.361 21.073,222.792 21.215 C 222.222 21.356,221.664 21.622,221.550 21.805 C 221.437 21.989,221.010 22.139,220.601 22.139 C 219.595 22.139,217.774 23.115,213.330 26.036 C 210.189 28.100,209.533 28.401,209.257 27.908 C 208.985 27.422,208.807 27.520,208.222 28.482 C 207.834 29.121,207.329 29.644,207.100 29.644 C 206.872 29.644,206.256 29.981,205.731 30.394 C 205.206 30.807,204.526 31.144,204.220 31.144 C 203.914 31.144,203.087 31.651,202.382 32.270 C 201.677 32.889,200.852 33.396,200.550 33.396 C 200.220 33.396,200.000 33.755,200.000 34.295 C 200.000 35.211,199.280 35.931,195.542 38.753 C 194.483 39.552,192.882 41.351,191.867 42.880 C 190.877 44.371,189.625 45.966,189.083 46.424 C 187.086 48.114,182.018 56.587,180.333 61.055 C 180.038 61.837,179.348 63.659,178.799 65.103 C 178.251 66.548,177.666 68.236,177.501 68.856 C 177.335 69.475,176.991 70.488,176.736 71.107 C 176.318 72.126,176.137 73.157,175.379 78.844 C 175.232 79.951,175.300 80.671,175.567 80.836 C 176.115 81.176,176.157 99.287,175.610 99.625 C 175.033 99.981,175.161 105.258,175.833 108.818 C 176.596 112.864,177.714 117.804,178.071 118.705 C 178.367 119.453,174.718 119.367,170.816 118.534 C 169.933 118.345,167.316 117.937,164.999 117.627 C 162.683 117.316,159.353 116.729,157.598 116.321 C 155.844 115.914,152.805 115.229,150.845 114.800 C 148.885 114.371,147.028 113.797,146.718 113.524 C 146.408 113.252,145.563 112.906,144.841 112.756 C 144.118 112.606,143.358 112.360,143.152 112.209 C 142.946 112.058,141.257 111.470,139.400 110.903 C 137.542 110.336,134.503 109.148,132.645 108.262 C 130.788 107.376,128.171 106.375,126.829 106.036 C 125.488 105.698,123.546 104.886,122.514 104.233 C 121.482 103.580,119.962 102.689,119.137 102.254 C 111.106 98.018,105.619 93.786,105.370 91.634 C 105.292 90.961,104.901 90.456,104.194 90.119 C 103.221 89.655,103.155 89.495,103.383 88.147 C 103.689 86.335,103.265 86.282,102.158 87.992 C 101.219 89.440,101.097 90.056,101.747 90.056 C 102.014 90.056,101.952 90.309,101.587 90.713 C 101.093 91.259,101.020 92.156,101.152 96.060 C 101.435 104.436,101.658 107.265,102.431 112.304 C 102.849 115.030,103.461 119.034,103.792 121.201 C 104.123 123.368,104.517 125.310,104.667 125.516 C 104.817 125.722,105.165 126.904,105.441 128.143 C 105.717 129.381,106.061 130.563,106.205 130.769 C 106.350 130.976,106.583 131.778,106.722 132.552 C 106.862 133.326,107.137 133.959,107.334 133.959 C 107.531 133.959,107.692 134.383,107.692 134.902 C 107.692 135.421,107.847 136.138,108.035 136.497 C 108.224 136.855,108.729 138.289,109.159 139.683 C 109.944 142.232,110.046 142.488,111.194 144.777 C 111.538 145.465,111.820 146.361,111.820 146.769 C 111.820 147.177,111.991 147.406,112.200 147.277 C 112.410 147.147,112.680 147.545,112.804 148.169 C 112.928 148.788,113.264 149.385,113.551 149.495 C 113.837 149.605,114.071 150.207,114.071 150.833 C 114.071 151.458,114.220 151.970,114.403 151.970 C 114.585 151.970,114.833 152.265,114.955 152.627 C 115.076 152.988,115.337 153.537,115.534 153.846 C 115.732 154.156,115.992 154.662,116.112 154.972 C 116.232 155.281,116.666 156.041,117.076 156.660 C 117.486 157.280,118.007 158.250,118.234 158.818 C 118.462 159.386,118.800 159.850,118.986 159.850 C 119.172 159.850,119.325 160.095,119.325 160.394 C 119.325 160.693,119.550 161.073,119.824 161.238 C 120.099 161.403,120.817 162.425,121.419 163.508 C 122.021 164.591,122.641 165.478,122.795 165.478 C 122.950 165.478,123.077 165.717,123.077 166.009 C 123.077 166.301,123.748 167.272,124.568 168.167 C 126.416 170.183,126.479 169.950,123.712 171.321 C 117.735 174.284,113.699 176.627,111.665 178.317 C 110.445 179.330,108.841 180.492,108.101 180.898 C 106.205 181.938,103.028 183.963,102.402 184.529 C 101.251 185.571,95.391 189.258,93.623 190.054 C 92.590 190.518,91.532 191.258,91.273 191.697 C 91.013 192.136,90.522 192.495,90.182 192.495 C 89.842 192.495,89.042 192.893,88.403 193.380 C 87.765 193.867,86.367 194.708,85.299 195.249 C 84.230 195.790,83.249 196.405,83.119 196.616 C 82.989 196.826,82.548 196.998,82.139 196.998 C 81.207 196.998,78.574 198.319,77.176 199.488 C 76.592 199.976,75.876 200.375,75.584 200.375 C 75.292 200.375,73.574 201.119,71.766 202.028 C 69.959 202.937,66.454 204.476,63.977 205.448 C 61.501 206.420,59.306 207.339,59.099 207.490 C 58.893 207.641,57.289 208.150,55.535 208.621 C 45.176 211.400,44.126 212.601,48.499 216.665 C 50.751 218.758,56.700 223.265,57.211 223.265 C 57.549 223.265,65.647 228.081,66.716 228.917 C 67.190 229.288,68.088 229.704,68.711 229.841 C 69.334 229.978,69.942 230.343,70.061 230.654 C 70.304 231.286,73.218 232.645,74.333 232.645 C 74.731 232.645,75.350 232.808,75.709 233.006 C 76.067 233.204,77.666 233.742,79.262 234.201 L 82.163 235.036 81.946 236.392 C 81.789 237.375,81.894 237.884,82.328 238.244 C 82.852 238.679,82.928 238.607,82.933 237.663 C 82.944 235.555,85.632 235.255,88.983 236.987 L 89.988 237.507 89.422 239.298 C 89.110 240.282,88.633 242.101,88.362 243.340 C 88.090 244.578,87.589 246.773,87.247 248.218 C 86.906 249.662,86.477 251.773,86.295 252.908 C 85.711 256.549,85.290 258.317,84.672 259.726 C 83.939 261.397,82.552 267.481,82.552 269.025 C 82.552 269.639,82.240 271.034,81.860 272.125 C 80.501 276.024,80.293 276.831,79.942 279.579 C 79.697 281.495,79.217 283.044,78.403 284.542 C 77.123 286.898,75.047 292.455,75.047 293.524 C 75.047 293.887,74.881 294.184,74.679 294.184 C 74.476 294.184,74.197 294.648,74.059 295.216 C 73.920 295.783,73.094 297.767,72.223 299.625 C 71.352 301.482,70.175 304.015,69.608 305.253 C 66.096 312.917,65.014 314.947,63.498 316.711 C 61.860 318.617,61.538 319.171,61.538 320.087 C 61.538 322.036,61.676 322.054,74.763 321.847 C 84.403 321.694,87.287 321.531,88.931 321.046 C 90.066 320.711,92.092 320.290,93.433 320.111 C 94.775 319.932,96.801 319.370,97.936 318.863 C 99.071 318.356,100.591 317.717,101.313 317.444 C 102.036 317.171,102.795 316.821,103.002 316.667 C 103.208 316.513,104.491 315.968,105.852 315.455 C 110.516 313.700,117.549 309.914,119.414 308.154 C 119.980 307.621,120.493 307.256,120.554 307.344 C 120.615 307.433,121.099 308.180,121.628 309.006 C 122.158 309.831,123.418 311.748,124.429 313.266 C 125.439 314.784,126.873 316.943,127.614 318.065 C 128.354 319.186,129.826 321.015,130.883 322.131 C 131.940 323.246,133.054 324.756,133.360 325.488 C 133.665 326.219,134.594 327.706,135.423 328.793 L 136.931 330.769 136.007 331.563 C 134.735 332.658,134.869 335.158,136.210 335.354 C 137.081 335.481,138.489 334.216,138.562 333.240 C 138.640 332.212,140.073 333.674,142.388 337.142 C 143.079 338.177,144.167 339.520,144.805 340.126 C 145.444 340.733,145.966 341.439,145.966 341.696 C 145.966 341.952,146.563 342.892,147.293 343.783 C 151.156 348.499,152.884 350.822,153.663 352.345 C 154.138 353.274,155.062 354.540,155.717 355.159 C 156.372 355.779,157.692 357.467,158.650 358.912 C 159.608 360.356,160.755 361.829,161.199 362.185 C 161.643 362.540,162.270 363.385,162.592 364.061 C 163.234 365.410,167.587 372.204,168.828 373.793 C 169.256 374.342,169.606 374.962,169.606 375.172 C 169.606 375.671,172.237 381.053,173.306 382.739 C 173.763 383.462,174.236 384.514,174.357 385.079 C 174.477 385.643,175.309 386.781,176.204 387.606 C 179.128 390.302,182.325 389.113,184.692 384.451 C 185.314 383.225,186.120 381.790,186.482 381.261 C 188.618 378.145,190.107 375.573,191.417 372.738 C 193.193 368.895,195.677 365.025,197.524 363.224 C 198.267 362.500,198.874 361.731,198.874 361.516 C 198.874 360.996,201.705 361.383,206.864 362.609 C 212.958 364.056,222.076 364.470,251.407 364.633 C 283.498 364.812,284.383 364.836,286.068 365.584 C 286.867 365.939,287.757 366.229,288.046 366.229 C 288.334 366.229,289.239 366.651,290.056 367.167 C 290.874 367.683,291.704 368.105,291.901 368.105 C 292.098 368.105,292.734 368.301,293.315 368.540 C 293.896 368.780,294.596 368.938,294.871 368.892 C 295.145 368.846,295.772 369.072,296.263 369.394 C 297.195 370.005,297.218 370.000,300.415 368.623 C 304.327 366.938,304.077 352.643,299.963 342.815 C 293.671 327.785,276.574 310.968,259.850 303.358 C 258.612 302.795,257.176 302.121,256.660 301.860 C 255.123 301.082,251.684 300.615,242.964 299.999 C 226.166 298.813,219.311 298.274,218.802 298.099 C 218.515 298.000,215.725 297.591,212.602 297.190 C 204.767 296.184,199.609 295.142,195.055 293.644 C 192.925 292.943,190.494 292.189,189.653 291.967 C 186.790 291.212,179.334 284.287,176.673 279.913 C 176.328 279.346,175.863 278.768,175.640 278.630 C 175.417 278.493,175.235 278.042,175.235 277.629 C 175.235 277.217,174.652 276.256,173.940 275.494 C 172.204 273.638,171.010 272.073,170.381 270.832 C 170.095 270.268,169.562 269.485,169.196 269.092 C 168.830 268.699,168.412 267.746,168.267 266.975 C 168.122 266.203,167.689 265.302,167.304 264.973 C 166.919 264.643,166.603 264.031,166.603 263.613 C 166.602 263.194,166.304 262.345,165.941 261.726 C 165.577 261.107,164.956 259.587,164.560 258.349 C 164.164 257.111,163.717 255.929,163.566 255.722 C 162.405 254.132,161.833 241.763,162.718 237.374 C 163.005 235.950,163.167 234.712,163.079 234.623 C 162.990 234.534,163.336 233.251,163.848 231.771 C 164.359 230.291,164.845 228.769,164.926 228.388 C 165.689 224.815,173.293 215.154,176.334 213.895 C 176.967 213.632,177.486 213.289,177.486 213.133 C 177.486 212.977,179.386 211.914,181.707 210.772 C 211.342 196.197,242.719 226.018,232.426 258.976 C 231.183 262.956,227.454 270.169,226.639 270.169 C 225.790 270.169,225.141 270.927,225.141 271.919 C 225.141 272.386,224.794 273.646,224.371 274.720 C 223.337 277.344,223.509 278.453,225.073 279.234 C 225.758 279.576,226.640 280.147,227.033 280.503 C 227.923 281.308,228.293 281.176,235.272 277.547 C 242.829 273.619,249.458 269.704,255.347 265.691 C 257.547 264.192,264.268 259.232,264.540 258.906 C 264.644 258.783,265.572 258.045,266.604 257.266 C 273.868 251.783,285.583 239.382,291.636 230.769 C 308.370 206.957,312.862 179.133,304.417 151.595 C 303.689 149.221,302.716 145.760,302.255 143.902 C 301.464 140.714,300.396 138.268,299.211 136.931 C 298.923 136.605,298.687 136.094,298.687 135.795 C 298.687 135.496,298.419 134.869,298.092 134.403 C 297.765 133.936,296.057 130.817,294.296 127.471 C 290.868 120.958,285.163 111.411,275.528 96.060 C 259.622 70.721,252.789 56.258,249.644 41.276 C 248.393 35.316,248.079 26.161,249.014 22.882 C 249.336 21.751,249.663 19.559,249.740 18.011 C 249.817 16.463,249.987 14.669,250.117 14.024 C 250.486 12.192,249.060 11.331,246.787 12.014 M188.856 211.789 C 157.542 220.084,157.347 267.681,188.590 276.735 C 200.539 280.198,214.394 275.614,221.801 265.747 C 222.687 264.568,223.594 263.433,223.816 263.227 C 227.635 259.687,230.232 243.872,228.278 236.046 C 223.777 218.015,206.194 207.196,188.856 211.789 M299.726 220.602 C 298.184 221.322,296.719 222.799,296.925 223.426 C 297.101 223.962,298.687 224.178,298.687 223.666 C 298.687 223.445,299.132 223.265,299.676 223.265 C 300.819 223.265,302.439 221.713,302.439 220.619 C 302.439 219.719,301.626 219.714,299.726 220.602 M25.891 224.203 C 25.891 224.512,26.144 224.765,26.454 224.765 C 26.764 224.765,27.017 224.512,27.017 224.203 C 27.017 223.893,26.764 223.640,26.454 223.640 C 26.144 223.640,25.891 223.893,25.891 224.203 M228.332 231.567 C 228.679 232.712,229.178 233.241,229.543 232.850 C 229.702 232.681,229.620 232.467,229.362 232.375 C 229.104 232.283,228.893 231.978,228.893 231.698 C 228.893 231.418,228.706 231.073,228.478 230.932 C 228.193 230.756,228.147 230.956,228.332 231.567 M72.795 244.465 C 72.795 245.310,72.946 245.403,74.296 245.403 C 75.647 245.403,75.797 245.310,75.797 244.465 C 75.797 243.621,75.647 243.527,74.296 243.527 C 72.946 243.527,72.795 243.621,72.795 244.465 M280.575 244.938 C 280.011 245.526,279.550 246.294,279.550 246.643 C 279.550 246.993,279.381 247.280,279.174 247.280 C 278.968 247.280,278.799 247.533,278.799 247.842 C 278.799 248.152,278.630 248.405,278.424 248.405 C 278.218 248.405,278.049 248.680,278.049 249.015 C 278.049 250.414,283.508 247.865,283.912 246.277 C 284.523 243.872,282.408 243.023,280.575 244.938 M141.088 342.777 C 141.088 343.569,141.263 343.715,142.214 343.715 C 143.164 343.715,143.340 343.569,143.340 342.777 C 143.340 341.985,143.164 341.839,142.214 341.839 C 141.263 341.839,141.088 341.985,141.088 342.777 M126.454 367.730 C 126.454 368.730,126.579 368.856,127.580 368.856 C 128.580 368.856,128.705 368.730,128.705 367.730 C 128.705 366.729,128.580 366.604,127.580 366.604 C 126.579 366.604,126.454 366.729,126.454 367.730 M131.707 367.167 C 131.707 367.477,131.454 367.730,131.144 367.730 C 130.835 367.730,130.582 367.983,130.582 368.293 C 130.582 368.602,130.413 368.856,130.206 368.856 C 129.517 368.856,129.821 369.927,130.578 370.168 C 131.472 370.451,132.083 370.138,132.083 369.396 C 132.083 369.099,132.251 368.856,132.458 368.856 C 132.664 368.856,132.833 368.349,132.833 367.730 C 132.833 366.979,132.645 366.604,132.270 366.604 C 131.961 366.604,131.707 366.857,131.707 367.167 M332.382 398.698 C 329.210 399.712,329.876 400.001,335.344 399.983 L 340.525 399.967 339.096 399.213 C 337.188 398.206,334.553 398.004,332.382 398.698 M5.816 399.625 C 5.664 399.871,9.134 400.000,15.947 400.000 C 22.761 400.000,26.231 399.871,26.079 399.625 C 25.934 399.390,22.142 399.250,15.947 399.250 C 9.753 399.250,5.961 399.390,5.816 399.625 M251.970 399.625 C 251.824 399.860,252.661 400.000,254.221 400.000 C 255.781 400.000,256.618 399.860,256.473 399.625 C 256.345 399.418,255.332 399.250,254.221 399.250 C 253.111 399.250,252.098 399.418,251.970 399.625 M273.734 399.625 C 273.589 399.859,274.362 400.000,275.797 400.000 C 277.232 400.000,278.006 399.859,277.861 399.625 C 277.734 399.418,276.805 399.250,275.797 399.250 C 274.790 399.250,273.861 399.418,273.734 399.625 M372.420 399.625 C 372.275 399.859,373.042 400.000,374.462 400.000 C 375.727 400.000,376.735 399.834,376.735 399.625 C 376.735 399.418,375.817 399.250,374.694 399.250 C 373.571 399.250,372.548 399.418,372.420 399.625 M381.801 399.625 C 381.656 399.859,382.423 400.000,383.843 400.000 C 385.108 400.000,386.116 399.834,386.116 399.625 C 386.116 399.418,385.198 399.250,384.075 399.250 C 382.952 399.250,381.929 399.418,381.801 399.625 " stroke="none" fill="#ffffff" fill-rule="evenodd"></path><path id="path2" d="M246.787 12.014 C 246.206 12.188,245.492 12.529,245.200 12.771 C 244.908 13.014,242.784 13.859,240.480 14.650 C 238.176 15.441,235.344 16.589,234.187 17.203 C 233.029 17.816,231.323 18.517,230.394 18.761 C 229.465 19.005,228.141 19.469,227.451 19.793 C 226.393 20.289,226.146 20.300,225.876 19.863 C 225.616 19.442,225.393 19.496,224.691 20.151 C 224.216 20.595,223.361 21.073,222.792 21.215 C 222.222 21.356,221.664 21.622,221.550 21.805 C 221.437 21.989,221.010 22.139,220.601 22.139 C 219.595 22.139,217.774 23.115,213.330 26.036 C 210.189 28.100,209.533 28.401,209.257 27.908 C 208.985 27.422,208.807 27.520,208.222 28.482 C 207.834 29.121,207.329 29.644,207.100 29.644 C 206.872 29.644,206.256 29.981,205.731 30.394 C 205.206 30.807,204.526 31.144,204.220 31.144 C 203.914 31.144,203.087 31.651,202.382 32.270 C 201.677 32.889,200.852 33.396,200.550 33.396 C 200.220 33.396,200.000 33.755,200.000 34.295 C 200.000 35.211,199.280 35.931,195.542 38.753 C 194.483 39.552,192.882 41.351,191.867 42.880 C 190.877 44.371,189.625 45.966,189.083 46.424 C 187.086 48.114,182.018 56.587,180.333 61.055 C 180.038 61.837,179.348 63.659,178.799 65.103 C 178.251 66.548,177.666 68.236,177.501 68.856 C 177.335 69.475,176.991 70.488,176.736 71.107 C 176.318 72.126,176.137 73.157,175.379 78.844 C 175.232 79.951,175.300 80.671,175.567 80.836 C 176.115 81.176,176.157 99.287,175.610 99.625 C 175.033 99.981,175.161 105.258,175.833 108.818 C 176.596 112.864,177.714 117.804,178.071 118.705 C 178.367 119.453,174.718 119.367,170.816 118.534 C 169.933 118.345,167.316 117.937,164.999 117.627 C 162.683 117.316,159.353 116.729,157.598 116.321 C 155.844 115.914,152.805 115.229,150.845 114.800 C 148.885 114.371,147.028 113.797,146.718 113.524 C 146.408 113.252,145.563 112.906,144.841 112.756 C 144.118 112.606,143.358 112.360,143.152 112.209 C 142.946 112.058,141.257 111.470,139.400 110.903 C 137.542 110.336,134.503 109.148,132.645 108.262 C 130.788 107.376,128.171 106.375,126.829 106.036 C 125.488 105.698,123.546 104.886,122.514 104.233 C 121.482 103.580,119.962 102.689,119.137 102.254 C 111.106 98.018,105.619 93.786,105.370 91.634 C 105.292 90.961,104.901 90.456,104.194 90.119 C 103.221 89.655,103.155 89.495,103.383 88.147 C 103.689 86.335,103.265 86.282,102.158 87.992 C 101.219 89.440,101.097 90.056,101.747 90.056 C 102.014 90.056,101.952 90.309,101.587 90.713 C 101.093 91.259,101.020 92.156,101.152 96.060 C 101.435 104.436,101.658 107.265,102.431 112.304 C 102.849 115.030,103.461 119.034,103.792 121.201 C 104.123 123.368,104.517 125.310,104.667 125.516 C 104.817 125.722,105.165 126.904,105.441 128.143 C 105.717 129.381,106.061 130.563,106.205 130.769 C 106.350 130.976,106.583 131.778,106.722 132.552 C 106.862 133.326,107.137 133.959,107.334 133.959 C 107.531 133.959,107.692 134.383,107.692 134.902 C 107.692 135.421,107.847 136.138,108.035 136.497 C 108.224 136.855,108.729 138.289,109.159 139.683 C 109.944 142.232,110.046 142.488,111.194 144.777 C 111.538 145.465,111.820 146.361,111.820 146.769 C 111.820 147.177,111.991 147.406,112.200 147.277 C 112.410 147.147,112.680 147.545,112.804 148.169 C 112.928 148.788,113.264 149.385,113.551 149.495 C 113.837 149.605,114.071 150.207,114.071 150.833 C 114.071 151.458,114.220 151.970,114.403 151.970 C 114.585 151.970,114.833 152.265,114.955 152.627 C 115.076 152.988,115.337 153.537,115.534 153.846 C 115.732 154.156,115.992 154.662,116.112 154.972 C 116.232 155.281,116.666 156.041,117.076 156.660 C 117.486 157.280,118.007 158.250,118.234 158.818 C 118.462 159.386,118.800 159.850,118.986 159.850 C 119.172 159.850,119.325 160.095,119.325 160.394 C 119.325 160.693,119.550 161.073,119.824 161.238 C 120.099 161.403,120.817 162.425,121.419 163.508 C 122.021 164.591,122.641 165.478,122.795 165.478 C 122.950 165.478,123.077 165.717,123.077 166.009 C 123.077 166.301,123.748 167.272,124.568 168.167 C 126.416 170.183,126.479 169.950,123.712 171.321 C 117.735 174.284,113.699 176.627,111.665 178.317 C 110.445 179.330,108.841 180.492,108.101 180.898 C 106.205 181.938,103.028 183.963,102.402 184.529 C 101.251 185.571,95.391 189.258,93.623 190.054 C 92.590 190.518,91.532 191.258,91.273 191.697 C 91.013 192.136,90.522 192.495,90.182 192.495 C 89.842 192.495,89.042 192.893,88.403 193.380 C 87.765 193.867,86.367 194.708,85.299 195.249 C 84.230 195.790,83.249 196.405,83.119 196.616 C 82.989 196.826,82.548 196.998,82.139 196.998 C 81.207 196.998,78.574 198.319,77.176 199.488 C 76.592 199.976,75.876 200.375,75.584 200.375 C 75.292 200.375,73.574 201.119,71.766 202.028 C 69.959 202.937,66.454 204.476,63.977 205.448 C 61.501 206.420,59.306 207.339,59.099 207.490 C 58.893 207.641,57.289 208.150,55.535 208.621 C 45.176 211.400,44.126 212.601,48.499 216.665 C 50.751 218.758,56.700 223.265,57.211 223.265 C 57.549 223.265,65.647 228.081,66.716 228.917 C 67.190 229.288,68.088 229.704,68.711 229.841 C 69.334 229.978,69.942 230.343,70.061 230.654 C 70.304 231.286,73.218 232.645,74.333 232.645 C 74.731 232.645,75.350 232.808,75.709 233.006 C 76.067 233.204,77.666 233.742,79.262 234.201 L 82.163 235.036 81.946 236.392 C 81.789 237.375,81.894 237.884,82.328 238.244 C 82.852 238.679,82.928 238.607,82.933 237.663 C 82.944 235.555,85.632 235.255,88.983 236.987 L 89.988 237.507 89.422 239.298 C 89.110 240.282,88.633 242.101,88.362 243.340 C 88.090 244.578,87.589 246.773,87.247 248.218 C 86.906 249.662,86.477 251.773,86.295 252.908 C 85.711 256.549,85.290 258.317,84.672 259.726 C 83.939 261.397,82.552 267.481,82.552 269.025 C 82.552 269.639,82.240 271.034,81.860 272.125 C 80.501 276.024,80.293 276.831,79.942 279.579 C 79.697 281.495,79.217 283.044,78.403 284.542 C 77.123 286.898,75.047 292.455,75.047 293.524 C 75.047 293.887,74.881 294.184,74.679 294.184 C 74.476 294.184,74.197 294.648,74.059 295.216 C 73.920 295.783,73.094 297.767,72.223 299.625 C 71.352 301.482,70.175 304.015,69.608 305.253 C 66.096 312.917,65.014 314.947,63.498 316.711 C 61.860 318.617,61.538 319.171,61.538 320.087 C 61.538 322.036,61.676 322.054,74.763 321.847 C 84.403 321.694,87.287 321.531,88.931 321.046 C 90.066 320.711,92.092 320.290,93.433 320.111 C 94.775 319.932,96.801 319.370,97.936 318.863 C 99.071 318.356,100.591 317.717,101.313 317.444 C 102.036 317.171,102.795 316.821,103.002 316.667 C 103.208 316.513,104.491 315.968,105.852 315.455 C 110.516 313.700,117.549 309.914,119.414 308.154 C 119.980 307.621,120.493 307.256,120.554 307.344 C 120.615 307.433,121.099 308.180,121.628 309.006 C 122.158 309.831,123.418 311.748,124.429 313.266 C 125.439 314.784,126.873 316.943,127.614 318.065 C 128.354 319.186,129.826 321.015,130.883 322.131 C 131.940 323.246,133.054 324.756,133.360 325.488 C 133.665 326.219,134.594 327.706,135.423 328.793 L 136.931 330.769 136.007 331.563 C 134.735 332.658,134.869 335.158,136.210 335.354 C 137.081 335.481,138.489 334.216,138.562 333.240 C 138.640 332.212,140.073 333.674,142.388 337.142 C 143.079 338.177,144.167 339.520,144.805 340.126 C 145.444 340.733,145.966 341.439,145.966 341.696 C 145.966 341.952,146.563 342.892,147.293 343.783 C 151.156 348.499,152.884 350.822,153.663 352.345 C 154.138 353.274,155.062 354.540,155.717 355.159 C 156.372 355.779,157.692 357.467,158.650 358.912 C 159.608 360.356,160.755 361.829,161.199 362.185 C 161.643 362.540,162.270 363.385,162.592 364.061 C 163.234 365.410,167.587 372.204,168.828 373.793 C 169.256 374.342,169.606 374.962,169.606 375.172 C 169.606 375.671,172.237 381.053,173.306 382.739 C 173.763 383.462,174.236 384.514,174.357 385.079 C 174.477 385.643,175.309 386.781,176.204 387.606 C 179.128 390.302,182.325 389.113,184.692 384.451 C 185.314 383.225,186.120 381.790,186.482 381.261 C 188.618 378.145,190.107 375.573,191.417 372.738 C 193.193 368.895,195.677 365.025,197.524 363.224 C 198.267 362.500,198.874 361.731,198.874 361.516 C 198.874 360.996,201.705 361.383,206.864 362.609 C 212.958 364.056,222.076 364.470,251.407 364.633 C 283.498 364.812,284.383 364.836,286.068 365.584 C 286.867 365.939,287.757 366.229,288.046 366.229 C 288.334 366.229,289.239 366.651,290.056 367.167 C 290.874 367.683,291.704 368.105,291.901 368.105 C 292.098 368.105,292.734 368.301,293.315 368.540 C 293.896 368.780,294.596 368.938,294.871 368.892 C 295.145 368.846,295.772 369.072,296.263 369.394 C 297.195 370.005,297.218 370.000,300.415 368.623 C 304.327 366.938,304.077 352.643,299.963 342.815 C 293.671 327.785,276.574 310.968,259.850 303.358 C 258.612 302.795,257.176 302.121,256.660 301.860 C 255.123 301.082,251.684 300.615,242.964 299.999 C 226.166 298.813,219.311 298.274,218.802 298.099 C 218.515 298.000,215.725 297.591,212.602 297.190 C 204.767 296.184,199.609 295.142,195.055 293.644 C 192.925 292.943,190.494 292.189,189.653 291.967 C 186.790 291.212,179.334 284.287,176.673 279.913 C 176.328 279.346,175.863 278.768,175.640 278.630 C 175.417 278.493,175.235 278.042,175.235 277.629 C 175.235 277.217,174.652 276.256,173.940 275.494 C 172.204 273.638,171.010 272.073,170.381 270.832 C 170.095 270.268,169.562 269.485,169.196 269.092 C 168.830 268.699,168.412 267.746,168.267 266.975 C 168.122 266.203,167.689 265.302,167.304 264.973 C 166.919 264.643,166.603 264.031,166.603 263.613 C 166.602 263.194,166.304 262.345,165.941 261.726 C 165.577 261.107,164.956 259.587,164.560 258.349 C 164.164 257.111,163.717 255.929,163.566 255.722 C 162.405 254.132,161.833 241.763,162.718 237.374 C 163.005 235.950,163.167 234.712,163.079 234.623 C 162.990 234.534,163.336 233.251,163.848 231.771 C 164.359 230.291,164.845 228.769,164.926 228.388 C 165.689 224.815,173.293 215.154,176.334 213.895 C 176.967 213.632,177.486 213.289,177.486 213.133 C 177.486 212.977,179.386 211.914,181.707 210.772 C 211.342 196.197,242.719 226.018,232.426 258.976 C 231.183 262.956,227.454 270.169,226.639 270.169 C 225.790 270.169,225.141 270.927,225.141 271.919 C 225.141 272.386,224.794 273.646,224.371 274.720 C 223.337 277.344,223.509 278.453,225.073 279.234 C 225.758 279.576,226.640 280.147,227.033 280.503 C 227.923 281.308,228.293 281.176,235.272 277.547 C 242.829 273.619,249.458 269.704,255.347 265.691 C 257.547 264.192,264.268 259.232,264.540 258.906 C 264.644 258.783,265.572 258.045,266.604 257.266 C 273.868 251.783,285.583 239.382,291.636 230.769 C 308.370 206.957,312.862 179.133,304.417 151.595 C 303.689 149.221,302.716 145.760,302.255 143.902 C 301.464 140.714,300.396 138.268,299.211 136.931 C 298.923 136.605,298.687 136.094,298.687 135.795 C 298.687 135.496,298.419 134.869,298.092 134.403 C 297.765 133.936,296.057 130.817,294.296 127.471 C 290.868 120.958,285.163 111.411,275.528 96.060 C 259.622 70.721,252.789 56.258,249.644 41.276 C 248.393 35.316,248.079 26.161,249.014 22.882 C 249.336 21.751,249.663 19.559,249.740 18.011 C 249.817 16.463,249.987 14.669,250.117 14.024 C 250.486 12.192,249.060 11.331,246.787 12.014 M188.856 211.789 C 157.542 220.084,157.347 267.681,188.590 276.735 C 200.539 280.198,214.394 275.614,221.801 265.747 C 222.687 264.568,223.594 263.433,223.816 263.227 C 227.635 259.687,230.232 243.872,228.278 236.046 C 223.777 218.015,206.194 207.196,188.856 211.789 M299.726 220.602 C 298.184 221.322,296.719 222.799,296.925 223.426 C 297.101 223.962,298.687 224.178,298.687 223.666 C 298.687 223.445,299.132 223.265,299.676 223.265 C 300.819 223.265,302.439 221.713,302.439 220.619 C 302.439 219.719,301.626 219.714,299.726 220.602 M25.891 224.203 C 25.891 224.512,26.144 224.765,26.454 224.765 C 26.764 224.765,27.017 224.512,27.017 224.203 C 27.017 223.893,26.764 223.640,26.454 223.640 C 26.144 223.640,25.891 223.893,25.891 224.203 M228.332 231.567 C 228.679 232.712,229.178 233.241,229.543 232.850 C 229.702 232.681,229.620 232.467,229.362 232.375 C 229.104 232.283,228.893 231.978,228.893 231.698 C 228.893 231.418,228.706 231.073,228.478 230.932 C 228.193 230.756,228.147 230.956,228.332 231.567 M72.795 244.465 C 72.795 245.310,72.946 245.403,74.296 245.403 C 75.647 245.403,75.797 245.310,75.797 244.465 C 75.797 243.621,75.647 243.527,74.296 243.527 C 72.946 243.527,72.795 243.621,72.795 244.465 M280.575 244.938 C 280.011 245.526,279.550 246.294,279.550 246.643 C 279.550 246.993,279.381 247.280,279.174 247.280 C 278.968 247.280,278.799 247.533,278.799 247.842 C 278.799 248.152,278.630 248.405,278.424 248.405 C 278.218 248.405,278.049 248.680,278.049 249.015 C 278.049 250.414,283.508 247.865,283.912 246.277 C 284.523 243.872,282.408 243.023,280.575 244.938 M141.088 342.777 C 141.088 343.569,141.263 343.715,142.214 343.715 C 143.164 343.715,143.340 343.569,143.340 342.777 C 143.340 341.985,143.164 341.839,142.214 341.839 C 141.263 341.839,141.088 341.985,141.088 342.777 M126.454 367.730 C 126.454 368.730,126.579 368.856,127.580 368.856 C 128.580 368.856,128.705 368.730,128.705 367.730 C 128.705 366.729,128.580 366.604,127.580 366.604 C 126.579 366.604,126.454 366.729,126.454 367.730 M131.707 367.167 C 131.707 367.477,131.454 367.730,131.144 367.730 C 130.835 367.730,130.582 367.983,130.582 368.293 C 130.582 368.602,130.413 368.856,130.206 368.856 C 129.517 368.856,129.821 369.927,130.578 370.168 C 131.472 370.451,132.083 370.138,132.083 369.396 C 132.083 369.099,132.251 368.856,132.458 368.856 C 132.664 368.856,132.833 368.349,132.833 367.730 C 132.833 366.979,132.645 366.604,132.270 366.604 C 131.961 366.604,131.707 366.857,131.707 367.167 M332.382 398.698 C 329.210 399.712,329.876 400.001,335.344 399.983 L 340.525 399.967 339.096 399.213 C 337.188 398.206,334.553 398.004,332.382 398.698 M5.816 399.625 C 5.664 399.871,9.134 400.000,15.947 400.000 C 22.761 400.000,26.231 399.871,26.079 399.625 C 25.934 399.390,22.142 399.250,15.947 399.250 C 9.753 399.250,5.961 399.390,5.816 399.625 M251.970 399.625 C 251.824 399.860,252.661 400.000,254.221 400.000 C 255.781 400.000,256.618 399.860,256.473 399.625 C 256.345 399.418,255.332 399.250,254.221 399.250 C 253.111 399.250,252.098 399.418,251.970 399.625 M273.734 399.625 C 273.589 399.859,274.362 400.000,275.797 400.000 C 277.232 400.000,278.006 399.859,277.861 399.625 C 277.734 399.418,276.805 399.250,275.797 399.250 C 274.790 399.250,273.861 399.418,273.734 399.625 M372.420 399.625 C 372.275 399.859,373.042 400.000,374.462 400.000 C 375.727 400.000,376.735 399.834,376.735 399.625 C 376.735 399.418,375.817 399.250,374.694 399.250 C 373.571 399.250,372.548 399.418,372.420 399.625 M381.801 399.625 C 381.656 399.859,382.423 400.000,383.843 400.000 C 385.108 400.000,386.116 399.834,386.116 399.625 C 386.116 399.418,385.198 399.250,384.075 399.250 C 382.952 399.250,381.929 399.418,381.801 399.625 " stroke="none" fill="#ffffff" fill-rule="evenodd"></path><path id="path3" d="M246.787 12.014 C 246.206 12.188,245.492 12.529,245.200 12.771 C 244.908 13.014,242.784 13.859,240.480 14.650 C 238.176 15.441,235.344 16.589,234.187 17.203 C 233.029 17.816,231.323 18.517,230.394 18.761 C 229.465 19.005,228.141 19.469,227.451 19.793 C 226.393 20.289,226.146 20.300,225.876 19.863 C 225.616 19.442,225.393 19.496,224.691 20.151 C 224.216 20.595,223.361 21.073,222.792 21.215 C 222.222 21.356,221.664 21.622,221.550 21.805 C 221.437 21.989,221.010 22.139,220.601 22.139 C 219.595 22.139,217.774 23.115,213.330 26.036 C 210.189 28.100,209.533 28.401,209.257 27.908 C 208.985 27.422,208.807 27.520,208.222 28.482 C 207.834 29.121,207.329 29.644,207.100 29.644 C 206.872 29.644,206.256 29.981,205.731 30.394 C 205.206 30.807,204.526 31.144,204.220 31.144 C 203.914 31.144,203.087 31.651,202.382 32.270 C 201.677 32.889,200.852 33.396,200.550 33.396 C 200.220 33.396,200.000 33.755,200.000 34.295 C 200.000 35.211,199.280 35.931,195.542 38.753 C 194.483 39.552,192.882 41.351,191.867 42.880 C 190.877 44.371,189.625 45.966,189.083 46.424 C 187.086 48.114,182.018 56.587,180.333 61.055 C 180.038 61.837,179.348 63.659,178.799 65.103 C 178.251 66.548,177.666 68.236,177.501 68.856 C 177.335 69.475,176.991 70.488,176.736 71.107 C 176.318 72.126,176.137 73.157,175.379 78.844 C 175.232 79.951,175.300 80.671,175.567 80.836 C 176.115 81.176,176.157 99.287,175.610 99.625 C 175.033 99.981,175.161 105.258,175.833 108.818 C 176.596 112.864,177.714 117.804,178.071 118.705 C 178.367 119.453,174.718 119.367,170.816 118.534 C 169.933 118.345,167.316 117.937,164.999 117.627 C 162.683 117.316,159.353 116.729,157.598 116.321 C 155.844 115.914,152.805 115.229,150.845 114.800 C 148.885 114.371,147.028 113.797,146.718 113.524 C 146.408 113.252,145.563 112.906,144.841 112.756 C 144.118 112.606,143.358 112.360,143.152 112.209 C 142.946 112.058,141.257 111.470,139.400 110.903 C 137.542 110.336,134.503 109.148,132.645 108.262 C 130.788 107.376,128.171 106.375,126.829 106.036 C 125.488 105.698,123.546 104.886,122.514 104.233 C 121.482 103.580,119.962 102.689,119.137 102.254 C 111.106 98.018,105.619 93.786,105.370 91.634 C 105.292 90.961,104.901 90.456,104.194 90.119 C 103.221 89.655,103.155 89.495,103.383 88.147 C 103.689 86.335,103.265 86.282,102.158 87.992 C 101.219 89.440,101.097 90.056,101.747 90.056 C 102.014 90.056,101.952 90.309,101.587 90.713 C 101.093 91.259,101.020 92.156,101.152 96.060 C 101.435 104.436,101.658 107.265,102.431 112.304 C 102.849 115.030,103.461 119.034,103.792 121.201 C 104.123 123.368,104.517 125.310,104.667 125.516 C 104.817 125.722,105.165 126.904,105.441 128.143 C 105.717 129.381,106.061 130.563,106.205 130.769 C 106.350 130.976,106.583 131.778,106.722 132.552 C 106.862 133.326,107.137 133.959,107.334 133.959 C 107.531 133.959,107.692 134.383,107.692 134.902 C 107.692 135.421,107.847 136.138,108.035 136.497 C 108.224 136.855,108.729 138.289,109.159 139.683 C 109.944 142.232,110.046 142.488,111.194 144.777 C 111.538 145.465,111.820 146.361,111.820 146.769 C 111.820 147.177,111.991 147.406,112.200 147.277 C 112.410 147.147,112.680 147.545,112.804 148.169 C 112.928 148.788,113.264 149.385,113.551 149.495 C 113.837 149.605,114.071 150.207,114.071 150.833 C 114.071 151.458,114.220 151.970,114.403 151.970 C 114.585 151.970,114.833 152.265,114.955 152.627 C 115.076 152.988,115.337 153.537,115.534 153.846 C 115.732 154.156,115.992 154.662,116.112 154.972 C 116.232 155.281,116.666 156.041,117.076 156.660 C 117.486 157.280,118.007 158.250,118.234 158.818 C 118.462 159.386,118.800 159.850,118.986 159.850 C 119.172 159.850,119.325 160.095,119.325 160.394 C 119.325 160.693,119.550 161.073,119.824 161.238 C 120.099 161.403,120.817 162.425,121.419 163.508 C 122.021 164.591,122.641 165.478,122.795 165.478 C 122.950 165.478,123.077 165.717,123.077 166.009 C 123.077 166.301,123.748 167.272,124.568 168.167 C 126.416 170.183,126.479 169.950,123.712 171.321 C 117.735 174.284,113.699 176.627,111.665 178.317 C 110.445 179.330,108.841 180.492,108.101 180.898 C 106.205 181.938,103.028 183.963,102.402 184.529 C 101.251 185.571,95.391 189.258,93.623 190.054 C 92.590 190.518,91.532 191.258,91.273 191.697 C 91.013 192.136,90.522 192.495,90.182 192.495 C 89.842 192.495,89.042 192.893,88.403 193.380 C 87.765 193.867,86.367 194.708,85.299 195.249 C 84.230 195.790,83.249 196.405,83.119 196.616 C 82.989 196.826,82.548 196.998,82.139 196.998 C 81.207 196.998,78.574 198.319,77.176 199.488 C 76.592 199.976,75.876 200.375,75.584 200.375 C 75.292 200.375,73.574 201.119,71.766 202.028 C 69.959 202.937,66.454 204.476,63.977 205.448 C 61.501 206.420,59.306 207.339,59.099 207.490 C 58.893 207.641,57.289 208.150,55.535 208.621 C 45.176 211.400,44.126 212.601,48.499 216.665 C 50.751 218.758,56.700 223.265,57.211 223.265 C 57.549 223.265,65.647 228.081,66.716 228.917 C 67.190 229.288,68.088 229.704,68.711 229.841 C 69.334 229.978,69.942 230.343,70.061 230.654 C 70.304 231.286,73.218 232.645,74.333 232.645 C 74.731 232.645,75.350 232.808,75.709 233.006 C 76.067 233.204,77.666 233.742,79.262 234.201 L 82.163 235.036 81.946 236.392 C 81.789 237.375,81.894 237.884,82.328 238.244 C 82.852 238.679,82.928 238.607,82.933 237.663 C 82.944 235.555,85.632 235.255,88.983 236.987 L 89.988 237.507 89.422 239.298 C 89.110 240.282,88.633 242.101,88.362 243.340 C 88.090 244.578,87.589 246.773,87.247 248.218 C 86.906 249.662,86.477 251.773,86.295 252.908 C 85.711 256.549,85.290 258.317,84.672 259.726 C 83.939 261.397,82.552 267.481,82.552 269.025 C 82.552 269.639,82.240 271.034,81.860 272.125 C 80.501 276.024,80.293 276.831,79.942 279.579 C 79.697 281.495,79.217 283.044,78.403 284.542 C 77.123 286.898,75.047 292.455,75.047 293.524 C 75.047 293.887,74.881 294.184,74.679 294.184 C 74.476 294.184,74.197 294.648,74.059 295.216 C 73.920 295.783,73.094 297.767,72.223 299.625 C 71.352 301.482,70.175 304.015,69.608 305.253 C 66.096 312.917,65.014 314.947,63.498 316.711 C 61.860 318.617,61.538 319.171,61.538 320.087 C 61.538 322.036,61.676 322.054,74.763 321.847 C 84.403 321.694,87.287 321.531,88.931 321.046 C 90.066 320.711,92.092 320.290,93.433 320.111 C 94.775 319.932,96.801 319.370,97.936 318.863 C 99.071 318.356,100.591 317.717,101.313 317.444 C 102.036 317.171,102.795 316.821,103.002 316.667 C 103.208 316.513,104.491 315.968,105.852 315.455 C 110.516 313.700,117.549 309.914,119.414 308.154 C 119.980 307.621,120.493 307.256,120.554 307.344 C 120.615 307.433,121.099 308.180,121.628 309.006 C 122.158 309.831,123.418 311.748,124.429 313.266 C 125.439 314.784,126.873 316.943,127.614 318.065 C 128.354 319.186,129.826 321.015,130.883 322.131 C 131.940 323.246,133.054 324.756,133.360 325.488 C 133.665 326.219,134.594 327.706,135.423 328.793 L 136.931 330.769 136.007 331.563 C 134.735 332.658,134.869 335.158,136.210 335.354 C 137.081 335.481,138.489 334.216,138.562 333.240 C 138.640 332.212,140.073 333.674,142.388 337.142 C 143.079 338.177,144.167 339.520,144.805 340.126 C 145.444 340.733,145.966 341.439,145.966 341.696 C 145.966 341.952,146.563 342.892,147.293 343.783 C 151.156 348.499,152.884 350.822,153.663 352.345 C 154.138 353.274,155.062 354.540,155.717 355.159 C 156.372 355.779,157.692 357.467,158.650 358.912 C 159.608 360.356,160.755 361.829,161.199 362.185 C 161.643 362.540,162.270 363.385,162.592 364.061 C 163.234 365.410,167.587 372.204,168.828 373.793 C 169.256 374.342,169.606 374.962,169.606 375.172 C 169.606 375.671,172.237 381.053,173.306 382.739 C 173.763 383.462,174.236 384.514,174.357 385.079 C 174.477 385.643,175.309 386.781,176.204 387.606 C 179.128 390.302,182.325 389.113,184.692 384.451 C 185.314 383.225,186.120 381.790,186.482 381.261 C 188.618 378.145,190.107 375.573,191.417 372.738 C 193.193 368.895,195.677 365.025,197.524 363.224 C 198.267 362.500,198.874 361.731,198.874 361.516 C 198.874 360.996,201.705 361.383,206.864 362.609 C 212.958 364.056,222.076 364.470,251.407 364.633 C 283.498 364.812,284.383 364.836,286.068 365.584 C 286.867 365.939,287.757 366.229,288.046 366.229 C 288.334 366.229,289.239 366.651,290.056 367.167 C 290.874 367.683,291.704 368.105,291.901 368.105 C 292.098 368.105,292.734 368.301,293.315 368.540 C 293.896 368.780,294.596 368.938,294.871 368.892 C 295.145 368.846,295.772 369.072,296.263 369.394 C 297.195 370.005,297.218 370.000,300.415 368.623 C 304.327 366.938,304.077 352.643,299.963 342.815 C 293.671 327.785,276.574 310.968,259.850 303.358 C 258.612 302.795,257.176 302.121,256.660 301.860 C 255.123 301.082,251.684 300.615,242.964 299.999 C 226.166 298.813,219.311 298.274,218.802 298.099 C 218.515 298.000,215.725 297.591,212.602 297.190 C 204.767 296.184,199.609 295.142,195.055 293.644 C 192.925 292.943,190.494 292.189,189.653 291.967 C 186.790 291.212,179.334 284.287,176.673 279.913 C 176.328 279.346,175.863 278.768,175.640 278.630 C 175.417 278.493,175.235 278.042,175.235 277.629 C 175.235 277.217,174.652 276.256,173.940 275.494 C 172.204 273.638,171.010 272.073,170.381 270.832 C 170.095 270.268,169.562 269.485,169.196 269.092 C 168.830 268.699,168.412 267.746,168.267 266.975 C 168.122 266.203,167.689 265.302,167.304 264.973 C 166.919 264.643,166.603 264.031,166.603 263.613 C 166.602 263.194,166.304 262.345,165.941 261.726 C 165.577 261.107,164.956 259.587,164.560 258.349 C 164.164 257.111,163.717 255.929,163.566 255.722 C 162.405 254.132,161.833 241.763,162.718 237.374 C 163.005 235.950,163.167 234.712,163.079 234.623 C 162.990 234.534,163.336 233.251,163.848 231.771 C 164.359 230.291,164.845 228.769,164.926 228.388 C 165.689 224.815,173.293 215.154,176.334 213.895 C 176.967 213.632,177.486 213.289,177.486 213.133 C 177.486 212.977,179.386 211.914,181.707 210.772 C 211.342 196.197,242.719 226.018,232.426 258.976 C 231.183 262.956,227.454 270.169,226.639 270.169 C 225.790 270.169,225.141 270.927,225.141 271.919 C 225.141 272.386,224.794 273.646,224.371 274.720 C 223.337 277.344,223.509 278.453,225.073 279.234 C 225.758 279.576,226.640 280.147,227.033 280.503 C 227.923 281.308,228.293 281.176,235.272 277.547 C 242.829 273.619,249.458 269.704,255.347 265.691 C 257.547 264.192,264.268 259.232,264.540 258.906 C 264.644 258.783,265.572 258.045,266.604 257.266 C 273.868 251.783,285.583 239.382,291.636 230.769 C 308.370 206.957,312.862 179.133,304.417 151.595 C 303.689 149.221,302.716 145.760,302.255 143.902 C 301.464 140.714,300.396 138.268,299.211 136.931 C 298.923 136.605,298.687 136.094,298.687 135.795 C 298.687 135.496,298.419 134.869,298.092 134.403 C 297.765 133.936,296.057 130.817,294.296 127.471 C 290.868 120.958,285.163 111.411,275.528 96.060 C 259.622 70.721,252.789 56.258,249.644 41.276 C 248.393 35.316,248.079 26.161,249.014 22.882 C 249.336 21.751,249.663 19.559,249.740 18.011 C 249.817 16.463,249.987 14.669,250.117 14.024 C 250.486 12.192,249.060 11.331,246.787 12.014 M188.856 211.789 C 157.542 220.084,157.347 267.681,188.590 276.735 C 200.539 280.198,214.394 275.614,221.801 265.747 C 222.687 264.568,223.594 263.433,223.816 263.227 C 227.635 259.687,230.232 243.872,228.278 236.046 C 223.777 218.015,206.194 207.196,188.856 211.789 M299.726 220.602 C 298.184 221.322,296.719 222.799,296.925 223.426 C 297.101 223.962,298.687 224.178,298.687 223.666 C 298.687 223.445,299.132 223.265,299.676 223.265 C 300.819 223.265,302.439 221.713,302.439 220.619 C 302.439 219.719,301.626 219.714,299.726 220.602 M25.891 224.203 C 25.891 224.512,26.144 224.765,26.454 224.765 C 26.764 224.765,27.017 224.512,27.017 224.203 C 27.017 223.893,26.764 223.640,26.454 223.640 C 26.144 223.640,25.891 223.893,25.891 224.203 M228.332 231.567 C 228.679 232.712,229.178 233.241,229.543 232.850 C 229.702 232.681,229.620 232.467,229.362 232.375 C 229.104 232.283,228.893 231.978,228.893 231.698 C 228.893 231.418,228.706 231.073,228.478 230.932 C 228.193 230.756,228.147 230.956,228.332 231.567 M72.795 244.465 C 72.795 245.310,72.946 245.403,74.296 245.403 C 75.647 245.403,75.797 245.310,75.797 244.465 C 75.797 243.621,75.647 243.527,74.296 243.527 C 72.946 243.527,72.795 243.621,72.795 244.465 M280.575 244.938 C 280.011 245.526,279.550 246.294,279.550 246.643 C 279.550 246.993,279.381 247.280,279.174 247.280 C 278.968 247.280,278.799 247.533,278.799 247.842 C 278.799 248.152,278.630 248.405,278.424 248.405 C 278.218 248.405,278.049 248.680,278.049 249.015 C 278.049 250.414,283.508 247.865,283.912 246.277 C 284.523 243.872,282.408 243.023,280.575 244.938 M141.088 342.777 C 141.088 343.569,141.263 343.715,142.214 343.715 C 143.164 343.715,143.340 343.569,143.340 342.777 C 143.340 341.985,143.164 341.839,142.214 341.839 C 141.263 341.839,141.088 341.985,141.088 342.777 M126.454 367.730 C 126.454 368.730,126.579 368.856,127.580 368.856 C 128.580 368.856,128.705 368.730,128.705 367.730 C 128.705 366.729,128.580 366.604,127.580 366.604 C 126.579 366.604,126.454 366.729,126.454 367.730 M131.707 367.167 C 131.707 367.477,131.454 367.730,131.144 367.730 C 130.835 367.730,130.582 367.983,130.582 368.293 C 130.582 368.602,130.413 368.856,130.206 368.856 C 129.517 368.856,129.821 369.927,130.578 370.168 C 131.472 370.451,132.083 370.138,132.083 369.396 C 132.083 369.099,132.251 368.856,132.458 368.856 C 132.664 368.856,132.833 368.349,132.833 367.730 C 132.833 366.979,132.645 366.604,132.270 366.604 C 131.961 366.604,131.707 366.857,131.707 367.167 M332.382 398.698 C 329.210 399.712,329.876 400.001,335.344 399.983 L 340.525 399.967 339.096 399.213 C 337.188 398.206,334.553 398.004,332.382 398.698 M5.816 399.625 C 5.664 399.871,9.134 400.000,15.947 400.000 C 22.761 400.000,26.231 399.871,26.079 399.625 C 25.934 399.390,22.142 399.250,15.947 399.250 C 9.753 399.250,5.961 399.390,5.816 399.625 M251.970 399.625 C 251.824 399.860,252.661 400.000,254.221 400.000 C 255.781 400.000,256.618 399.860,256.473 399.625 C 256.345 399.418,255.332 399.250,254.221 399.250 C 253.111 399.250,252.098 399.418,251.970 399.625 M273.734 399.625 C 273.589 399.859,274.362 400.000,275.797 400.000 C 277.232 400.000,278.006 399.859,277.861 399.625 C 277.734 399.418,276.805 399.250,275.797 399.250 C 274.790 399.250,273.861 399.418,273.734 399.625 M372.420 399.625 C 372.275 399.859,373.042 400.000,374.462 400.000 C 375.727 400.000,376.735 399.834,376.735 399.625 C 376.735 399.418,375.817 399.250,374.694 399.250 C 373.571 399.250,372.548 399.418,372.420 399.625 M381.801 399.625 C 381.656 399.859,382.423 400.000,383.843 400.000 C 385.108 400.000,386.116 399.834,386.116 399.625 C 386.116 399.418,385.198 399.250,384.075 399.250 C 382.952 399.250,381.929 399.418,381.801 399.625 " stroke="none" fill="#ffffff" fill-rule="evenodd"></path><path id="path4" d="M246.787 12.014 C 246.206 12.188,245.492 12.529,245.200 12.771 C 244.908 13.014,242.784 13.859,240.480 14.650 C 238.176 15.441,235.344 16.589,234.187 17.203 C 233.029 17.816,231.323 18.517,230.394 18.761 C 229.465 19.005,228.141 19.469,227.451 19.793 C 226.393 20.289,226.146 20.300,225.876 19.863 C 225.616 19.442,225.393 19.496,224.691 20.151 C 224.216 20.595,223.361 21.073,222.792 21.215 C 222.222 21.356,221.664 21.622,221.550 21.805 C 221.437 21.989,221.010 22.139,220.601 22.139 C 219.595 22.139,217.774 23.115,213.330 26.036 C 210.189 28.100,209.533 28.401,209.257 27.908 C 208.985 27.422,208.807 27.520,208.222 28.482 C 207.834 29.121,207.329 29.644,207.100 29.644 C 206.872 29.644,206.256 29.981,205.731 30.394 C 205.206 30.807,204.526 31.144,204.220 31.144 C 203.914 31.144,203.087 31.651,202.382 32.270 C 201.677 32.889,200.852 33.396,200.550 33.396 C 200.220 33.396,200.000 33.755,200.000 34.295 C 200.000 35.211,199.280 35.931,195.542 38.753 C 194.483 39.552,192.882 41.351,191.867 42.880 C 190.877 44.371,189.625 45.966,189.083 46.424 C 187.086 48.114,182.018 56.587,180.333 61.055 C 180.038 61.837,179.348 63.659,178.799 65.103 C 178.251 66.548,177.666 68.236,177.501 68.856 C 177.335 69.475,176.991 70.488,176.736 71.107 C 176.318 72.126,176.137 73.157,175.379 78.844 C 175.232 79.951,175.300 80.671,175.567 80.836 C 176.115 81.176,176.157 99.287,175.610 99.625 C 175.033 99.981,175.161 105.258,175.833 108.818 C 176.596 112.864,177.714 117.804,178.071 118.705 C 178.367 119.453,174.718 119.367,170.816 118.534 C 169.933 118.345,167.316 117.937,164.999 117.627 C 162.683 117.316,159.353 116.729,157.598 116.321 C 155.844 115.914,152.805 115.229,150.845 114.800 C 148.885 114.371,147.028 113.797,146.718 113.524 C 146.408 113.252,145.563 112.906,144.841 112.756 C 144.118 112.606,143.358 112.360,143.152 112.209 C 142.946 112.058,141.257 111.470,139.400 110.903 C 137.542 110.336,134.503 109.148,132.645 108.262 C 130.788 107.376,128.171 106.375,126.829 106.036 C 125.488 105.698,123.546 104.886,122.514 104.233 C 121.482 103.580,119.962 102.689,119.137 102.254 C 111.106 98.018,105.619 93.786,105.370 91.634 C 105.292 90.961,104.901 90.456,104.194 90.119 C 103.221 89.655,103.155 89.495,103.383 88.147 C 103.689 86.335,103.265 86.282,102.158 87.992 C 101.219 89.440,101.097 90.056,101.747 90.056 C 102.014 90.056,101.952 90.309,101.587 90.713 C 101.093 91.259,101.020 92.156,101.152 96.060 C 101.435 104.436,101.658 107.265,102.431 112.304 C 102.849 115.030,103.461 119.034,103.792 121.201 C 104.123 123.368,104.517 125.310,104.667 125.516 C 104.817 125.722,105.165 126.904,105.441 128.143 C 105.717 129.381,106.061 130.563,106.205 130.769 C 106.350 130.976,106.583 131.778,106.722 132.552 C 106.862 133.326,107.137 133.959,107.334 133.959 C 107.531 133.959,107.692 134.383,107.692 134.902 C 107.692 135.421,107.847 136.138,108.035 136.497 C 108.224 136.855,108.729 138.289,109.159 139.683 C 109.944 142.232,110.046 142.488,111.194 144.777 C 111.538 145.465,111.820 146.361,111.820 146.769 C 111.820 147.177,111.991 147.406,112.200 147.277 C 112.410 147.147,112.680 147.545,112.804 148.169 C 112.928 148.788,113.264 149.385,113.551 149.495 C 113.837 149.605,114.071 150.207,114.071 150.833 C 114.071 151.458,114.220 151.970,114.403 151.970 C 114.585 151.970,114.833 152.265,114.955 152.627 C 115.076 152.988,115.337 153.537,115.534 153.846 C 115.732 154.156,115.992 154.662,116.112 154.972 C 116.232 155.281,116.666 156.041,117.076 156.660 C 117.486 157.280,118.007 158.250,118.234 158.818 C 118.462 159.386,118.800 159.850,118.986 159.850 C 119.172 159.850,119.325 160.095,119.325 160.394 C 119.325 160.693,119.550 161.073,119.824 161.238 C 120.099 161.403,120.817 162.425,121.419 163.508 C 122.021 164.591,122.641 165.478,122.795 165.478 C 122.950 165.478,123.077 165.717,123.077 166.009 C 123.077 166.301,123.748 167.272,124.568 168.167 C 126.416 170.183,126.479 169.950,123.712 171.321 C 117.735 174.284,113.699 176.627,111.665 178.317 C 110.445 179.330,108.841 180.492,108.101 180.898 C 106.205 181.938,103.028 183.963,102.402 184.529 C 101.251 185.571,95.391 189.258,93.623 190.054 C 92.590 190.518,91.532 191.258,91.273 191.697 C 91.013 192.136,90.522 192.495,90.182 192.495 C 89.842 192.495,89.042 192.893,88.403 193.380 C 87.765 193.867,86.367 194.708,85.299 195.249 C 84.230 195.790,83.249 196.405,83.119 196.616 C 82.989 196.826,82.548 196.998,82.139 196.998 C 81.207 196.998,78.574 198.319,77.176 199.488 C 76.592 199.976,75.876 200.375,75.584 200.375 C 75.292 200.375,73.574 201.119,71.766 202.028 C 69.959 202.937,66.454 204.476,63.977 205.448 C 61.501 206.420,59.306 207.339,59.099 207.490 C 58.893 207.641,57.289 208.150,55.535 208.621 C 45.176 211.400,44.126 212.601,48.499 216.665 C 50.751 218.758,56.700 223.265,57.211 223.265 C 57.549 223.265,65.647 228.081,66.716 228.917 C 67.190 229.288,68.088 229.704,68.711 229.841 C 69.334 229.978,69.942 230.343,70.061 230.654 C 70.304 231.286,73.218 232.645,74.333 232.645 C 74.731 232.645,75.350 232.808,75.709 233.006 C 76.067 233.204,77.666 233.742,79.262 234.201 L 82.163 235.036 81.946 236.392 C 81.789 237.375,81.894 237.884,82.328 238.244 C 82.852 238.679,82.928 238.607,82.933 237.663 C 82.944 235.555,85.632 235.255,88.983 236.987 L 89.988 237.507 89.422 239.298 C 89.110 240.282,88.633 242.101,88.362 243.340 C 88.090 244.578,87.589 246.773,87.247 248.218 C 86.906 249.662,86.477 251.773,86.295 252.908 C 85.711 256.549,85.290 258.317,84.672 259.726 C 83.939 261.397,82.552 267.481,82.552 269.025 C 82.552 269.639,82.240 271.034,81.860 272.125 C 80.501 276.024,80.293 276.831,79.942 279.579 C 79.697 281.495,79.217 283.044,78.403 284.542 C 77.123 286.898,75.047 292.455,75.047 293.524 C 75.047 293.887,74.881 294.184,74.679 294.184 C 74.476 294.184,74.197 294.648,74.059 295.216 C 73.920 295.783,73.094 297.767,72.223 299.625 C 71.352 301.482,70.175 304.015,69.608 305.253 C 66.096 312.917,65.014 314.947,63.498 316.711 C 61.860 318.617,61.538 319.171,61.538 320.087 C 61.538 322.036,61.676 322.054,74.763 321.847 C 84.403 321.694,87.287 321.531,88.931 321.046 C 90.066 320.711,92.092 320.290,93.433 320.111 C 94.775 319.932,96.801 319.370,97.936 318.863 C 99.071 318.356,100.591 317.717,101.313 317.444 C 102.036 317.171,102.795 316.821,103.002 316.667 C 103.208 316.513,104.491 315.968,105.852 315.455 C 110.516 313.700,117.549 309.914,119.414 308.154 C 119.980 307.621,120.493 307.256,120.554 307.344 C 120.615 307.433,121.099 308.180,121.628 309.006 C 122.158 309.831,123.418 311.748,124.429 313.266 C 125.439 314.784,126.873 316.943,127.614 318.065 C 128.354 319.186,129.826 321.015,130.883 322.131 C 131.940 323.246,133.054 324.756,133.360 325.488 C 133.665 326.219,134.594 327.706,135.423 328.793 L 136.931 330.769 136.007 331.563 C 134.735 332.658,134.869 335.158,136.210 335.354 C 137.081 335.481,138.489 334.216,138.562 333.240 C 138.640 332.212,140.073 333.674,142.388 337.142 C 143.079 338.177,144.167 339.520,144.805 340.126 C 145.444 340.733,145.966 341.439,145.966 341.696 C 145.966 341.952,146.563 342.892,147.293 343.783 C 151.156 348.499,152.884 350.822,153.663 352.345 C 154.138 353.274,155.062 354.540,155.717 355.159 C 156.372 355.779,157.692 357.467,158.650 358.912 C 159.608 360.356,160.755 361.829,161.199 362.185 C 161.643 362.540,162.270 363.385,162.592 364.061 C 163.234 365.410,167.587 372.204,168.828 373.793 C 169.256 374.342,169.606 374.962,169.606 375.172 C 169.606 375.671,172.237 381.053,173.306 382.739 C 173.763 383.462,174.236 384.514,174.357 385.079 C 174.477 385.643,175.309 386.781,176.204 387.606 C 179.128 390.302,182.325 389.113,184.692 384.451 C 185.314 383.225,186.120 381.790,186.482 381.261 C 188.618 378.145,190.107 375.573,191.417 372.738 C 193.193 368.895,195.677 365.025,197.524 363.224 C 198.267 362.500,198.874 361.731,198.874 361.516 C 198.874 360.996,201.705 361.383,206.864 362.609 C 212.958 364.056,222.076 364.470,251.407 364.633 C 283.498 364.812,284.383 364.836,286.068 365.584 C 286.867 365.939,287.757 366.229,288.046 366.229 C 288.334 366.229,289.239 366.651,290.056 367.167 C 290.874 367.683,291.704 368.105,291.901 368.105 C 292.098 368.105,292.734 368.301,293.315 368.540 C 293.896 368.780,294.596 368.938,294.871 368.892 C 295.145 368.846,295.772 369.072,296.263 369.394 C 297.195 370.005,297.218 370.000,300.415 368.623 C 304.327 366.938,304.077 352.643,299.963 342.815 C 293.671 327.785,276.574 310.968,259.850 303.358 C 258.612 302.795,257.176 302.121,256.660 301.860 C 255.123 301.082,251.684 300.615,242.964 299.999 C 226.166 298.813,219.311 298.274,218.802 298.099 C 218.515 298.000,215.725 297.591,212.602 297.190 C 204.767 296.184,199.609 295.142,195.055 293.644 C 192.925 292.943,190.494 292.189,189.653 291.967 C 186.790 291.212,179.334 284.287,176.673 279.913 C 176.328 279.346,175.863 278.768,175.640 278.630 C 175.417 278.493,175.235 278.042,175.235 277.629 C 175.235 277.217,174.652 276.256,173.940 275.494 C 172.204 273.638,171.010 272.073,170.381 270.832 C 170.095 270.268,169.562 269.485,169.196 269.092 C 168.830 268.699,168.412 267.746,168.267 266.975 C 168.122 266.203,167.689 265.302,167.304 264.973 C 166.919 264.643,166.603 264.031,166.603 263.613 C 166.602 263.194,166.304 262.345,165.941 261.726 C 165.577 261.107,164.956 259.587,164.560 258.349 C 164.164 257.111,163.717 255.929,163.566 255.722 C 162.405 254.132,161.833 241.763,162.718 237.374 C 163.005 235.950,163.167 234.712,163.079 234.623 C 162.990 234.534,163.336 233.251,163.848 231.771 C 164.359 230.291,164.845 228.769,164.926 228.388 C 165.689 224.815,173.293 215.154,176.334 213.895 C 176.967 213.632,177.486 213.289,177.486 213.133 C 177.486 212.977,179.386 211.914,181.707 210.772 C 211.342 196.197,242.719 226.018,232.426 258.976 C 231.183 262.956,227.454 270.169,226.639 270.169 C 225.790 270.169,225.141 270.927,225.141 271.919 C 225.141 272.386,224.794 273.646,224.371 274.720 C 223.337 277.344,223.509 278.453,225.073 279.234 C 225.758 279.576,226.640 280.147,227.033 280.503 C 227.923 281.308,228.293 281.176,235.272 277.547 C 242.829 273.619,249.458 269.704,255.347 265.691 C 257.547 264.192,264.268 259.232,264.540 258.906 C 264.644 258.783,265.572 258.045,266.604 257.266 C 273.868 251.783,285.583 239.382,291.636 230.769 C 308.370 206.957,312.862 179.133,304.417 151.595 C 303.689 149.221,302.716 145.760,302.255 143.902 C 301.464 140.714,300.396 138.268,299.211 136.931 C 298.923 136.605,298.687 136.094,298.687 135.795 C 298.687 135.496,298.419 134.869,298.092 134.403 C 297.765 133.936,296.057 130.817,294.296 127.471 C 290.868 120.958,285.163 111.411,275.528 96.060 C 259.622 70.721,252.789 56.258,249.644 41.276 C 248.393 35.316,248.079 26.161,249.014 22.882 C 249.336 21.751,249.663 19.559,249.740 18.011 C 249.817 16.463,249.987 14.669,250.117 14.024 C 250.486 12.192,249.060 11.331,246.787 12.014 M188.856 211.789 C 157.542 220.084,157.347 267.681,188.590 276.735 C 200.539 280.198,214.394 275.614,221.801 265.747 C 222.687 264.568,223.594 263.433,223.816 263.227 C 227.635 259.687,230.232 243.872,228.278 236.046 C 223.777 218.015,206.194 207.196,188.856 211.789 M299.726 220.602 C 298.184 221.322,296.719 222.799,296.925 223.426 C 297.101 223.962,298.687 224.178,298.687 223.666 C 298.687 223.445,299.132 223.265,299.676 223.265 C 300.819 223.265,302.439 221.713,302.439 220.619 C 302.439 219.719,301.626 219.714,299.726 220.602 M25.891 224.203 C 25.891 224.512,26.144 224.765,26.454 224.765 C 26.764 224.765,27.017 224.512,27.017 224.203 C 27.017 223.893,26.764 223.640,26.454 223.640 C 26.144 223.640,25.891 223.893,25.891 224.203 M228.332 231.567 C 228.679 232.712,229.178 233.241,229.543 232.850 C 229.702 232.681,229.620 232.467,229.362 232.375 C 229.104 232.283,228.893 231.978,228.893 231.698 C 228.893 231.418,228.706 231.073,228.478 230.932 C 228.193 230.756,228.147 230.956,228.332 231.567 M72.795 244.465 C 72.795 245.310,72.946 245.403,74.296 245.403 C 75.647 245.403,75.797 245.310,75.797 244.465 C 75.797 243.621,75.647 243.527,74.296 243.527 C 72.946 243.527,72.795 243.621,72.795 244.465 M280.575 244.938 C 280.011 245.526,279.550 246.294,279.550 246.643 C 279.550 246.993,279.381 247.280,279.174 247.280 C 278.968 247.280,278.799 247.533,278.799 247.842 C 278.799 248.152,278.630 248.405,278.424 248.405 C 278.218 248.405,278.049 248.680,278.049 249.015 C 278.049 250.414,283.508 247.865,283.912 246.277 C 284.523 243.872,282.408 243.023,280.575 244.938 M141.088 342.777 C 141.088 343.569,141.263 343.715,142.214 343.715 C 143.164 343.715,143.340 343.569,143.340 342.777 C 143.340 341.985,143.164 341.839,142.214 341.839 C 141.263 341.839,141.088 341.985,141.088 342.777 M126.454 367.730 C 126.454 368.730,126.579 368.856,127.580 368.856 C 128.580 368.856,128.705 368.730,128.705 367.730 C 128.705 366.729,128.580 366.604,127.580 366.604 C 126.579 366.604,126.454 366.729,126.454 367.730 M131.707 367.167 C 131.707 367.477,131.454 367.730,131.144 367.730 C 130.835 367.730,130.582 367.983,130.582 368.293 C 130.582 368.602,130.413 368.856,130.206 368.856 C 129.517 368.856,129.821 369.927,130.578 370.168 C 131.472 370.451,132.083 370.138,132.083 369.396 C 132.083 369.099,132.251 368.856,132.458 368.856 C 132.664 368.856,132.833 368.349,132.833 367.730 C 132.833 366.979,132.645 366.604,132.270 366.604 C 131.961 366.604,131.707 366.857,131.707 367.167 M332.382 398.698 C 329.210 399.712,329.876 400.001,335.344 399.983 L 340.525 399.967 339.096 399.213 C 337.188 398.206,334.553 398.004,332.382 398.698 M5.816 399.625 C 5.664 399.871,9.134 400.000,15.947 400.000 C 22.761 400.000,26.231 399.871,26.079 399.625 C 25.934 399.390,22.142 399.250,15.947 399.250 C 9.753 399.250,5.961 399.390,5.816 399.625 M251.970 399.625 C 251.824 399.860,252.661 400.000,254.221 400.000 C 255.781 400.000,256.618 399.860,256.473 399.625 C 256.345 399.418,255.332 399.250,254.221 399.250 C 253.111 399.250,252.098 399.418,251.970 399.625 M273.734 399.625 C 273.589 399.859,274.362 400.000,275.797 400.000 C 277.232 400.000,278.006 399.859,277.861 399.625 C 277.734 399.418,276.805 399.250,275.797 399.250 C 274.790 399.250,273.861 399.418,273.734 399.625 M372.420 399.625 C 372.275 399.859,373.042 400.000,374.462 400.000 C 375.727 400.000,376.735 399.834,376.735 399.625 C 376.735 399.418,375.817 399.250,374.694 399.250 C 373.571 399.250,372.548 399.418,372.420 399.625 M381.801 399.625 C 381.656 399.859,382.423 400.000,383.843 400.000 C 385.108 400.000,386.116 399.834,386.116 399.625 C 386.116 399.418,385.198 399.250,384.075 399.250 C 382.952 399.250,381.929 399.418,381.801 399.625 " stroke="none" fill="#ffffff" fill-rule="evenodd"></path></g></svg>