<svg id="svg" version="1.1" width="400" height="400" xmlns="http://www.w3.org/2000/svg" xmlns:xlink="http://www.w3.org/1999/xlink" style="display: block;"><g id="svgg"><path id="path0" d="M263.227 7.026 C 262.814 7.127,262.302 7.352,262.088 7.524 C 261.874 7.697,259.679 8.582,257.210 9.491 C 254.741 10.401,251.876 11.570,250.844 12.091 C 249.812 12.611,247.955 13.328,246.717 13.684 C 245.478 14.039,244.255 14.503,243.998 14.714 C 243.741 14.925,243.210 15.014,242.818 14.911 C 242.425 14.809,241.116 15.207,239.908 15.797 C 238.700 16.386,237.493 16.873,237.227 16.877 C 236.464 16.890,234.264 18.120,230.206 20.802 C 228.133 22.172,226.171 23.213,225.822 23.127 C 225.474 23.042,225.096 23.214,224.983 23.511 C 224.869 23.807,224.225 24.306,223.551 24.621 C 220.036 26.262,216.510 28.662,216.510 29.414 C 216.510 29.946,214.800 31.587,212.347 33.407 C 211.398 34.111,209.710 36.020,208.594 37.650 C 207.479 39.279,206.195 40.907,205.741 41.265 C 200.725 45.227,190.195 71.449,192.151 75.105 C 192.471 75.703,192.437 83.978,192.057 97.936 C 191.963 101.362,193.184 107.979,194.953 113.638 C 195.280 114.683,193.042 114.600,186.492 113.327 C 184.531 112.946,181.998 112.524,180.863 112.389 C 178.684 112.131,169.610 110.365,169.218 110.123 C 169.092 110.045,167.752 109.724,166.241 109.409 C 164.730 109.093,163.222 108.597,162.891 108.306 C 162.560 108.014,161.698 107.653,160.976 107.503 C 160.253 107.353,159.493 107.101,159.287 106.942 C 159.081 106.783,158.321 106.531,157.598 106.381 C 156.088 106.068,147.503 102.708,146.245 101.937 C 145.782 101.654,144.245 101.120,142.830 100.752 C 141.415 100.384,139.457 99.544,138.479 98.886 C 137.502 98.228,135.033 96.798,132.994 95.709 C 126.683 92.337,122.353 88.839,121.719 86.602 C 121.516 85.883,121.006 85.209,120.501 84.991 C 119.759 84.670,119.660 84.412,119.818 83.208 C 119.920 82.434,119.874 81.721,119.716 81.624 C 119.369 81.409,117.991 84.345,118.297 84.650 C 118.415 84.769,118.315 85.333,118.074 85.905 C 117.367 87.584,118.177 100.066,119.548 108.630 C 120.818 116.556,121.303 118.975,122.369 122.702 C 123.720 127.425,125.885 133.880,126.900 136.210 C 128.360 139.560,133.993 151.163,134.825 152.533 C 135.614 153.831,136.748 155.527,136.957 155.722 C 137.068 155.826,137.831 156.923,138.654 158.161 C 139.477 159.400,140.818 161.318,141.634 162.425 C 143.406 164.827,143.919 164.267,136.298 168.247 C 133.197 169.866,129.841 171.905,128.839 172.778 C 127.837 173.651,125.413 175.337,123.452 176.524 C 121.492 177.710,119.550 178.974,119.137 179.331 C 117.951 180.357,111.379 184.437,110.081 184.953 C 109.435 185.210,108.549 185.830,108.114 186.331 C 107.678 186.832,107.101 187.242,106.831 187.242 C 106.560 187.242,105.673 187.726,104.858 188.317 C 102.888 189.746,99.572 191.538,97.889 192.082 C 97.141 192.325,95.706 193.107,94.701 193.822 C 93.696 194.537,92.634 195.122,92.341 195.122 C 92.048 195.122,90.612 195.774,89.150 196.570 C 87.688 197.367,85.563 198.364,84.428 198.785 C 83.293 199.207,80.844 200.211,78.987 201.018 C 77.129 201.824,74.174 202.877,72.420 203.357 C 65.574 205.232,62.664 206.732,62.664 208.388 C 62.664 209.927,70.182 215.805,77.417 219.925 C 80.344 221.591,83.003 223.191,83.326 223.480 C 83.649 223.769,84.494 224.204,85.203 224.447 C 85.912 224.690,86.853 225.272,87.295 225.740 C 87.737 226.209,88.750 226.696,89.546 226.822 C 90.343 226.948,91.501 227.281,92.120 227.561 C 93.727 228.288,99.260 229.934,101.689 230.408 C 104.229 230.903,106.568 231.869,106.563 232.421 C 106.560 232.648,106.301 233.677,105.987 234.709 C 105.303 236.955,104.699 239.709,102.408 251.032 C 102.178 252.167,101.757 253.687,101.473 254.409 C 100.658 256.480,99.437 261.560,99.437 262.883 C 99.437 263.979,98.838 266.344,97.401 270.919 C 97.109 271.848,96.766 273.537,96.638 274.672 C 96.505 275.857,95.856 277.860,95.114 279.377 C 94.403 280.829,93.304 283.531,92.672 285.380 C 92.039 287.230,91.292 289.250,91.012 289.869 C 84.597 304.047,82.693 308.081,81.947 309.074 C 81.454 309.731,81.051 310.388,81.051 310.533 C 81.051 310.679,80.375 311.531,79.550 312.426 C 77.921 314.193,77.696 315.165,78.685 316.155 C 79.446 316.916,101.864 316.764,104.315 315.982 C 105.038 315.751,107.268 315.232,109.272 314.828 C 112.815 314.114,115.870 313.036,119.325 311.283 C 120.253 310.811,121.689 310.208,122.514 309.941 C 125.900 308.850,133.195 304.924,135.352 303.034 C 136.704 301.850,137.096 301.668,137.382 302.096 C 137.577 302.388,138.755 304.231,139.999 306.191 C 143.502 311.713,145.435 314.421,147.721 317.008 C 148.878 318.318,150.222 320.188,150.709 321.164 C 151.195 322.141,152.881 324.363,154.454 326.104 C 156.028 327.844,157.826 330.028,158.449 330.957 C 159.072 331.886,160.173 333.269,160.896 334.030 C 161.619 334.792,162.566 335.992,163.000 336.697 C 164.142 338.551,166.235 341.401,167.587 342.943 C 168.231 343.677,169.313 345.206,169.991 346.341 C 170.669 347.477,171.854 349.081,172.623 349.906 C 173.393 350.732,174.488 352.167,175.057 353.096 C 175.626 354.024,176.728 355.483,177.507 356.336 C 178.286 357.190,179.215 358.456,179.571 359.150 C 179.927 359.845,181.630 362.545,183.355 365.152 C 185.080 367.759,186.492 370.033,186.492 370.206 C 186.492 371.359,192.225 381.925,193.270 382.698 C 195.647 384.455,198.755 383.265,200.457 379.946 C 200.874 379.132,202.147 377.021,203.287 375.255 C 204.426 373.490,206.236 370.272,207.308 368.105 C 210.666 361.320,214.811 355.722,216.476 355.722 C 216.910 355.722,219.293 356.237,221.771 356.865 C 228.762 358.638,230.785 358.755,257.786 358.952 C 293.115 359.209,300.348 359.395,302.224 360.093 C 303.065 360.406,304.174 360.756,304.690 360.872 C 305.206 360.988,306.106 361.417,306.689 361.825 C 307.272 362.234,308.328 362.717,309.034 362.898 C 309.741 363.079,310.952 363.418,311.726 363.650 C 321.887 366.707,322.845 348.329,313.395 331.635 C 303.134 313.508,280.123 296.324,264.540 295.151 C 262.992 295.034,256.998 294.599,251.220 294.184 C 224.224 292.245,207.934 289.049,202.338 284.594 C 200.183 282.878,196.623 279.481,196.623 279.141 C 196.623 279.005,196.018 278.239,195.279 277.439 C 194.540 276.639,193.691 275.521,193.393 274.953 C 193.095 274.386,192.707 273.921,192.531 273.921 C 192.355 273.921,191.991 273.389,191.721 272.738 C 191.452 272.088,190.559 270.779,189.737 269.830 C 187.683 267.457,185.000 263.199,184.341 261.267 C 184.040 260.384,183.641 259.662,183.454 259.662 C 183.267 259.662,183.114 259.401,183.114 259.081 C 183.114 258.762,182.767 257.791,182.343 256.924 C 174.298 240.481,179.320 217.573,192.958 208.499 C 226.956 185.877,265.308 224.158,245.847 261.291 C 244.722 263.438,243.760 264.789,243.121 265.119 C 242.386 265.499,242.029 266.091,241.728 267.430 C 241.505 268.421,241.115 269.923,240.862 270.768 C 240.277 272.717,240.565 273.444,242.188 274.122 C 242.902 274.420,243.647 274.953,243.844 275.305 C 244.335 276.182,247.601 274.708,257.974 268.928 C 291.444 250.279,315.186 223.139,322.297 195.400 C 326.500 179.007,325.696 160.337,320.079 143.859 C 319.454 142.026,318.667 139.428,318.330 138.086 C 317.031 132.914,307.460 115.586,294.184 94.371 C 276.497 66.107,270.158 53.203,266.626 38.274 C 264.860 30.810,264.350 21.466,265.478 17.261 C 265.783 16.126,266.034 14.046,266.037 12.639 C 266.039 11.233,266.222 9.744,266.443 9.331 C 267.323 7.688,265.589 6.445,263.227 7.026 M207.533 206.036 C 180.310 211.377,172.343 249.125,194.811 266.308 C 210.293 278.148,233.800 272.291,242.024 254.546 C 246.612 244.645,246.688 233.370,242.230 224.093 C 235.814 210.743,221.502 203.296,207.533 206.036 M316.123 216.529 C 315.767 217.106,316.255 217.478,316.737 216.997 C 317.006 216.727,317.013 216.517,316.757 216.359 C 316.546 216.229,316.262 216.306,316.123 216.529 M98.892 230.863 C 98.735 231.224,98.735 231.815,98.892 232.176 C 99.164 232.802,99.186 232.802,99.335 232.176 C 99.600 231.069,99.252 230.037,98.892 230.863 M297.355 240.393 C 295.480 242.416,296.940 243.807,298.891 241.856 C 299.398 241.349,299.812 240.589,299.812 240.167 C 299.812 239.059,298.478 239.182,297.355 240.393 " stroke="none" fill="#ffffff" fill-rule="evenodd"></path><path id="path1" d="M263.227 7.026 C 262.814 7.127,262.302 7.352,262.088 7.524 C 261.874 7.697,259.679 8.582,257.210 9.491 C 254.741 10.401,251.876 11.570,250.844 12.091 C 249.812 12.611,247.955 13.328,246.717 13.684 C 245.478 14.039,244.255 14.503,243.998 14.714 C 243.741 14.925,243.210 15.014,242.818 14.911 C 242.425 14.809,241.116 15.207,239.908 15.797 C 238.700 16.386,237.493 16.873,237.227 16.877 C 236.464 16.890,234.264 18.120,230.206 20.802 C 228.133 22.172,226.171 23.213,225.822 23.127 C 225.474 23.042,225.096 23.214,224.983 23.511 C 224.869 23.807,224.225 24.306,223.551 24.621 C 220.036 26.262,216.510 28.662,216.510 29.414 C 216.510 29.946,214.800 31.587,212.347 33.407 C 211.398 34.111,209.710 36.020,208.594 37.650 C 207.479 39.279,206.195 40.907,205.741 41.265 C 200.725 45.227,190.195 71.449,192.151 75.105 C 192.471 75.703,192.437 83.978,192.057 97.936 C 191.963 101.362,193.184 107.979,194.953 113.638 C 195.280 114.683,193.042 114.600,186.492 113.327 C 184.531 112.946,181.998 112.524,180.863 112.389 C 178.684 112.131,169.610 110.365,169.218 110.123 C 169.092 110.045,167.752 109.724,166.241 109.409 C 164.730 109.093,163.222 108.597,162.891 108.306 C 162.560 108.014,161.698 107.653,160.976 107.503 C 160.253 107.353,159.493 107.101,159.287 106.942 C 159.081 106.783,158.321 106.531,157.598 106.381 C 156.088 106.068,147.503 102.708,146.245 101.937 C 145.782 101.654,144.245 101.120,142.830 100.752 C 141.415 100.384,139.457 99.544,138.479 98.886 C 137.502 98.228,135.033 96.798,132.994 95.709 C 126.683 92.337,122.353 88.839,121.719 86.602 C 121.516 85.883,121.006 85.209,120.501 84.991 C 119.759 84.670,119.660 84.412,119.818 83.208 C 119.920 82.434,119.874 81.721,119.716 81.624 C 119.369 81.409,117.991 84.345,118.297 84.650 C 118.415 84.769,118.315 85.333,118.074 85.905 C 117.367 87.584,118.177 100.066,119.548 108.630 C 120.818 116.556,121.303 118.975,122.369 122.702 C 123.720 127.425,125.885 133.880,126.900 136.210 C 128.360 139.560,133.993 151.163,134.825 152.533 C 135.614 153.831,136.748 155.527,136.957 155.722 C 137.068 155.826,137.831 156.923,138.654 158.161 C 139.477 159.400,140.818 161.318,141.634 162.425 C 143.406 164.827,143.919 164.267,136.298 168.247 C 133.197 169.866,129.841 171.905,128.839 172.778 C 127.837 173.651,125.413 175.337,123.452 176.524 C 121.492 177.710,119.550 178.974,119.137 179.331 C 117.951 180.357,111.379 184.437,110.081 184.953 C 109.435 185.210,108.549 185.830,108.114 186.331 C 107.678 186.832,107.101 187.242,106.831 187.242 C 106.560 187.242,105.673 187.726,104.858 188.317 C 102.888 189.746,99.572 191.538,97.889 192.082 C 97.141 192.325,95.706 193.107,94.701 193.822 C 93.696 194.537,92.634 195.122,92.341 195.122 C 92.048 195.122,90.612 195.774,89.150 196.570 C 87.688 197.367,85.563 198.364,84.428 198.785 C 83.293 199.207,80.844 200.211,78.987 201.018 C 77.129 201.824,74.174 202.877,72.420 203.357 C 65.574 205.232,62.664 206.732,62.664 208.388 C 62.664 209.927,70.182 215.805,77.417 219.925 C 80.344 221.591,83.003 223.191,83.326 223.480 C 83.649 223.769,84.494 224.204,85.203 224.447 C 85.912 224.690,86.853 225.272,87.295 225.740 C 87.737 226.209,88.750 226.696,89.546 226.822 C 90.343 226.948,91.501 227.281,92.120 227.561 C 93.727 228.288,99.260 229.934,101.689 230.408 C 104.229 230.903,106.568 231.869,106.563 232.421 C 106.560 232.648,106.301 233.677,105.987 234.709 C 105.303 236.955,104.699 239.709,102.408 251.032 C 102.178 252.167,101.757 253.687,101.473 254.409 C 100.658 256.480,99.437 261.560,99.437 262.883 C 99.437 263.979,98.838 266.344,97.401 270.919 C 97.109 271.848,96.766 273.537,96.638 274.672 C 96.505 275.857,95.856 277.860,95.114 279.377 C 94.403 280.829,93.304 283.531,92.672 285.380 C 92.039 287.230,91.292 289.250,91.012 289.869 C 84.597 304.047,82.693 308.081,81.947 309.074 C 81.454 309.731,81.051 310.388,81.051 310.533 C 81.051 310.679,80.375 311.531,79.550 312.426 C 77.921 314.193,77.696 315.165,78.685 316.155 C 79.446 316.916,101.864 316.764,104.315 315.982 C 105.038 315.751,107.268 315.232,109.272 314.828 C 112.815 314.114,115.870 313.036,119.325 311.283 C 120.253 310.811,121.689 310.208,122.514 309.941 C 125.900 308.850,133.195 304.924,135.352 303.034 C 136.704 301.850,137.096 301.668,137.382 302.096 C 137.577 302.388,138.755 304.231,139.999 306.191 C 143.502 311.713,145.435 314.421,147.721 317.008 C 148.878 318.318,150.222 320.188,150.709 321.164 C 151.195 322.141,152.881 324.363,154.454 326.104 C 156.028 327.844,157.826 330.028,158.449 330.957 C 159.072 331.886,160.173 333.269,160.896 334.030 C 161.619 334.792,162.566 335.992,163.000 336.697 C 164.142 338.551,166.235 341.401,167.587 342.943 C 168.231 343.677,169.313 345.206,169.991 346.341 C 170.669 347.477,171.854 349.081,172.623 349.906 C 173.393 350.732,174.488 352.167,175.057 353.096 C 175.626 354.024,176.728 355.483,177.507 356.336 C 178.286 357.190,179.215 358.456,179.571 359.150 C 179.927 359.845,181.630 362.545,183.355 365.152 C 185.080 367.759,186.492 370.033,186.492 370.206 C 186.492 371.359,192.225 381.925,193.270 382.698 C 195.647 384.455,198.755 383.265,200.457 379.946 C 200.874 379.132,202.147 377.021,203.287 375.255 C 204.426 373.490,206.236 370.272,207.308 368.105 C 210.666 361.320,214.811 355.722,216.476 355.722 C 216.910 355.722,219.293 356.237,221.771 356.865 C 228.762 358.638,230.785 358.755,257.786 358.952 C 293.115 359.209,300.348 359.395,302.224 360.093 C 303.065 360.406,304.174 360.756,304.690 360.872 C 305.206 360.988,306.106 361.417,306.689 361.825 C 307.272 362.234,308.328 362.717,309.034 362.898 C 309.741 363.079,310.952 363.418,311.726 363.650 C 321.887 366.707,322.845 348.329,313.395 331.635 C 303.134 313.508,280.123 296.324,264.540 295.151 C 262.992 295.034,256.998 294.599,251.220 294.184 C 224.224 292.245,207.934 289.049,202.338 284.594 C 200.183 282.878,196.623 279.481,196.623 279.141 C 196.623 279.005,196.018 278.239,195.279 277.439 C 194.540 276.639,193.691 275.521,193.393 274.953 C 193.095 274.386,192.707 273.921,192.531 273.921 C 192.355 273.921,191.991 273.389,191.721 272.738 C 191.452 272.088,190.559 270.779,189.737 269.830 C 187.683 267.457,185.000 263.199,184.341 261.267 C 184.040 260.384,183.641 259.662,183.454 259.662 C 183.267 259.662,183.114 259.401,183.114 259.081 C 183.114 258.762,182.767 257.791,182.343 256.924 C 174.298 240.481,179.320 217.573,192.958 208.499 C 226.956 185.877,265.308 224.158,245.847 261.291 C 244.722 263.438,243.760 264.789,243.121 265.119 C 242.386 265.499,242.029 266.091,241.728 267.430 C 241.505 268.421,241.115 269.923,240.862 270.768 C 240.277 272.717,240.565 273.444,242.188 274.122 C 242.902 274.420,243.647 274.953,243.844 275.305 C 244.335 276.182,247.601 274.708,257.974 268.928 C 291.444 250.279,315.186 223.139,322.297 195.400 C 326.500 179.007,325.696 160.337,320.079 143.859 C 319.454 142.026,318.667 139.428,318.330 138.086 C 317.031 132.914,307.460 115.586,294.184 94.371 C 276.497 66.107,270.158 53.203,266.626 38.274 C 264.860 30.810,264.350 21.466,265.478 17.261 C 265.783 16.126,266.034 14.046,266.037 12.639 C 266.039 11.233,266.222 9.744,266.443 9.331 C 267.323 7.688,265.589 6.445,263.227 7.026 M207.533 206.036 C 180.310 211.377,172.343 249.125,194.811 266.308 C 210.293 278.148,233.800 272.291,242.024 254.546 C 246.612 244.645,246.688 233.370,242.230 224.093 C 235.814 210.743,221.502 203.296,207.533 206.036 M316.123 216.529 C 315.767 217.106,316.255 217.478,316.737 216.997 C 317.006 216.727,317.013 216.517,316.757 216.359 C 316.546 216.229,316.262 216.306,316.123 216.529 M98.892 230.863 C 98.735 231.224,98.735 231.815,98.892 232.176 C 99.164 232.802,99.186 232.802,99.335 232.176 C 99.600 231.069,99.252 230.037,98.892 230.863 M297.355 240.393 C 295.480 242.416,296.940 243.807,298.891 241.856 C 299.398 241.349,299.812 240.589,299.812 240.167 C 299.812 239.059,298.478 239.182,297.355 240.393 " stroke="none" fill="#ffffff" fill-rule="evenodd"></path><path id="path2" d="M263.227 7.026 C 262.814 7.127,262.302 7.352,262.088 7.524 C 261.874 7.697,259.679 8.582,257.210 9.491 C 254.741 10.401,251.876 11.570,250.844 12.091 C 249.812 12.611,247.955 13.328,246.717 13.684 C 245.478 14.039,244.255 14.503,243.998 14.714 C 243.741 14.925,243.210 15.014,242.818 14.911 C 242.425 14.809,241.116 15.207,239.908 15.797 C 238.700 16.386,237.493 16.873,237.227 16.877 C 236.464 16.890,234.264 18.120,230.206 20.802 C 228.133 22.172,226.171 23.213,225.822 23.127 C 225.474 23.042,225.096 23.214,224.983 23.511 C 224.869 23.807,224.225 24.306,223.551 24.621 C 220.036 26.262,216.510 28.662,216.510 29.414 C 216.510 29.946,214.800 31.587,212.347 33.407 C 211.398 34.111,209.710 36.020,208.594 37.650 C 207.479 39.279,206.195 40.907,205.741 41.265 C 200.725 45.227,190.195 71.449,192.151 75.105 C 192.471 75.703,192.437 83.978,192.057 97.936 C 191.963 101.362,193.184 107.979,194.953 113.638 C 195.280 114.683,193.042 114.600,186.492 113.327 C 184.531 112.946,181.998 112.524,180.863 112.389 C 178.684 112.131,169.610 110.365,169.218 110.123 C 169.092 110.045,167.752 109.724,166.241 109.409 C 164.730 109.093,163.222 108.597,162.891 108.306 C 162.560 108.014,161.698 107.653,160.976 107.503 C 160.253 107.353,159.493 107.101,159.287 106.942 C 159.081 106.783,158.321 106.531,157.598 106.381 C 156.088 106.068,147.503 102.708,146.245 101.937 C 145.782 101.654,144.245 101.120,142.830 100.752 C 141.415 100.384,139.457 99.544,138.479 98.886 C 137.502 98.228,135.033 96.798,132.994 95.709 C 126.683 92.337,122.353 88.839,121.719 86.602 C 121.516 85.883,121.006 85.209,120.501 84.991 C 119.759 84.670,119.660 84.412,119.818 83.208 C 119.920 82.434,119.874 81.721,119.716 81.624 C 119.369 81.409,117.991 84.345,118.297 84.650 C 118.415 84.769,118.315 85.333,118.074 85.905 C 117.367 87.584,118.177 100.066,119.548 108.630 C 120.818 116.556,121.303 118.975,122.369 122.702 C 123.720 127.425,125.885 133.880,126.900 136.210 C 128.360 139.560,133.993 151.163,134.825 152.533 C 135.614 153.831,136.748 155.527,136.957 155.722 C 137.068 155.826,137.831 156.923,138.654 158.161 C 139.477 159.400,140.818 161.318,141.634 162.425 C 143.406 164.827,143.919 164.267,136.298 168.247 C 133.197 169.866,129.841 171.905,128.839 172.778 C 127.837 173.651,125.413 175.337,123.452 176.524 C 121.492 177.710,119.550 178.974,119.137 179.331 C 117.951 180.357,111.379 184.437,110.081 184.953 C 109.435 185.210,108.549 185.830,108.114 186.331 C 107.678 186.832,107.101 187.242,106.831 187.242 C 106.560 187.242,105.673 187.726,104.858 188.317 C 102.888 189.746,99.572 191.538,97.889 192.082 C 97.141 192.325,95.706 193.107,94.701 193.822 C 93.696 194.537,92.634 195.122,92.341 195.122 C 92.048 195.122,90.612 195.774,89.150 196.570 C 87.688 197.367,85.563 198.364,84.428 198.785 C 83.293 199.207,80.844 200.211,78.987 201.018 C 77.129 201.824,74.174 202.877,72.420 203.357 C 65.574 205.232,62.664 206.732,62.664 208.388 C 62.664 209.927,70.182 215.805,77.417 219.925 C 80.344 221.591,83.003 223.191,83.326 223.480 C 83.649 223.769,84.494 224.204,85.203 224.447 C 85.912 224.690,86.853 225.272,87.295 225.740 C 87.737 226.209,88.750 226.696,89.546 226.822 C 90.343 226.948,91.501 227.281,92.120 227.561 C 93.727 228.288,99.260 229.934,101.689 230.408 C 104.229 230.903,106.568 231.869,106.563 232.421 C 106.560 232.648,106.301 233.677,105.987 234.709 C 105.303 236.955,104.699 239.709,102.408 251.032 C 102.178 252.167,101.757 253.687,101.473 254.409 C 100.658 256.480,99.437 261.560,99.437 262.883 C 99.437 263.979,98.838 266.344,97.401 270.919 C 97.109 271.848,96.766 273.537,96.638 274.672 C 96.505 275.857,95.856 277.860,95.114 279.377 C 94.403 280.829,93.304 283.531,92.672 285.380 C 92.039 287.230,91.292 289.250,91.012 289.869 C 84.597 304.047,82.693 308.081,81.947 309.074 C 81.454 309.731,81.051 310.388,81.051 310.533 C 81.051 310.679,80.375 311.531,79.550 312.426 C 77.921 314.193,77.696 315.165,78.685 316.155 C 79.446 316.916,101.864 316.764,104.315 315.982 C 105.038 315.751,107.268 315.232,109.272 314.828 C 112.815 314.114,115.870 313.036,119.325 311.283 C 120.253 310.811,121.689 310.208,122.514 309.941 C 125.900 308.850,133.195 304.924,135.352 303.034 C 136.704 301.850,137.096 301.668,137.382 302.096 C 137.577 302.388,138.755 304.231,139.999 306.191 C 143.502 311.713,145.435 314.421,147.721 317.008 C 148.878 318.318,150.222 320.188,150.709 321.164 C 151.195 322.141,152.881 324.363,154.454 326.104 C 156.028 327.844,157.826 330.028,158.449 330.957 C 159.072 331.886,160.173 333.269,160.896 334.030 C 161.619 334.792,162.566 335.992,163.000 336.697 C 164.142 338.551,166.235 341.401,167.587 342.943 C 168.231 343.677,169.313 345.206,169.991 346.341 C 170.669 347.477,171.854 349.081,172.623 349.906 C 173.393 350.732,174.488 352.167,175.057 353.096 C 175.626 354.024,176.728 355.483,177.507 356.336 C 178.286 357.190,179.215 358.456,179.571 359.150 C 179.927 359.845,181.630 362.545,183.355 365.152 C 185.080 367.759,186.492 370.033,186.492 370.206 C 186.492 371.359,192.225 381.925,193.270 382.698 C 195.647 384.455,198.755 383.265,200.457 379.946 C 200.874 379.132,202.147 377.021,203.287 375.255 C 204.426 373.490,206.236 370.272,207.308 368.105 C 210.666 361.320,214.811 355.722,216.476 355.722 C 216.910 355.722,219.293 356.237,221.771 356.865 C 228.762 358.638,230.785 358.755,257.786 358.952 C 293.115 359.209,300.348 359.395,302.224 360.093 C 303.065 360.406,304.174 360.756,304.690 360.872 C 305.206 360.988,306.106 361.417,306.689 361.825 C 307.272 362.234,308.328 362.717,309.034 362.898 C 309.741 363.079,310.952 363.418,311.726 363.650 C 321.887 366.707,322.845 348.329,313.395 331.635 C 303.134 313.508,280.123 296.324,264.540 295.151 C 262.992 295.034,256.998 294.599,251.220 294.184 C 224.224 292.245,207.934 289.049,202.338 284.594 C 200.183 282.878,196.623 279.481,196.623 279.141 C 196.623 279.005,196.018 278.239,195.279 277.439 C 194.540 276.639,193.691 275.521,193.393 274.953 C 193.095 274.386,192.707 273.921,192.531 273.921 C 192.355 273.921,191.991 273.389,191.721 272.738 C 191.452 272.088,190.559 270.779,189.737 269.830 C 187.683 267.457,185.000 263.199,184.341 261.267 C 184.040 260.384,183.641 259.662,183.454 259.662 C 183.267 259.662,183.114 259.401,183.114 259.081 C 183.114 258.762,182.767 257.791,182.343 256.924 C 174.298 240.481,179.320 217.573,192.958 208.499 C 226.956 185.877,265.308 224.158,245.847 261.291 C 244.722 263.438,243.760 264.789,243.121 265.119 C 242.386 265.499,242.029 266.091,241.728 267.430 C 241.505 268.421,241.115 269.923,240.862 270.768 C 240.277 272.717,240.565 273.444,242.188 274.122 C 242.902 274.420,243.647 274.953,243.844 275.305 C 244.335 276.182,247.601 274.708,257.974 268.928 C 291.444 250.279,315.186 223.139,322.297 195.400 C 326.500 179.007,325.696 160.337,320.079 143.859 C 319.454 142.026,318.667 139.428,318.330 138.086 C 317.031 132.914,307.460 115.586,294.184 94.371 C 276.497 66.107,270.158 53.203,266.626 38.274 C 264.860 30.810,264.350 21.466,265.478 17.261 C 265.783 16.126,266.034 14.046,266.037 12.639 C 266.039 11.233,266.222 9.744,266.443 9.331 C 267.323 7.688,265.589 6.445,263.227 7.026 M207.533 206.036 C 180.310 211.377,172.343 249.125,194.811 266.308 C 210.293 278.148,233.800 272.291,242.024 254.546 C 246.612 244.645,246.688 233.370,242.230 224.093 C 235.814 210.743,221.502 203.296,207.533 206.036 M316.123 216.529 C 315.767 217.106,316.255 217.478,316.737 216.997 C 317.006 216.727,317.013 216.517,316.757 216.359 C 316.546 216.229,316.262 216.306,316.123 216.529 M98.892 230.863 C 98.735 231.224,98.735 231.815,98.892 232.176 C 99.164 232.802,99.186 232.802,99.335 232.176 C 99.600 231.069,99.252 230.037,98.892 230.863 M297.355 240.393 C 295.480 242.416,296.940 243.807,298.891 241.856 C 299.398 241.349,299.812 240.589,299.812 240.167 C 299.812 239.059,298.478 239.182,297.355 240.393 " stroke="none" fill="#ffffff" fill-rule="evenodd"></path><path id="path3" d="M263.227 7.026 C 262.814 7.127,262.302 7.352,262.088 7.524 C 261.874 7.697,259.679 8.582,257.210 9.491 C 254.741 10.401,251.876 11.570,250.844 12.091 C 249.812 12.611,247.955 13.328,246.717 13.684 C 245.478 14.039,244.255 14.503,243.998 14.714 C 243.741 14.925,243.210 15.014,242.818 14.911 C 242.425 14.809,241.116 15.207,239.908 15.797 C 238.700 16.386,237.493 16.873,237.227 16.877 C 236.464 16.890,234.264 18.120,230.206 20.802 C 228.133 22.172,226.171 23.213,225.822 23.127 C 225.474 23.042,225.096 23.214,224.983 23.511 C 224.869 23.807,224.225 24.306,223.551 24.621 C 220.036 26.262,216.510 28.662,216.510 29.414 C 216.510 29.946,214.800 31.587,212.347 33.407 C 211.398 34.111,209.710 36.020,208.594 37.650 C 207.479 39.279,206.195 40.907,205.741 41.265 C 200.725 45.227,190.195 71.449,192.151 75.105 C 192.471 75.703,192.437 83.978,192.057 97.936 C 191.963 101.362,193.184 107.979,194.953 113.638 C 195.280 114.683,193.042 114.600,186.492 113.327 C 184.531 112.946,181.998 112.524,180.863 112.389 C 178.684 112.131,169.610 110.365,169.218 110.123 C 169.092 110.045,167.752 109.724,166.241 109.409 C 164.730 109.093,163.222 108.597,162.891 108.306 C 162.560 108.014,161.698 107.653,160.976 107.503 C 160.253 107.353,159.493 107.101,159.287 106.942 C 159.081 106.783,158.321 106.531,157.598 106.381 C 156.088 106.068,147.503 102.708,146.245 101.937 C 145.782 101.654,144.245 101.120,142.830 100.752 C 141.415 100.384,139.457 99.544,138.479 98.886 C 137.502 98.228,135.033 96.798,132.994 95.709 C 126.683 92.337,122.353 88.839,121.719 86.602 C 121.516 85.883,121.006 85.209,120.501 84.991 C 119.759 84.670,119.660 84.412,119.818 83.208 C 119.920 82.434,119.874 81.721,119.716 81.624 C 119.369 81.409,117.991 84.345,118.297 84.650 C 118.415 84.769,118.315 85.333,118.074 85.905 C 117.367 87.584,118.177 100.066,119.548 108.630 C 120.818 116.556,121.303 118.975,122.369 122.702 C 123.720 127.425,125.885 133.880,126.900 136.210 C 128.360 139.560,133.993 151.163,134.825 152.533 C 135.614 153.831,136.748 155.527,136.957 155.722 C 137.068 155.826,137.831 156.923,138.654 158.161 C 139.477 159.400,140.818 161.318,141.634 162.425 C 143.406 164.827,143.919 164.267,136.298 168.247 C 133.197 169.866,129.841 171.905,128.839 172.778 C 127.837 173.651,125.413 175.337,123.452 176.524 C 121.492 177.710,119.550 178.974,119.137 179.331 C 117.951 180.357,111.379 184.437,110.081 184.953 C 109.435 185.210,108.549 185.830,108.114 186.331 C 107.678 186.832,107.101 187.242,106.831 187.242 C 106.560 187.242,105.673 187.726,104.858 188.317 C 102.888 189.746,99.572 191.538,97.889 192.082 C 97.141 192.325,95.706 193.107,94.701 193.822 C 93.696 194.537,92.634 195.122,92.341 195.122 C 92.048 195.122,90.612 195.774,89.150 196.570 C 87.688 197.367,85.563 198.364,84.428 198.785 C 83.293 199.207,80.844 200.211,78.987 201.018 C 77.129 201.824,74.174 202.877,72.420 203.357 C 65.574 205.232,62.664 206.732,62.664 208.388 C 62.664 209.927,70.182 215.805,77.417 219.925 C 80.344 221.591,83.003 223.191,83.326 223.480 C 83.649 223.769,84.494 224.204,85.203 224.447 C 85.912 224.690,86.853 225.272,87.295 225.740 C 87.737 226.209,88.750 226.696,89.546 226.822 C 90.343 226.948,91.501 227.281,92.120 227.561 C 93.727 228.288,99.260 229.934,101.689 230.408 C 104.229 230.903,106.568 231.869,106.563 232.421 C 106.560 232.648,106.301 233.677,105.987 234.709 C 105.303 236.955,104.699 239.709,102.408 251.032 C 102.178 252.167,101.757 253.687,101.473 254.409 C 100.658 256.480,99.437 261.560,99.437 262.883 C 99.437 263.979,98.838 266.344,97.401 270.919 C 97.109 271.848,96.766 273.537,96.638 274.672 C 96.505 275.857,95.856 277.860,95.114 279.377 C 94.403 280.829,93.304 283.531,92.672 285.380 C 92.039 287.230,91.292 289.250,91.012 289.869 C 84.597 304.047,82.693 308.081,81.947 309.074 C 81.454 309.731,81.051 310.388,81.051 310.533 C 81.051 310.679,80.375 311.531,79.550 312.426 C 77.921 314.193,77.696 315.165,78.685 316.155 C 79.446 316.916,101.864 316.764,104.315 315.982 C 105.038 315.751,107.268 315.232,109.272 314.828 C 112.815 314.114,115.870 313.036,119.325 311.283 C 120.253 310.811,121.689 310.208,122.514 309.941 C 125.900 308.850,133.195 304.924,135.352 303.034 C 136.704 301.850,137.096 301.668,137.382 302.096 C 137.577 302.388,138.755 304.231,139.999 306.191 C 143.502 311.713,145.435 314.421,147.721 317.008 C 148.878 318.318,150.222 320.188,150.709 321.164 C 151.195 322.141,152.881 324.363,154.454 326.104 C 156.028 327.844,157.826 330.028,158.449 330.957 C 159.072 331.886,160.173 333.269,160.896 334.030 C 161.619 334.792,162.566 335.992,163.000 336.697 C 164.142 338.551,166.235 341.401,167.587 342.943 C 168.231 343.677,169.313 345.206,169.991 346.341 C 170.669 347.477,171.854 349.081,172.623 349.906 C 173.393 350.732,174.488 352.167,175.057 353.096 C 175.626 354.024,176.728 355.483,177.507 356.336 C 178.286 357.190,179.215 358.456,179.571 359.150 C 179.927 359.845,181.630 362.545,183.355 365.152 C 185.080 367.759,186.492 370.033,186.492 370.206 C 186.492 371.359,192.225 381.925,193.270 382.698 C 195.647 384.455,198.755 383.265,200.457 379.946 C 200.874 379.132,202.147 377.021,203.287 375.255 C 204.426 373.490,206.236 370.272,207.308 368.105 C 210.666 361.320,214.811 355.722,216.476 355.722 C 216.910 355.722,219.293 356.237,221.771 356.865 C 228.762 358.638,230.785 358.755,257.786 358.952 C 293.115 359.209,300.348 359.395,302.224 360.093 C 303.065 360.406,304.174 360.756,304.690 360.872 C 305.206 360.988,306.106 361.417,306.689 361.825 C 307.272 362.234,308.328 362.717,309.034 362.898 C 309.741 363.079,310.952 363.418,311.726 363.650 C 321.887 366.707,322.845 348.329,313.395 331.635 C 303.134 313.508,280.123 296.324,264.540 295.151 C 262.992 295.034,256.998 294.599,251.220 294.184 C 224.224 292.245,207.934 289.049,202.338 284.594 C 200.183 282.878,196.623 279.481,196.623 279.141 C 196.623 279.005,196.018 278.239,195.279 277.439 C 194.540 276.639,193.691 275.521,193.393 274.953 C 193.095 274.386,192.707 273.921,192.531 273.921 C 192.355 273.921,191.991 273.389,191.721 272.738 C 191.452 272.088,190.559 270.779,189.737 269.830 C 187.683 267.457,185.000 263.199,184.341 261.267 C 184.040 260.384,183.641 259.662,183.454 259.662 C 183.267 259.662,183.114 259.401,183.114 259.081 C 183.114 258.762,182.767 257.791,182.343 256.924 C 174.298 240.481,179.320 217.573,192.958 208.499 C 226.956 185.877,265.308 224.158,245.847 261.291 C 244.722 263.438,243.760 264.789,243.121 265.119 C 242.386 265.499,242.029 266.091,241.728 267.430 C 241.505 268.421,241.115 269.923,240.862 270.768 C 240.277 272.717,240.565 273.444,242.188 274.122 C 242.902 274.420,243.647 274.953,243.844 275.305 C 244.335 276.182,247.601 274.708,257.974 268.928 C 291.444 250.279,315.186 223.139,322.297 195.400 C 326.500 179.007,325.696 160.337,320.079 143.859 C 319.454 142.026,318.667 139.428,318.330 138.086 C 317.031 132.914,307.460 115.586,294.184 94.371 C 276.497 66.107,270.158 53.203,266.626 38.274 C 264.860 30.810,264.350 21.466,265.478 17.261 C 265.783 16.126,266.034 14.046,266.037 12.639 C 266.039 11.233,266.222 9.744,266.443 9.331 C 267.323 7.688,265.589 6.445,263.227 7.026 M207.533 206.036 C 180.310 211.377,172.343 249.125,194.811 266.308 C 210.293 278.148,233.800 272.291,242.024 254.546 C 246.612 244.645,246.688 233.370,242.230 224.093 C 235.814 210.743,221.502 203.296,207.533 206.036 M316.123 216.529 C 315.767 217.106,316.255 217.478,316.737 216.997 C 317.006 216.727,317.013 216.517,316.757 216.359 C 316.546 216.229,316.262 216.306,316.123 216.529 M98.892 230.863 C 98.735 231.224,98.735 231.815,98.892 232.176 C 99.164 232.802,99.186 232.802,99.335 232.176 C 99.600 231.069,99.252 230.037,98.892 230.863 M297.355 240.393 C 295.480 242.416,296.940 243.807,298.891 241.856 C 299.398 241.349,299.812 240.589,299.812 240.167 C 299.812 239.059,298.478 239.182,297.355 240.393 " stroke="none" fill="#ffffff" fill-rule="evenodd"></path><path id="path4" d="M263.227 7.026 C 262.814 7.127,262.302 7.352,262.088 7.524 C 261.874 7.697,259.679 8.582,257.210 9.491 C 254.741 10.401,251.876 11.570,250.844 12.091 C 249.812 12.611,247.955 13.328,246.717 13.684 C 245.478 14.039,244.255 14.503,243.998 14.714 C 243.741 14.925,243.210 15.014,242.818 14.911 C 242.425 14.809,241.116 15.207,239.908 15.797 C 238.700 16.386,237.493 16.873,237.227 16.877 C 236.464 16.890,234.264 18.120,230.206 20.802 C 228.133 22.172,226.171 23.213,225.822 23.127 C 225.474 23.042,225.096 23.214,224.983 23.511 C 224.869 23.807,224.225 24.306,223.551 24.621 C 220.036 26.262,216.510 28.662,216.510 29.414 C 216.510 29.946,214.800 31.587,212.347 33.407 C 211.398 34.111,209.710 36.020,208.594 37.650 C 207.479 39.279,206.195 40.907,205.741 41.265 C 200.725 45.227,190.195 71.449,192.151 75.105 C 192.471 75.703,192.437 83.978,192.057 97.936 C 191.963 101.362,193.184 107.979,194.953 113.638 C 195.280 114.683,193.042 114.600,186.492 113.327 C 184.531 112.946,181.998 112.524,180.863 112.389 C 178.684 112.131,169.610 110.365,169.218 110.123 C 169.092 110.045,167.752 109.724,166.241 109.409 C 164.730 109.093,163.222 108.597,162.891 108.306 C 162.560 108.014,161.698 107.653,160.976 107.503 C 160.253 107.353,159.493 107.101,159.287 106.942 C 159.081 106.783,158.321 106.531,157.598 106.381 C 156.088 106.068,147.503 102.708,146.245 101.937 C 145.782 101.654,144.245 101.120,142.830 100.752 C 141.415 100.384,139.457 99.544,138.479 98.886 C 137.502 98.228,135.033 96.798,132.994 95.709 C 126.683 92.337,122.353 88.839,121.719 86.602 C 121.516 85.883,121.006 85.209,120.501 84.991 C 119.759 84.670,119.660 84.412,119.818 83.208 C 119.920 82.434,119.874 81.721,119.716 81.624 C 119.369 81.409,117.991 84.345,118.297 84.650 C 118.415 84.769,118.315 85.333,118.074 85.905 C 117.367 87.584,118.177 100.066,119.548 108.630 C 120.818 116.556,121.303 118.975,122.369 122.702 C 123.720 127.425,125.885 133.880,126.900 136.210 C 128.360 139.560,133.993 151.163,134.825 152.533 C 135.614 153.831,136.748 155.527,136.957 155.722 C 137.068 155.826,137.831 156.923,138.654 158.161 C 139.477 159.400,140.818 161.318,141.634 162.425 C 143.406 164.827,143.919 164.267,136.298 168.247 C 133.197 169.866,129.841 171.905,128.839 172.778 C 127.837 173.651,125.413 175.337,123.452 176.524 C 121.492 177.710,119.550 178.974,119.137 179.331 C 117.951 180.357,111.379 184.437,110.081 184.953 C 109.435 185.210,108.549 185.830,108.114 186.331 C 107.678 186.832,107.101 187.242,106.831 187.242 C 106.560 187.242,105.673 187.726,104.858 188.317 C 102.888 189.746,99.572 191.538,97.889 192.082 C 97.141 192.325,95.706 193.107,94.701 193.822 C 93.696 194.537,92.634 195.122,92.341 195.122 C 92.048 195.122,90.612 195.774,89.150 196.570 C 87.688 197.367,85.563 198.364,84.428 198.785 C 83.293 199.207,80.844 200.211,78.987 201.018 C 77.129 201.824,74.174 202.877,72.420 203.357 C 65.574 205.232,62.664 206.732,62.664 208.388 C 62.664 209.927,70.182 215.805,77.417 219.925 C 80.344 221.591,83.003 223.191,83.326 223.480 C 83.649 223.769,84.494 224.204,85.203 224.447 C 85.912 224.690,86.853 225.272,87.295 225.740 C 87.737 226.209,88.750 226.696,89.546 226.822 C 90.343 226.948,91.501 227.281,92.120 227.561 C 93.727 228.288,99.260 229.934,101.689 230.408 C 104.229 230.903,106.568 231.869,106.563 232.421 C 106.560 232.648,106.301 233.677,105.987 234.709 C 105.303 236.955,104.699 239.709,102.408 251.032 C 102.178 252.167,101.757 253.687,101.473 254.409 C 100.658 256.480,99.437 261.560,99.437 262.883 C 99.437 263.979,98.838 266.344,97.401 270.919 C 97.109 271.848,96.766 273.537,96.638 274.672 C 96.505 275.857,95.856 277.860,95.114 279.377 C 94.403 280.829,93.304 283.531,92.672 285.380 C 92.039 287.230,91.292 289.250,91.012 289.869 C 84.597 304.047,82.693 308.081,81.947 309.074 C 81.454 309.731,81.051 310.388,81.051 310.533 C 81.051 310.679,80.375 311.531,79.550 312.426 C 77.921 314.193,77.696 315.165,78.685 316.155 C 79.446 316.916,101.864 316.764,104.315 315.982 C 105.038 315.751,107.268 315.232,109.272 314.828 C 112.815 314.114,115.870 313.036,119.325 311.283 C 120.253 310.811,121.689 310.208,122.514 309.941 C 125.900 308.850,133.195 304.924,135.352 303.034 C 136.704 301.850,137.096 301.668,137.382 302.096 C 137.577 302.388,138.755 304.231,139.999 306.191 C 143.502 311.713,145.435 314.421,147.721 317.008 C 148.878 318.318,150.222 320.188,150.709 321.164 C 151.195 322.141,152.881 324.363,154.454 326.104 C 156.028 327.844,157.826 330.028,158.449 330.957 C 159.072 331.886,160.173 333.269,160.896 334.030 C 161.619 334.792,162.566 335.992,163.000 336.697 C 164.142 338.551,166.235 341.401,167.587 342.943 C 168.231 343.677,169.313 345.206,169.991 346.341 C 170.669 347.477,171.854 349.081,172.623 349.906 C 173.393 350.732,174.488 352.167,175.057 353.096 C 175.626 354.024,176.728 355.483,177.507 356.336 C 178.286 357.190,179.215 358.456,179.571 359.150 C 179.927 359.845,181.630 362.545,183.355 365.152 C 185.080 367.759,186.492 370.033,186.492 370.206 C 186.492 371.359,192.225 381.925,193.270 382.698 C 195.647 384.455,198.755 383.265,200.457 379.946 C 200.874 379.132,202.147 377.021,203.287 375.255 C 204.426 373.490,206.236 370.272,207.308 368.105 C 210.666 361.320,214.811 355.722,216.476 355.722 C 216.910 355.722,219.293 356.237,221.771 356.865 C 228.762 358.638,230.785 358.755,257.786 358.952 C 293.115 359.209,300.348 359.395,302.224 360.093 C 303.065 360.406,304.174 360.756,304.690 360.872 C 305.206 360.988,306.106 361.417,306.689 361.825 C 307.272 362.234,308.328 362.717,309.034 362.898 C 309.741 363.079,310.952 363.418,311.726 363.650 C 321.887 366.707,322.845 348.329,313.395 331.635 C 303.134 313.508,280.123 296.324,264.540 295.151 C 262.992 295.034,256.998 294.599,251.220 294.184 C 224.224 292.245,207.934 289.049,202.338 284.594 C 200.183 282.878,196.623 279.481,196.623 279.141 C 196.623 279.005,196.018 278.239,195.279 277.439 C 194.540 276.639,193.691 275.521,193.393 274.953 C 193.095 274.386,192.707 273.921,192.531 273.921 C 192.355 273.921,191.991 273.389,191.721 272.738 C 191.452 272.088,190.559 270.779,189.737 269.830 C 187.683 267.457,185.000 263.199,184.341 261.267 C 184.040 260.384,183.641 259.662,183.454 259.662 C 183.267 259.662,183.114 259.401,183.114 259.081 C 183.114 258.762,182.767 257.791,182.343 256.924 C 174.298 240.481,179.320 217.573,192.958 208.499 C 226.956 185.877,265.308 224.158,245.847 261.291 C 244.722 263.438,243.760 264.789,243.121 265.119 C 242.386 265.499,242.029 266.091,241.728 267.430 C 241.505 268.421,241.115 269.923,240.862 270.768 C 240.277 272.717,240.565 273.444,242.188 274.122 C 242.902 274.420,243.647 274.953,243.844 275.305 C 244.335 276.182,247.601 274.708,257.974 268.928 C 291.444 250.279,315.186 223.139,322.297 195.400 C 326.500 179.007,325.696 160.337,320.079 143.859 C 319.454 142.026,318.667 139.428,318.330 138.086 C 317.031 132.914,307.460 115.586,294.184 94.371 C 276.497 66.107,270.158 53.203,266.626 38.274 C 264.860 30.810,264.350 21.466,265.478 17.261 C 265.783 16.126,266.034 14.046,266.037 12.639 C 266.039 11.233,266.222 9.744,266.443 9.331 C 267.323 7.688,265.589 6.445,263.227 7.026 M207.533 206.036 C 180.310 211.377,172.343 249.125,194.811 266.308 C 210.293 278.148,233.800 272.291,242.024 254.546 C 246.612 244.645,246.688 233.370,242.230 224.093 C 235.814 210.743,221.502 203.296,207.533 206.036 M316.123 216.529 C 315.767 217.106,316.255 217.478,316.737 216.997 C 317.006 216.727,317.013 216.517,316.757 216.359 C 316.546 216.229,316.262 216.306,316.123 216.529 M98.892 230.863 C 98.735 231.224,98.735 231.815,98.892 232.176 C 99.164 232.802,99.186 232.802,99.335 232.176 C 99.600 231.069,99.252 230.037,98.892 230.863 M297.355 240.393 C 295.480 242.416,296.940 243.807,298.891 241.856 C 299.398 241.349,299.812 240.589,299.812 240.167 C 299.812 239.059,298.478 239.182,297.355 240.393 " stroke="none" fill="#ffffff" fill-rule="evenodd"></path></g></svg>