<svg id="svg" version="1.1" width="400" height="268.4684684684685" xmlns="http://www.w3.org/2000/svg" xmlns:xlink="http://www.w3.org/1999/xlink" style="display: block;"><g id="svgg"><path id="path0" d="" stroke="none" fill="#000000" fill-rule="evenodd"></path><path id="path1" d="" stroke="none" fill="#555555" fill-rule="evenodd"></path><path id="path2" d="" stroke="none" fill="#999999" fill-rule="evenodd"></path><path id="path3" d="M366.766 32.371 C 366.768 33.109,366.820 33.380,366.882 32.971 C 366.944 32.563,366.942 31.959,366.878 31.628 C 366.814 31.298,366.764 31.632,366.766 32.371 M375.817 80.732 C 375.630 80.957,375.552 81.216,375.644 81.308 C 375.735 81.399,375.886 81.276,375.979 81.034 C 376.072 80.792,376.275 80.673,376.430 80.768 C 376.594 80.870,376.632 80.814,376.520 80.633 C 376.273 80.234,376.225 80.241,375.817 80.732 M65.878 84.889 C 65.878 85.406,65.934 85.618,66.001 85.359 C 66.069 85.101,66.069 84.678,66.001 84.419 C 65.934 84.161,65.878 84.372,65.878 84.889 M21.491 89.423 C 21.491 89.767,22.281 90.367,22.476 90.172 C 22.671 89.977,22.070 89.187,21.727 89.187 C 21.597 89.187,21.491 89.293,21.491 89.423 M78.510 97.381 C 78.513 97.972,78.568 98.182,78.632 97.848 C 78.696 97.514,78.694 97.030,78.626 96.773 C 78.559 96.516,78.507 96.790,78.510 97.381 M323.884 205.261 C 323.439 205.781,323.438 205.815,323.866 205.732 C 324.120 205.682,324.359 205.430,324.397 205.171 C 324.483 204.579,324.466 204.582,323.884 205.261 M210.068 248.361 C 209.515 249.028,210.037 249.182,210.678 248.541 C 211.152 248.067,211.183 247.952,210.838 247.952 C 210.602 247.952,210.255 248.136,210.068 248.361 M190.729 251.975 C 190.991 252.465,192.075 253.244,192.075 252.943 C 192.075 252.871,191.768 252.504,191.391 252.128 C 190.571 251.307,190.343 251.255,190.729 251.975 M195.836 261.140 C 195.836 261.350,196.108 261.690,196.441 261.894 L 197.045 262.265 196.511 261.623 C 196.217 261.270,195.945 260.930,195.906 260.869 C 195.868 260.807,195.836 260.929,195.836 261.140 " stroke="none" fill="#b6b6b6" fill-rule="evenodd"></path><path id="path4" d="M22.722 15.514 C 22.636 15.600,22.565 16.013,22.565 16.432 C 22.565 17.014,22.439 17.193,22.028 17.193 C 21.733 17.193,21.491 17.321,21.491 17.477 C 21.491 17.634,21.370 17.687,21.222 17.596 C 21.075 17.504,20.954 17.625,20.954 17.864 C 20.954 18.141,21.076 18.225,21.289 18.097 C 21.555 17.938,21.557 17.980,21.299 18.298 C 21.073 18.578,20.964 20.221,20.942 23.678 C 20.917 27.709,20.841 28.655,20.541 28.655 C 20.338 28.655,20.234 28.554,20.310 28.431 C 20.386 28.308,20.335 28.207,20.196 28.207 C 19.832 28.207,19.315 28.896,19.523 29.105 C 19.620 29.202,19.559 29.281,19.387 29.281 C 19.214 29.281,19.073 29.530,19.073 29.835 C 19.073 30.139,19.194 30.313,19.342 30.222 C 19.490 30.130,19.610 30.184,19.610 30.340 C 19.610 30.497,19.489 30.625,19.340 30.625 C 19.161 30.625,19.093 38.305,19.139 53.526 L 19.208 76.427 20.081 76.511 L 20.954 76.595 20.987 81.817 C 21.024 87.606,21.007 87.301,21.328 87.807 C 21.464 88.022,21.450 88.244,21.293 88.344 C 21.070 88.487,21.013 89.506,21.180 90.336 C 21.203 90.450,21.525 90.659,21.894 90.799 C 22.536 91.043,22.567 91.159,22.601 93.412 C 22.693 99.628,22.847 100.425,23.805 99.647 C 24.102 99.406,24.205 99.387,24.079 99.597 C 23.968 99.782,24.005 99.933,24.161 99.933 C 24.348 99.933,24.446 101.192,24.446 103.579 C 24.446 107.195,24.451 107.224,25.050 107.176 C 26.351 107.070,26.326 106.999,26.326 110.813 C 26.326 113.051,26.429 114.439,26.595 114.439 C 26.743 114.439,26.864 114.567,26.864 114.724 C 26.864 114.880,26.743 114.933,26.595 114.842 C 26.255 114.632,26.252 115.250,26.591 115.782 C 26.793 116.100,26.952 116.120,27.344 115.878 C 27.892 115.538,28.075 116.534,27.986 119.365 C 27.932 121.055,28.316 121.786,29.171 121.622 C 29.865 121.489,29.951 121.958,29.863 125.397 C 29.843 126.199,29.927 126.493,30.140 126.361 C 30.345 126.234,30.388 126.325,30.270 126.634 C 30.120 127.023,30.221 127.076,30.896 126.970 L 31.699 126.843 31.728 128.768 C 31.783 132.442,31.742 132.283,32.639 132.294 L 33.445 132.304 33.522 135.057 C 33.568 136.707,33.709 137.811,33.873 137.811 C 34.025 137.811,34.074 137.690,33.983 137.542 C 33.891 137.394,34.012 137.273,34.251 137.273 C 34.490 137.273,34.611 137.394,34.520 137.542 C 34.428 137.690,34.542 137.811,34.773 137.811 C 35.071 137.811,35.202 138.100,35.228 138.818 C 35.330 141.659,35.247 141.441,36.199 141.398 L 37.072 141.358 37.072 143.829 C 37.072 146.460,37.268 146.944,38.334 146.944 C 38.941 146.944,39.034 147.335,38.947 149.502 C 38.937 149.737,39.614 150.386,39.771 150.292 C 40.226 150.018,40.568 150.777,40.599 152.128 C 40.636 153.707,41.034 154.384,41.761 154.105 C 42.319 153.891,42.418 154.156,42.493 156.055 C 42.552 157.540,42.614 157.708,43.065 157.590 C 44.092 157.322,44.325 157.666,44.325 159.449 C 44.325 160.385,44.446 161.225,44.594 161.316 C 44.741 161.408,44.864 161.324,44.866 161.131 C 44.870 160.855,44.921 160.859,45.105 161.149 C 45.234 161.353,45.474 161.436,45.638 161.335 C 45.927 161.156,46.070 162.299,45.947 163.808 C 45.919 164.144,45.996 164.402,46.118 164.381 C 46.672 164.284,46.842 164.439,46.474 164.704 C 46.134 164.948,46.144 164.970,46.541 164.842 C 47.446 164.551,47.817 164.941,47.817 166.181 C 47.817 167.124,47.912 167.361,48.287 167.365 C 48.689 167.368,48.699 167.407,48.355 167.629 C 48.019 167.846,48.042 167.894,48.489 167.913 L 49.026 167.936 48.489 168.147 C 48.019 168.332,48.062 168.384,48.825 168.553 C 49.646 168.735,49.698 168.816,49.698 169.912 C 49.698 171.605,49.918 172.082,50.415 171.465 C 50.773 171.021,50.788 171.030,50.634 171.592 C 50.537 171.945,50.587 172.196,50.754 172.196 C 50.912 172.196,51.049 171.985,51.058 171.726 C 51.082 171.060,51.575 172.337,51.644 173.244 C 51.673 173.628,52.033 174.241,52.444 174.606 C 52.973 175.077,53.190 175.527,53.190 176.151 C 53.190 176.755,53.317 177.032,53.593 177.032 C 53.815 177.032,53.996 177.167,53.996 177.332 C 53.996 177.499,54.233 177.570,54.533 177.491 C 54.968 177.377,55.074 177.487,55.091 178.064 C 55.137 179.674,55.491 180.416,56.435 180.888 C 56.793 181.067,57.088 181.390,57.092 181.607 C 57.104 182.237,57.480 182.673,58.013 182.673 C 58.578 182.673,58.853 183.207,58.699 184.007 C 58.500 185.041,59.100 186.179,59.932 186.345 C 60.356 186.430,60.641 186.600,60.565 186.723 C 60.157 187.384,60.785 188.335,61.550 188.215 C 62.349 188.089,62.481 188.345,62.334 189.745 C 62.300 190.075,62.444 190.219,62.773 190.184 C 64.105 190.045,64.175 190.125,64.259 191.874 C 64.335 193.483,64.369 193.556,65.077 193.638 C 65.646 193.703,65.816 193.866,65.816 194.344 C 65.816 195.088,66.398 195.632,67.072 195.517 C 67.408 195.459,67.589 195.623,67.648 196.038 C 67.695 196.370,67.846 196.642,67.984 196.642 C 68.121 196.642,68.234 196.837,68.234 197.076 C 68.234 197.395,68.413 197.476,68.905 197.382 C 69.521 197.265,69.577 197.335,69.581 198.224 C 69.586 199.550,70.137 200.542,70.853 200.517 C 71.171 200.506,71.369 200.597,71.294 200.719 C 71.219 200.841,71.345 200.940,71.576 200.940 C 71.806 200.940,71.995 201.122,71.995 201.343 C 71.995 201.565,71.864 201.746,71.704 201.746 C 71.544 201.746,71.468 201.897,71.536 202.082 C 71.603 202.267,71.795 202.388,71.961 202.351 C 72.127 202.314,72.263 202.404,72.263 202.552 C 72.263 202.700,72.445 202.821,72.666 202.821 C 72.888 202.821,73.069 203.048,73.069 203.325 C 73.069 203.602,73.251 203.980,73.472 204.164 C 73.777 204.417,73.875 204.420,73.875 204.178 C 73.875 203.972,74.027 204.009,74.297 204.279 C 74.529 204.511,74.824 204.701,74.952 204.701 C 75.080 204.701,75.162 205.034,75.135 205.440 C 75.094 206.038,75.198 206.180,75.683 206.186 C 76.249 206.194,77.224 206.846,76.682 206.854 C 76.542 206.857,76.608 206.976,76.830 207.119 C 77.085 207.284,77.113 207.381,76.906 207.383 C 76.726 207.386,76.648 207.569,76.733 207.790 C 76.819 208.014,77.218 208.193,77.631 208.193 C 78.244 208.193,78.403 208.337,78.537 209.005 C 78.663 209.635,78.877 209.852,79.496 209.976 C 80.151 210.107,80.307 210.285,80.375 210.978 C 80.444 211.691,80.570 211.824,81.200 211.847 C 82.122 211.881,82.270 212.024,82.270 212.878 C 82.270 213.251,82.377 213.490,82.507 213.410 C 82.986 213.114,83.815 213.606,83.819 214.189 C 83.825 215.092,84.226 215.542,84.872 215.373 C 85.345 215.250,85.529 215.413,85.907 216.292 C 86.280 217.160,86.479 217.340,86.965 217.248 C 87.623 217.124,87.978 217.739,87.687 218.498 C 87.553 218.848,87.689 218.939,88.353 218.939 C 89.069 218.939,89.187 219.036,89.187 219.626 C 89.187 220.011,89.304 220.241,89.453 220.150 C 89.608 220.054,89.648 220.168,89.549 220.427 C 89.417 220.771,89.521 220.850,90.022 220.785 C 90.826 220.681,91.356 220.993,91.175 221.465 C 90.989 221.949,91.844 222.769,92.336 222.580 C 92.582 222.486,92.782 222.631,92.870 222.967 C 92.948 223.263,93.148 223.508,93.315 223.510 C 93.483 223.512,93.439 223.633,93.217 223.778 C 92.671 224.137,93.359 224.637,94.200 224.494 C 94.608 224.425,94.868 224.587,95.075 225.042 C 95.294 225.522,95.291 225.640,95.065 225.500 C 94.878 225.385,94.808 225.456,94.886 225.685 C 94.955 225.890,95.303 226.071,95.659 226.087 C 96.863 226.141,96.978 226.191,96.974 226.662 C 96.970 227.064,96.932 227.074,96.709 226.729 C 96.480 226.375,96.448 226.377,96.445 226.745 C 96.442 226.975,96.631 227.399,96.863 227.685 C 97.096 227.972,97.215 228.064,97.128 227.890 C 97.040 227.715,97.092 227.496,97.242 227.404 C 97.392 227.311,97.515 227.423,97.515 227.654 C 97.515 227.884,97.688 228.073,97.900 228.073 C 98.117 228.073,98.322 228.386,98.370 228.791 C 98.417 229.185,98.626 229.565,98.834 229.633 C 99.098 229.720,99.160 229.620,99.038 229.304 C 98.936 229.036,98.973 228.918,99.130 229.015 C 99.276 229.105,99.396 229.352,99.396 229.563 C 99.396 229.852,99.712 229.932,100.662 229.883 C 101.902 229.820,101.928 229.835,101.938 230.625 C 101.947 231.354,102.040 231.438,102.915 231.511 C 103.798 231.585,103.871 231.654,103.749 232.290 C 103.648 232.818,103.702 232.935,103.969 232.770 C 104.225 232.612,104.275 232.675,104.151 232.998 C 104.010 233.365,104.134 233.433,104.844 233.378 C 105.664 233.314,105.706 233.356,105.668 234.203 C 105.637 234.882,105.720 235.058,106.018 234.944 C 106.232 234.862,106.336 234.912,106.247 235.055 C 106.151 235.210,106.606 235.306,107.375 235.292 C 109.205 235.259,109.388 235.291,109.191 235.610 C 108.879 236.116,109.322 237.240,109.814 237.191 C 110.877 237.084,111.271 237.210,111.118 237.609 C 111.033 237.831,111.094 238.012,111.253 238.012 C 111.412 238.012,111.479 238.176,111.402 238.377 C 111.304 238.632,111.477 238.733,111.977 238.713 C 112.598 238.688,112.711 238.808,112.827 239.624 C 112.972 240.638,112.822 240.585,115.826 240.677 C 116.462 240.696,116.528 240.785,116.418 241.482 C 116.300 242.233,116.795 242.695,117.568 242.556 C 118.210 242.441,118.431 242.647,118.385 243.318 C 118.330 244.117,118.307 244.109,120.667 244.162 C 121.868 244.189,121.920 244.223,121.800 244.884 C 121.710 245.377,121.767 245.519,121.998 245.377 C 122.219 245.240,122.267 245.318,122.149 245.624 C 122.055 245.870,122.095 246.071,122.238 246.071 C 122.381 246.071,122.498 245.936,122.498 245.770 C 122.498 245.573,122.616 245.556,122.834 245.720 C 123.019 245.858,123.653 246.005,124.244 246.046 C 125.501 246.134,125.470 246.114,125.525 246.847 C 125.548 247.159,125.670 247.414,125.795 247.414 C 125.920 247.414,125.936 247.554,125.830 247.725 C 125.701 247.935,125.812 247.991,126.171 247.897 C 126.959 247.691,128.086 248.810,127.915 249.628 C 127.892 249.738,128.386 249.814,129.014 249.798 C 130.914 249.750,130.982 249.777,130.971 250.571 C 130.960 251.363,130.785 251.306,133.562 251.408 C 134.464 251.441,134.541 251.503,134.430 252.116 C 134.361 252.492,134.435 252.787,134.598 252.787 C 134.757 252.787,134.826 252.886,134.752 253.006 C 134.677 253.127,135.355 253.243,136.259 253.265 C 137.986 253.306,138.362 253.551,138.157 254.496 C 138.056 254.963,138.087 254.995,138.320 254.668 C 138.564 254.327,138.610 254.348,138.617 254.802 C 138.623 255.248,138.669 255.270,138.885 254.936 C 139.028 254.715,139.147 254.667,139.150 254.830 C 139.152 255.009,139.662 255.116,140.429 255.099 C 141.537 255.074,141.704 255.141,141.699 255.608 C 141.689 256.411,142.364 256.799,143.788 256.808 C 144.968 256.816,145.064 256.867,145.064 257.488 C 145.064 257.906,145.216 258.160,145.467 258.160 C 145.688 258.160,145.870 258.285,145.870 258.439 C 145.870 258.592,146.142 258.694,146.474 258.666 C 148.573 258.485,149.088 258.659,148.921 259.490 C 148.732 260.438,149.136 260.593,151.645 260.538 C 154.177 260.483,154.197 260.490,154.197 261.355 C 154.197 261.798,154.371 262.198,154.600 262.287 C 154.822 262.372,155.005 262.294,155.007 262.114 C 155.010 261.895,155.077 261.881,155.209 262.072 C 155.317 262.228,155.932 262.349,156.574 262.340 C 157.216 262.331,157.881 262.413,158.051 262.521 C 158.278 262.665,158.271 262.720,158.026 262.723 C 157.841 262.725,157.690 262.868,157.690 263.040 C 157.690 263.212,157.771 263.273,157.869 263.174 C 157.968 263.075,158.284 263.206,158.570 263.465 C 158.857 263.724,159.350 263.950,159.666 263.969 C 159.983 263.987,160.581 264.017,160.996 264.036 C 161.452 264.056,161.681 264.182,161.576 264.354 C 161.285 264.823,161.698 265.950,162.160 265.950 C 162.516 265.950,162.532 265.879,162.251 265.541 C 161.968 265.199,161.984 265.160,162.353 265.301 C 162.595 265.394,162.794 265.558,162.794 265.665 C 162.794 265.773,164.914 265.888,167.505 265.922 L 172.216 265.983 172.139 262.541 L 172.062 259.100 171.189 259.016 C 170.709 258.970,170.298 258.788,170.276 258.613 C 170.254 258.438,170.224 258.063,170.209 257.781 C 170.190 257.423,169.939 257.234,169.380 257.159 C 168.400 257.026,168.424 257.049,168.322 256.108 C 168.264 255.576,168.083 255.331,167.732 255.312 C 166.627 255.252,166.555 255.188,166.555 254.265 C 166.555 253.404,166.488 253.324,165.767 253.324 C 165.107 253.324,164.965 253.204,164.894 252.586 C 164.846 252.168,164.634 251.831,164.406 251.811 C 164.184 251.791,163.791 251.761,163.533 251.744 C 163.185 251.721,163.062 251.479,163.062 250.813 C 163.062 249.992,162.991 249.912,162.229 249.890 C 161.166 249.860,161.224 249.960,161.156 248.068 C 161.102 246.566,161.051 246.446,160.444 246.396 C 159.561 246.323,159.237 246.090,159.406 245.650 C 159.483 245.448,159.429 245.210,159.285 245.121 C 159.142 245.032,159.096 244.844,159.183 244.703 C 159.270 244.562,159.242 244.463,159.120 244.485 C 158.115 244.659,157.720 244.419,157.640 243.586 C 157.566 242.819,157.450 242.703,156.682 242.629 C 156.042 242.567,155.800 242.406,155.776 242.025 C 155.757 241.738,155.727 241.353,155.708 241.169 C 155.690 240.982,155.316 240.833,154.869 240.833 C 154.156 240.833,154.053 240.732,153.979 239.960 C 153.905 239.192,153.800 239.087,153.106 239.087 C 152.337 239.087,152.267 238.993,152.210 237.878 C 152.190 237.475,151.964 237.319,151.310 237.256 L 150.437 237.172 150.437 235.443 L 150.437 233.714 149.496 233.714 C 148.601 233.714,148.556 233.669,148.556 232.774 C 148.556 231.908,148.492 231.833,147.750 231.833 C 146.970 231.833,146.839 231.648,146.868 230.581 C 146.873 230.409,146.469 230.192,145.970 230.099 C 145.340 229.980,145.064 229.782,145.064 229.445 C 145.064 228.856,144.246 228.073,143.632 228.073 C 143.313 228.073,143.183 227.841,143.183 227.267 C 143.183 226.553,143.092 226.461,142.390 226.461 C 141.597 226.461,141.596 226.459,141.517 224.647 L 141.437 222.834 140.564 222.750 C 139.796 222.676,139.691 222.571,139.691 221.877 C 139.691 221.154,139.612 221.088,138.751 221.088 C 137.855 221.088,137.811 221.043,137.811 220.148 C 137.811 219.252,137.766 219.208,136.870 219.208 C 135.982 219.208,135.930 219.158,135.930 218.301 C 135.930 217.509,135.844 217.394,135.247 217.394 C 134.337 217.394,134.345 217.411,134.288 215.501 L 134.238 213.835 133.338 213.835 C 132.488 213.835,132.438 213.782,132.438 212.895 C 132.438 211.999,132.393 211.954,131.498 211.954 C 130.599 211.954,130.557 211.912,130.557 210.998 C 130.557 210.424,130.449 210.109,130.286 210.210 C 129.438 210.734,128.946 210.051,128.946 208.351 L 128.946 206.663 128.112 206.640 C 127.097 206.611,127.052 206.570,126.980 205.605 C 126.931 204.949,126.795 204.823,126.053 204.751 C 125.199 204.668,125.012 204.333,125.165 203.156 C 125.192 202.944,124.865 202.821,124.269 202.821 L 123.330 202.821 123.250 201.142 C 123.174 199.542,123.136 199.459,122.447 199.379 C 121.852 199.311,121.709 199.144,121.641 198.439 C 121.569 197.693,121.447 197.572,120.701 197.499 C 119.996 197.431,119.830 197.288,119.761 196.693 C 119.692 196.095,119.527 195.956,118.805 195.886 L 117.931 195.802 117.900 194.140 C 117.882 193.226,117.882 192.388,117.900 192.277 C 117.917 192.166,117.569 192.075,117.126 192.075 C 116.481 192.075,116.320 191.960,116.320 191.500 C 116.320 190.857,115.623 190.216,114.909 190.203 C 114.576 190.197,114.439 189.977,114.439 189.446 C 114.439 188.796,114.325 188.689,113.580 188.632 C 112.501 188.550,112.601 188.741,112.532 186.619 C 112.484 185.142,112.394 184.810,112.046 184.843 C 110.899 184.952,110.678 184.819,110.678 184.016 C 110.678 183.300,110.589 183.210,109.872 183.210 C 109.083 183.210,109.066 183.181,109.036 181.800 C 108.987 179.600,108.987 179.601,108.162 179.537 C 107.197 179.461,107.157 179.418,107.128 178.402 C 107.106 177.641,107.027 177.569,106.205 177.569 C 105.400 177.569,105.306 177.490,105.306 176.822 C 105.306 176.206,105.179 176.064,104.588 176.015 C 103.670 175.939,103.744 176.089,103.637 174.072 C 103.548 172.388,103.521 172.330,102.823 172.318 C 101.935 172.303,101.830 172.203,101.755 171.301 C 101.704 170.682,101.576 170.584,100.814 170.584 L 99.933 170.584 99.933 168.734 C 99.933 167.426,99.834 166.887,99.597 166.896 C 98.535 166.935,98.321 166.798,98.321 166.075 C 98.321 165.425,98.207 165.317,97.462 165.260 C 96.389 165.179,96.495 165.371,96.393 163.328 L 96.306 161.585 95.433 161.501 C 94.634 161.424,94.560 161.339,94.560 160.493 C 94.560 159.617,94.512 159.570,93.620 159.570 L 92.680 159.570 92.680 157.824 L 92.680 156.078 91.891 156.078 C 91.197 156.078,91.092 155.973,91.018 155.205 C 90.944 154.440,90.827 154.321,90.073 154.249 C 89.227 154.167,89.212 154.141,89.133 152.637 C 89.057 151.177,89.014 151.097,88.201 150.857 C 87.520 150.656,87.314 150.423,87.178 149.702 C 87.042 148.975,86.911 148.829,86.509 148.957 C 85.839 149.169,85.739 148.941,85.645 146.994 L 85.565 145.332 84.690 145.332 C 84.184 145.332,83.803 145.191,83.786 144.997 C 83.770 144.812,83.740 144.419,83.719 144.124 C 83.690 143.724,83.457 143.565,82.807 143.502 L 81.934 143.418 81.934 141.689 L 81.934 139.960 80.994 139.960 L 80.054 139.960 80.054 138.079 L 80.054 136.199 79.265 136.199 C 78.571 136.199,78.466 136.093,78.392 135.326 C 78.318 134.558,78.202 134.442,77.435 134.368 C 76.571 134.285,76.289 133.297,76.532 131.203 C 76.551 131.041,76.190 130.897,75.730 130.884 C 74.707 130.855,74.713 130.860,74.633 129.816 C 74.575 129.060,74.489 128.978,73.819 129.056 C 73.061 129.145,72.843 128.339,73.051 126.216 C 73.075 125.970,72.950 125.680,72.772 125.570 C 72.550 125.433,72.517 125.489,72.664 125.748 C 72.838 126.053,72.810 126.061,72.518 125.789 C 72.319 125.604,71.938 125.453,71.672 125.453 C 71.272 125.453,71.183 125.211,71.158 124.043 C 71.107 121.753,71.138 121.820,70.181 121.895 L 69.308 121.963 69.276 120.283 C 69.259 119.359,69.259 118.512,69.276 118.402 C 69.294 118.291,68.946 118.200,68.502 118.200 C 67.926 118.200,67.688 118.066,67.665 117.730 C 67.648 117.471,67.618 117.081,67.598 116.863 C 67.577 116.630,67.245 116.442,66.792 116.407 C 65.759 116.327,65.735 116.285,65.706 114.509 C 65.689 113.485,65.567 112.950,65.345 112.928 C 65.161 112.910,64.768 112.879,64.473 112.861 C 64.029 112.833,63.936 112.637,63.936 111.735 C 63.936 111.134,63.810 110.409,63.657 110.123 C 63.461 109.757,63.466 109.604,63.673 109.604 C 63.835 109.604,63.885 109.471,63.785 109.309 C 63.685 109.147,63.255 109.066,62.829 109.128 L 62.055 109.242 62.034 107.341 C 62.022 106.295,61.956 105.578,61.887 105.747 C 61.528 106.621,60.234 105.514,60.376 104.455 C 60.459 103.835,60.380 103.270,60.177 103.025 C 59.927 102.724,59.922 102.619,60.158 102.619 C 60.332 102.619,60.400 102.498,60.309 102.351 C 60.218 102.203,59.787 102.082,59.353 102.082 C 58.580 102.082,58.398 101.748,58.533 100.578 C 58.552 100.416,58.191 100.273,57.732 100.260 C 56.673 100.229,56.751 100.364,56.613 98.321 C 56.507 96.754,56.435 96.572,55.908 96.544 C 55.076 96.500,55.019 96.385,54.965 94.648 C 54.919 93.146,54.891 93.091,54.157 93.034 C 53.128 92.955,53.092 92.891,53.073 91.129 C 53.056 89.598,53.052 89.590,52.195 89.507 L 51.333 89.424 51.254 87.627 L 51.175 85.829 50.369 85.821 C 49.564 85.812,49.563 85.810,49.485 84.041 C 49.410 82.352,49.375 82.270,48.735 82.270 C 47.795 82.270,47.790 82.256,47.735 79.679 C 47.707 78.343,47.572 77.366,47.416 77.363 C 47.267 77.361,47.327 77.242,47.549 77.099 C 47.848 76.905,47.694 76.837,46.944 76.834 L 45.937 76.830 45.908 75.554 C 45.856 73.203,45.856 73.203,45.087 73.203 C 44.126 73.203,44.108 73.171,44.015 71.285 C 43.958 70.148,43.834 69.679,43.613 69.764 C 42.717 70.108,42.193 69.336,42.314 67.855 C 42.441 66.312,42.044 65.603,41.229 65.916 C 40.789 66.085,40.657 65.872,40.455 64.674 C 40.337 63.973,40.384 63.936,41.388 63.936 C 42.468 63.936,42.551 64.037,42.452 65.234 C 42.410 65.738,42.522 65.850,43.027 65.808 C 44.171 65.714,44.325 65.809,44.325 66.606 C 44.325 67.041,44.446 67.471,44.594 67.562 C 44.741 67.653,44.864 67.570,44.866 67.376 C 44.870 67.100,44.921 67.104,45.105 67.395 C 45.234 67.599,45.474 67.682,45.638 67.581 C 45.813 67.473,45.950 67.598,45.968 67.882 C 45.985 68.149,46.015 68.549,46.035 68.771 C 46.057 69.016,46.439 69.227,47.011 69.308 C 47.847 69.428,47.952 69.532,47.952 70.248 C 47.952 71.120,47.923 71.108,50.138 71.158 C 51.497 71.188,51.521 71.203,51.696 72.137 C 51.853 72.971,51.962 73.076,52.599 73.010 C 53.219 72.946,53.312 73.025,53.238 73.555 C 53.120 74.400,53.655 74.973,54.431 74.832 C 54.918 74.744,55.071 74.836,55.071 75.220 C 55.071 75.497,55.204 75.807,55.368 75.908 C 55.575 76.036,55.555 76.161,55.301 76.322 C 55.058 76.476,55.264 76.555,55.915 76.557 C 56.953 76.562,57.282 76.936,57.044 77.845 C 56.932 78.276,57.042 78.375,57.631 78.375 C 58.389 78.375,58.867 78.842,58.660 79.382 C 58.531 79.719,59.156 80.369,59.542 80.300 C 60.338 80.157,60.636 80.370,60.608 81.061 C 60.581 81.706,60.689 81.811,61.451 81.884 C 62.303 81.966,62.487 82.284,62.353 83.439 C 62.332 83.621,62.954 83.753,63.974 83.784 C 66.113 83.848,66.153 83.883,65.988 85.570 C 65.837 87.107,66.155 87.681,67.072 87.525 C 67.450 87.460,67.581 87.641,67.646 88.314 L 67.730 89.187 69.392 89.193 C 70.996 89.199,71.069 89.230,71.480 90.067 C 71.722 90.559,72.150 90.970,72.472 91.017 C 72.889 91.079,73.059 91.326,73.121 91.958 C 73.191 92.686,73.315 92.818,73.947 92.841 C 74.870 92.875,75.017 93.018,75.017 93.877 C 75.017 94.474,75.131 94.560,75.924 94.560 C 76.783 94.560,76.828 94.607,76.764 95.433 C 76.694 96.329,76.708 96.339,78.123 96.410 C 78.712 96.439,78.740 96.527,78.660 98.120 L 78.576 99.799 79.449 99.883 C 80.094 99.945,80.322 100.099,80.322 100.471 C 80.322 100.749,80.456 101.058,80.620 101.159 C 80.827 101.288,80.807 101.418,80.553 101.589 C 80.255 101.790,80.263 101.828,80.591 101.793 C 81.874 101.656,82.169 101.814,82.253 102.686 C 82.305 103.230,82.489 103.569,82.740 103.586 C 83.699 103.648,83.815 103.726,83.815 104.312 C 83.815 105.099,84.290 105.574,85.077 105.574 C 85.665 105.574,85.836 105.918,85.715 106.850 C 85.687 107.064,86.018 107.186,86.624 107.186 C 87.529 107.186,87.576 107.231,87.576 108.109 C 87.576 108.954,87.649 109.040,88.449 109.117 C 89.221 109.191,89.322 109.294,89.322 110.007 C 89.322 110.701,89.423 110.814,90.050 110.825 C 90.934 110.840,91.131 111.014,91.171 111.812 C 91.196 112.299,91.381 112.442,92.075 112.509 C 92.947 112.593,93.081 112.817,92.959 113.989 C 92.924 114.319,93.068 114.463,93.398 114.429 C 94.636 114.299,94.829 114.423,94.829 115.346 C 94.829 116.138,94.915 116.253,95.512 116.253 C 96.422 116.253,96.423 116.255,96.504 118.085 C 96.574 119.669,96.580 119.678,97.448 119.762 C 98.075 119.822,98.321 119.981,98.321 120.325 C 98.321 120.909,99.141 121.692,99.753 121.692 C 99.999 121.692,100.215 121.904,100.232 122.163 C 100.250 122.421,100.280 122.814,100.300 123.036 C 100.323 123.293,100.626 123.443,101.142 123.450 C 101.801 123.459,101.942 123.569,101.915 124.054 C 101.898 124.380,102.019 124.649,102.184 124.652 C 102.350 124.654,102.304 124.773,102.082 124.916 C 101.782 125.110,101.931 125.178,102.669 125.181 C 103.589 125.184,103.666 125.247,103.744 126.058 C 103.818 126.825,103.933 126.941,104.701 127.015 L 105.574 127.099 105.574 128.980 C 105.574 130.609,105.637 130.853,106.044 130.812 C 107.206 130.694,107.430 130.820,107.375 131.565 C 107.327 132.217,107.430 132.319,108.252 132.438 C 109.067 132.556,109.184 132.669,109.192 133.354 C 109.199 134.016,109.324 134.153,110.002 134.245 C 110.973 134.376,110.889 134.293,111.019 135.263 C 111.110 135.942,111.246 136.066,111.910 136.073 C 112.593 136.080,112.704 136.191,112.777 136.946 C 112.851 137.704,112.958 137.811,113.650 137.811 C 114.393 137.811,114.441 137.877,114.477 138.952 C 114.565 141.581,114.513 141.437,115.379 141.446 C 116.092 141.454,116.201 141.563,116.320 142.386 C 116.419 143.075,116.594 143.328,116.991 143.356 C 117.287 143.377,117.680 143.408,117.864 143.423 C 118.049 143.439,118.200 143.670,118.200 143.936 C 118.200 144.554,118.710 145.064,119.328 145.064 C 119.720 145.064,119.821 145.307,119.858 146.340 C 119.942 148.689,119.944 148.693,120.484 148.644 C 121.419 148.559,121.982 149.049,121.797 149.786 C 121.705 150.156,121.734 150.439,121.862 150.415 C 122.905 150.226,123.573 150.475,123.573 151.054 C 123.573 151.842,124.048 152.317,124.835 152.317 C 125.362 152.317,125.453 152.455,125.453 153.257 C 125.453 154.123,125.517 154.197,126.259 154.197 L 127.065 154.197 127.065 155.944 L 127.065 157.690 128.005 157.690 C 128.901 157.690,128.946 157.734,128.946 158.630 C 128.946 159.525,128.990 159.570,129.886 159.570 C 130.775 159.570,130.826 159.620,130.826 160.477 C 130.826 161.269,130.912 161.383,131.509 161.383 C 132.421 161.383,132.419 161.379,132.501 163.282 L 132.572 164.943 133.445 164.943 C 133.949 164.943,134.330 165.085,134.347 165.279 C 134.363 165.463,134.393 165.856,134.414 166.152 C 134.438 166.487,134.655 166.699,134.990 166.716 C 135.285 166.731,135.678 166.762,135.863 166.784 C 136.093 166.811,136.199 167.373,136.199 168.570 L 136.199 170.316 137.139 170.316 C 138.023 170.316,138.079 170.369,138.079 171.197 C 138.079 171.959,138.177 172.087,138.796 172.138 C 139.695 172.213,139.765 172.286,139.798 173.199 C 139.821 173.834,139.952 173.954,140.698 174.026 L 141.572 174.111 141.572 175.840 L 141.572 177.569 142.512 177.569 C 143.404 177.569,143.452 177.616,143.452 178.494 C 143.452 179.246,143.544 179.401,143.945 179.324 C 144.813 179.156,145.058 179.569,145.096 181.265 C 145.117 182.174,145.208 182.909,145.300 182.898 C 146.577 182.743,146.944 182.963,146.944 183.882 C 146.944 184.775,146.991 184.822,147.872 184.822 L 148.799 184.822 148.879 186.501 C 148.956 188.110,148.990 188.184,149.698 188.265 C 150.422 188.348,150.563 188.623,150.450 189.731 C 150.423 189.992,150.499 190.190,150.620 190.169 C 152.056 189.922,152.289 190.148,152.371 191.874 C 152.451 193.553,152.451 193.553,153.324 193.637 C 154.124 193.714,154.197 193.799,154.197 194.644 C 154.197 195.520,154.246 195.567,155.138 195.567 L 156.078 195.567 156.078 197.023 C 156.078 198.898,156.259 199.328,157.047 199.328 C 157.571 199.328,157.690 199.467,157.690 200.077 C 157.690 200.727,157.804 200.835,158.549 200.891 C 159.628 200.974,159.528 200.784,159.596 202.883 C 159.643 204.339,159.735 204.674,160.082 204.648 C 161.137 204.569,161.418 204.726,161.500 205.440 C 161.566 206.017,161.744 206.197,162.312 206.262 C 163.012 206.343,163.042 206.413,163.118 208.138 C 163.196 209.904,163.208 209.931,163.979 209.989 C 164.856 210.056,165.242 210.484,165.143 211.283 C 165.091 211.710,165.257 211.837,165.950 211.904 C 166.790 211.985,167.156 213.339,166.855 215.245 C 166.838 215.356,166.914 215.432,167.025 215.415 C 168.261 215.220,168.704 215.469,168.704 216.362 C 168.704 217.097,168.796 217.255,169.174 217.164 C 170.016 216.962,170.294 217.434,170.346 219.150 L 170.396 220.819 171.296 220.819 L 172.196 220.819 172.196 222.718 C 172.196 224.446,172.241 224.602,172.696 224.458 C 173.529 224.193,174.077 224.573,174.077 225.415 C 174.077 226.099,174.173 226.192,174.882 226.192 C 175.661 226.192,175.689 226.236,175.717 227.468 C 175.770 229.846,175.757 229.812,176.696 229.903 C 177.237 229.955,177.569 230.134,177.569 230.373 C 177.569 230.585,177.686 230.759,177.829 230.759 C 177.972 230.759,178.015 230.970,177.924 231.229 C 177.789 231.613,177.825 231.637,178.120 231.363 C 178.552 230.962,179.013 230.915,178.778 231.296 C 178.686 231.444,178.800 231.565,179.030 231.565 C 179.463 231.565,179.575 232.172,179.476 233.983 C 179.437 234.700,179.490 234.827,179.701 234.520 C 179.947 234.162,180.099 234.313,180.024 234.839 C 180.009 234.941,180.237 235.100,180.529 235.193 C 180.826 235.287,181.061 235.600,181.061 235.900 C 181.061 236.597,181.679 237.206,182.385 237.206 C 182.953 237.206,183.043 237.472,182.950 238.885 C 182.916 239.399,183.030 239.624,183.324 239.624 C 183.557 239.624,183.747 239.752,183.747 239.908 C 183.747 240.065,183.611 240.108,183.444 240.005 C 183.260 239.892,183.189 239.965,183.263 240.191 C 183.331 240.396,183.709 240.602,184.104 240.649 C 184.796 240.731,184.985 241.140,184.842 242.243 C 184.818 242.428,184.955 242.581,185.146 242.583 C 185.393 242.586,185.377 242.662,185.091 242.848 C 184.732 243.079,184.732 243.109,185.091 243.116 C 185.449 243.123,185.449 243.153,185.091 243.385 C 184.798 243.574,184.784 243.646,185.039 243.649 C 185.233 243.652,185.327 243.758,185.248 243.885 C 185.169 244.012,185.434 244.103,185.837 244.086 C 186.483 244.060,186.578 244.165,186.657 244.994 C 186.706 245.510,186.880 246.015,187.043 246.116 C 187.254 246.246,187.241 246.417,186.998 246.711 C 186.587 247.206,186.846 247.730,187.465 247.655 C 188.164 247.570,188.852 247.966,188.847 248.451 C 188.844 248.834,188.809 248.839,188.583 248.489 C 188.360 248.145,188.322 248.154,188.318 248.556 C 188.316 248.825,188.516 249.028,188.784 249.030 C 189.157 249.034,189.178 249.083,188.883 249.270 C 188.594 249.453,188.646 249.547,189.118 249.697 C 189.514 249.823,189.805 249.763,189.956 249.525 C 190.156 249.209,190.351 250.451,190.227 251.242 C 190.209 251.353,190.310 251.444,190.451 251.444 C 191.250 251.444,192.011 252.792,192.128 254.413 C 192.253 256.142,192.825 256.999,193.642 256.685 C 193.892 256.590,193.964 256.677,193.860 256.948 C 193.774 257.171,193.821 257.354,193.964 257.354 C 194.107 257.354,194.224 257.482,194.224 257.638 C 194.224 257.795,194.103 257.848,193.956 257.757 C 193.539 257.499,193.639 258.074,194.090 258.524 C 194.312 258.746,194.493 259.028,194.493 259.151 C 194.493 259.273,194.735 259.525,195.030 259.709 C 195.343 259.905,195.576 260.353,195.589 260.781 C 195.600 261.186,195.674 261.358,195.752 261.163 C 195.902 260.788,196.836 261.857,196.707 262.257 C 196.595 262.603,197.127 262.476,197.270 262.122 C 197.345 261.938,197.415 262.305,197.427 262.939 L 197.448 264.091 200.004 264.048 C 202.808 264.001,202.786 264.012,202.886 262.622 C 202.945 261.787,203.358 261.174,203.358 261.921 C 203.358 262.354,204.091 262.229,204.269 261.764 C 204.487 261.197,204.476 261.115,204.184 261.115 C 204.047 261.115,203.879 261.326,203.812 261.585 C 203.697 262.026,203.687 262.025,203.658 261.577 C 203.641 261.313,203.808 261.028,204.030 260.943 C 204.275 260.849,204.433 260.442,204.433 259.899 C 204.433 258.774,204.707 258.003,204.961 258.415 C 205.064 258.580,205.352 258.636,205.604 258.540 C 206.029 258.377,206.028 258.339,205.582 257.980 C 205.138 257.622,205.146 257.606,205.709 257.761 C 206.042 257.853,206.313 257.807,206.313 257.660 C 206.313 257.513,206.101 257.338,205.843 257.270 C 205.395 257.153,205.395 257.146,205.843 257.116 C 206.220 257.091,206.314 256.832,206.317 255.809 C 206.320 254.992,206.404 254.664,206.552 254.898 C 206.695 255.123,206.997 255.195,207.340 255.086 C 208.037 254.864,208.389 253.882,207.886 253.564 C 207.596 253.380,207.593 253.332,207.873 253.328 C 208.067 253.326,208.151 253.205,208.061 253.059 C 207.971 252.913,208.054 252.849,208.247 252.917 C 208.956 253.168,209.610 252.302,209.742 250.937 C 209.850 249.804,209.966 249.581,210.518 249.443 C 211.293 249.248,211.773 248.156,211.544 247.111 C 211.398 246.446,211.486 246.318,212.338 245.962 C 213.337 245.545,213.385 245.420,213.418 243.146 C 213.434 242.074,214.216 241.370,214.644 242.042 C 214.786 242.263,214.918 242.354,214.939 242.243 C 215.004 241.894,215.084 241.651,215.275 241.226 C 215.377 240.999,215.427 240.397,215.386 239.889 C 215.327 239.146,215.418 238.944,215.850 238.862 C 216.807 238.680,217.058 238.253,217.058 236.809 C 217.058 235.453,217.089 235.395,217.931 235.154 C 218.783 234.911,218.807 234.864,218.885 233.235 C 218.964 231.582,218.973 231.565,219.758 231.565 C 220.194 231.565,220.551 231.431,220.551 231.267 C 220.551 231.104,220.363 231.042,220.134 231.130 C 219.895 231.222,219.787 231.177,219.881 231.024 C 219.971 230.878,220.219 230.759,220.432 230.759 C 220.718 230.759,220.819 230.406,220.819 229.416 C 220.819 228.301,220.902 228.073,221.303 228.073 C 221.965 228.073,222.431 227.551,222.431 226.810 C 222.431 226.283,222.569 226.192,223.371 226.192 L 224.312 226.192 224.312 224.463 L 224.312 222.734 225.185 222.650 L 226.058 222.565 226.137 220.752 C 226.217 218.941,226.217 218.939,227.010 218.939 C 227.713 218.939,227.804 218.847,227.804 218.133 C 227.804 217.358,228.304 217.109,229.483 217.295 C 229.594 217.313,229.684 216.481,229.684 215.447 C 229.684 213.470,229.747 213.395,231.299 213.513 C 231.375 213.519,231.472 212.781,231.516 211.873 C 231.610 209.929,231.534 210.021,233.214 209.825 C 233.308 209.814,233.380 209.654,233.373 209.469 C 233.333 208.402,233.470 208.193,234.207 208.193 C 234.956 208.193,234.970 208.164,235.029 206.521 C 235.099 204.589,235.087 204.612,236.078 204.612 C 236.723 204.612,236.839 204.495,236.892 203.797 C 236.968 202.800,236.915 202.851,237.966 202.771 C 238.558 202.726,238.820 202.575,238.794 202.293 C 238.610 200.298,238.828 199.328,239.461 199.328 C 240.116 199.328,240.430 198.886,240.430 197.963 C 240.430 197.465,240.796 197.328,241.840 197.434 C 242.248 197.475,242.310 197.231,242.310 195.601 L 242.310 193.721 243.183 193.637 C 244.056 193.553,244.056 193.553,244.136 191.874 C 244.219 190.148,244.451 189.922,245.888 190.169 C 246.008 190.190,246.085 189.992,246.058 189.731 C 245.945 188.623,246.085 188.348,246.810 188.265 C 247.518 188.184,247.552 188.110,247.629 186.501 C 247.711 184.776,247.926 184.564,249.362 184.790 C 249.473 184.808,249.549 184.731,249.532 184.621 C 249.338 183.393,249.588 182.942,250.460 182.942 L 251.356 182.942 251.416 181.268 C 251.478 179.548,251.707 179.159,252.563 179.324 C 252.964 179.401,253.056 179.246,253.056 178.494 C 253.056 177.591,253.408 177.382,254.691 177.523 C 254.778 177.532,254.876 176.794,254.909 175.881 C 254.978 173.958,254.921 174.066,255.913 173.990 C 256.551 173.941,256.684 173.807,256.695 173.208 C 256.710 172.317,256.809 172.213,257.711 172.138 C 258.406 172.081,258.428 172.026,258.428 170.391 L 258.428 168.704 259.369 168.704 C 260.264 168.704,260.309 168.659,260.309 167.764 C 260.309 167.059,260.427 166.816,260.779 166.792 C 261.038 166.775,261.430 166.745,261.652 166.725 C 261.958 166.698,262.074 166.253,262.135 164.876 C 262.217 163.001,262.418 162.789,263.881 163.035 C 263.999 163.055,264.075 162.918,264.051 162.731 C 263.918 161.716,264.088 161.451,264.876 161.451 L 265.682 161.451 265.682 159.570 L 265.682 157.690 266.622 157.690 C 267.483 157.690,267.562 157.623,267.562 156.901 C 267.562 156.207,267.668 156.102,268.435 156.028 L 269.308 155.944 269.388 154.130 C 269.467 152.319,269.468 152.317,270.261 152.317 C 270.989 152.317,271.054 152.239,271.054 151.377 C 271.054 150.575,271.145 150.437,271.672 150.437 C 272.402 150.437,272.935 149.972,272.935 149.337 C 272.935 148.952,274.016 148.395,274.566 148.496 C 274.651 148.512,274.720 148.320,274.720 148.070 C 274.718 145.277,274.773 145.102,275.688 145.014 C 276.410 144.944,276.576 144.805,276.645 144.207 C 276.709 143.649,276.892 143.466,277.451 143.401 C 278.048 143.332,278.188 143.167,278.257 142.445 C 278.340 141.589,278.428 141.520,279.516 141.465 C 279.990 141.440,280.063 141.221,280.133 139.624 C 280.215 137.749,280.417 137.537,281.880 137.783 C 281.998 137.803,282.074 137.666,282.049 137.479 C 281.883 136.207,283.094 135.015,283.515 136.036 C 283.583 136.200,283.647 135.880,283.659 135.326 C 283.680 134.318,283.937 134.144,285.185 134.289 C 285.367 134.310,285.499 133.684,285.530 132.654 C 285.588 130.743,285.600 130.721,286.578 130.704 C 287.233 130.693,287.300 130.603,287.239 129.819 C 287.181 129.079,287.264 128.941,287.776 128.915 C 289.174 128.843,289.189 128.832,289.119 127.938 C 289.054 127.106,289.095 127.065,289.992 127.065 C 290.510 127.065,290.919 126.974,290.902 126.864 C 290.626 125.120,290.991 123.685,291.813 123.281 C 292.318 123.033,292.715 122.613,292.765 122.274 C 292.834 121.807,293.033 121.692,293.773 121.692 C 294.647 121.692,294.694 121.644,294.694 120.752 C 294.694 119.887,294.758 119.812,295.500 119.812 C 296.231 119.812,296.306 119.730,296.306 118.936 C 296.306 118.129,296.374 118.061,297.169 118.063 L 298.032 118.066 298.127 116.324 C 298.238 114.291,298.130 114.501,299.132 114.367 C 299.786 114.280,299.938 114.128,299.960 113.539 C 299.993 112.653,300.067 112.575,300.943 112.503 C 301.327 112.471,301.635 112.380,301.628 112.300 C 301.521 111.088,301.708 110.719,302.372 110.840 C 302.756 110.909,302.997 110.855,302.912 110.718 C 302.828 110.582,302.939 110.321,303.159 110.139 C 303.379 109.956,303.559 109.640,303.559 109.437 C 303.559 109.233,303.801 109.066,304.097 109.066 C 304.392 109.066,304.634 108.946,304.634 108.798 C 304.634 108.650,304.829 108.529,305.068 108.529 C 305.384 108.529,305.468 108.350,305.377 107.871 C 305.264 107.282,305.352 107.205,306.219 107.133 L 307.186 107.052 307.320 105.306 C 307.447 103.658,307.493 103.559,308.126 103.559 C 308.688 103.559,308.812 103.416,308.882 102.686 C 308.959 101.887,309.044 101.813,309.889 101.813 C 310.765 101.813,310.813 101.765,310.813 100.873 C 310.813 99.948,311.031 99.780,312.068 99.908 C 312.242 99.930,312.461 99.823,312.554 99.671 C 312.648 99.520,312.567 99.394,312.373 99.391 C 312.118 99.388,312.132 99.316,312.424 99.127 C 312.646 98.984,312.722 98.865,312.593 98.862 C 312.464 98.860,312.499 98.689,312.670 98.483 C 312.848 98.269,313.226 98.172,313.551 98.257 C 313.940 98.358,314.059 98.307,313.928 98.095 C 313.822 97.924,313.838 97.784,313.963 97.784 C 314.088 97.784,314.210 97.523,314.234 97.203 C 314.280 96.594,314.799 96.114,315.167 96.341 C 315.501 96.548,316.185 95.737,316.185 95.134 C 316.185 94.721,316.391 94.574,317.058 94.510 C 317.819 94.437,317.942 94.317,318.014 93.582 C 318.080 92.894,318.193 92.763,318.619 92.875 C 319.567 93.123,319.935 92.500,319.859 90.774 C 319.786 89.113,319.841 89.043,321.125 89.180 C 321.509 89.221,321.599 89.104,321.494 88.703 C 321.294 87.936,321.663 87.500,322.539 87.469 C 323.199 87.445,323.316 87.321,323.388 86.568 C 323.435 86.088,323.616 85.681,323.791 85.664 C 323.967 85.647,324.231 85.605,324.379 85.571 C 324.527 85.536,324.799 85.490,324.983 85.467 C 325.168 85.445,325.319 85.064,325.319 84.621 C 325.319 83.852,325.707 83.621,326.729 83.783 C 326.840 83.800,326.931 83.392,326.931 82.874 C 326.931 82.051,327.014 81.934,327.602 81.934 C 327.972 81.934,328.276 81.783,328.278 81.598 C 328.281 81.371,328.374 81.392,328.568 81.666 C 328.788 81.974,328.816 81.890,328.688 81.307 C 328.553 80.690,328.625 80.519,329.069 80.403 C 329.371 80.324,329.619 80.123,329.621 79.955 C 329.624 79.788,329.743 79.832,329.886 80.054 C 330.107 80.395,330.147 80.383,330.150 79.971 C 330.153 79.703,330.278 79.561,330.430 79.655 C 330.581 79.748,330.688 79.725,330.667 79.604 C 330.518 78.746,330.738 78.442,331.509 78.442 C 332.008 78.442,332.310 78.311,332.284 78.106 C 332.121 76.851,332.300 76.561,333.244 76.561 C 334.109 76.561,334.184 76.497,334.184 75.756 C 334.184 74.968,334.363 74.838,335.317 74.934 C 335.809 74.984,336.252 73.859,335.940 73.353 C 335.843 73.196,335.982 73.055,336.250 73.038 C 336.517 73.021,336.857 72.979,337.005 72.945 C 337.152 72.910,337.424 72.864,337.609 72.841 C 337.794 72.819,337.945 72.438,337.945 71.995 C 337.945 71.274,338.173 71.055,338.818 71.157 C 338.929 71.174,339.021 71.038,339.024 70.853 C 339.026 70.629,339.115 70.651,339.288 70.920 C 339.482 71.220,339.550 71.065,339.553 70.316 C 339.557 69.344,339.590 69.308,340.497 69.308 C 341.363 69.308,341.437 69.244,341.437 68.502 C 341.437 67.640,341.695 67.561,344.056 67.690 C 344.888 67.735,344.929 67.692,344.929 66.777 C 344.929 65.854,344.968 65.816,345.889 65.816 C 346.719 65.816,346.842 65.735,346.799 65.212 C 346.773 64.879,346.764 64.469,346.780 64.300 C 346.809 64.001,348.056 63.524,348.523 63.634 C 348.653 63.665,348.693 63.435,348.611 63.125 C 348.512 62.746,348.612 62.505,348.913 62.394 C 349.160 62.303,349.451 62.099,349.559 61.940 C 349.688 61.753,349.758 61.781,349.761 62.021 C 349.764 62.323,349.840 62.327,350.181 62.045 C 350.513 61.769,350.526 61.655,350.248 61.478 C 350.028 61.339,350.011 61.256,350.204 61.253 C 350.371 61.251,350.569 61.015,350.644 60.729 C 350.743 60.350,350.936 60.250,351.359 60.361 C 351.677 60.444,351.912 60.406,351.881 60.276 C 351.771 59.809,352.248 58.562,352.548 58.533 C 352.716 58.517,353.126 58.525,353.459 58.552 C 353.982 58.595,354.063 58.472,354.063 57.642 L 354.063 56.682 355.809 56.682 L 357.555 56.682 357.555 55.779 C 357.555 54.948,357.611 54.887,358.267 55.012 C 358.716 55.098,358.915 55.046,358.807 54.871 C 358.713 54.719,358.816 54.445,359.036 54.262 C 359.256 54.080,359.436 53.764,359.436 53.560 C 359.436 53.357,359.537 53.190,359.660 53.190 C 359.783 53.190,359.853 53.462,359.816 53.794 C 359.779 54.127,359.739 55.396,359.727 56.615 L 359.704 58.831 358.825 58.831 L 357.945 58.831 357.867 61.446 C 357.780 64.361,357.788 64.338,356.793 64.338 C 356.144 64.338,356.075 64.437,356.043 65.413 C 355.963 67.842,355.939 67.994,355.660 67.821 C 354.664 67.206,354.083 67.937,354.102 69.781 C 354.139 73.411,354.156 73.338,353.257 73.338 C 352.814 73.338,352.466 73.428,352.483 73.539 C 352.711 74.982,352.400 76.830,351.930 76.830 C 351.643 76.830,351.326 76.964,351.225 77.127 C 351.096 77.335,350.968 77.315,350.798 77.060 C 350.625 76.800,350.570 76.887,350.605 77.367 C 350.774 79.656,350.606 80.208,349.626 80.593 C 348.687 80.961,348.681 80.974,348.782 82.397 C 348.891 83.932,348.822 84.056,347.816 84.139 C 347.210 84.190,347.159 84.309,347.104 85.812 C 347.050 87.319,346.729 87.992,346.216 87.675 C 345.714 87.364,345.198 88.392,345.198 89.705 C 345.198 91.074,345.105 91.188,344.065 91.083 C 343.513 91.028,343.308 91.775,343.392 93.541 C 343.452 94.804,343.452 94.805,342.512 94.884 L 341.572 94.963 341.563 96.709 L 341.554 98.455 340.757 98.455 C 340.316 98.455,339.945 98.606,339.926 98.791 C 339.908 98.976,339.877 99.792,339.859 100.604 C 339.827 101.992,339.785 102.082,339.154 102.082 C 338.784 102.082,338.480 102.233,338.478 102.418 C 338.475 102.644,338.385 102.622,338.202 102.351 C 337.986 102.031,337.940 102.087,337.979 102.619 C 338.152 104.963,337.982 105.526,336.997 105.882 C 336.094 106.209,336.054 106.277,336.157 107.309 C 336.284 108.575,336.144 109.066,335.655 109.066 C 335.462 109.066,335.242 109.218,335.168 109.402 C 335.064 109.661,335.027 109.657,335.011 109.386 C 334.939 108.198,334.453 109.673,334.453 111.079 C 334.453 112.881,334.088 113.352,333.011 112.938 C 332.691 112.815,332.580 112.907,332.613 113.268 C 332.717 114.437,332.572 114.674,331.699 114.758 L 330.826 114.842 330.826 116.521 C 330.826 118.134,330.800 118.200,330.153 118.200 C 329.385 118.200,328.660 119.449,328.931 120.304 C 329.187 121.111,328.752 121.827,328.005 121.827 C 327.363 121.827,327.330 121.906,327.254 123.640 C 327.183 125.276,327.120 125.453,326.612 125.453 C 325.980 125.453,325.340 126.155,325.328 126.864 C 325.321 127.226,325.087 127.335,324.312 127.338 C 323.562 127.341,323.407 127.409,323.707 127.602 C 323.929 127.746,323.989 127.865,323.842 127.867 C 323.694 127.869,323.538 128.500,323.496 129.269 C 323.406 130.893,323.484 130.748,322.633 130.867 C 322.011 130.953,321.951 131.091,321.827 132.707 C 321.728 133.985,321.595 134.432,321.328 134.376 C 321.128 134.334,320.772 134.455,320.538 134.645 C 320.184 134.932,320.150 134.926,320.339 134.613 C 320.494 134.357,320.467 134.297,320.256 134.427 C 320.086 134.532,319.946 134.967,319.946 135.392 C 319.946 136.067,319.836 136.175,319.073 136.249 C 318.135 136.339,318.146 136.313,318.097 138.549 C 318.066 139.930,318.049 139.960,317.260 139.960 C 316.547 139.960,316.454 140.051,316.454 140.749 C 316.454 141.442,316.349 141.548,315.581 141.622 L 314.708 141.706 314.629 143.503 L 314.550 145.300 313.689 145.383 C 312.835 145.466,312.827 145.482,312.745 147.072 C 312.659 148.746,312.366 149.188,311.518 148.924 C 311.207 148.827,311.080 148.874,311.186 149.046 C 311.281 149.199,311.236 149.401,311.086 149.494 C 310.935 149.586,310.813 149.897,310.813 150.184 C 310.813 150.507,310.629 150.705,310.329 150.705 C 309.517 150.705,309.201 151.285,309.201 152.774 C 309.201 153.978,309.125 154.197,308.705 154.197 C 308.106 154.197,307.320 155.010,307.320 155.629 C 307.320 155.963,307.080 156.078,306.380 156.078 L 305.440 156.078 305.440 157.824 C 305.440 159.555,305.434 159.570,304.691 159.570 C 304.042 159.570,303.934 159.684,303.877 160.429 C 303.796 161.496,303.752 161.538,302.757 161.510 L 301.948 161.487 301.948 163.349 L 301.948 165.212 301.007 165.212 C 300.146 165.212,300.067 165.278,300.067 166.000 C 300.067 166.694,299.962 166.799,299.194 166.874 L 298.321 166.958 298.242 168.771 C 298.162 170.583,298.161 170.584,297.369 170.584 C 296.932 170.584,296.589 170.675,296.607 170.786 C 296.777 171.863,296.547 172.196,295.635 172.196 C 294.739 172.196,294.694 172.241,294.694 173.136 C 294.694 174.032,294.650 174.077,293.754 174.077 L 292.814 174.077 292.814 175.823 C 292.814 177.592,292.780 177.645,291.672 177.641 C 291.317 177.639,291.202 177.860,291.202 178.544 C 291.202 179.400,291.150 179.449,290.262 179.449 C 289.745 179.449,289.336 179.540,289.354 179.651 C 289.371 179.762,289.371 180.600,289.354 181.514 L 289.322 183.176 288.449 183.260 C 287.721 183.330,287.561 183.468,287.491 184.083 C 287.416 184.734,287.184 184.895,286.464 184.799 C 286.073 184.747,285.837 185.585,285.834 187.038 L 285.829 188.583 284.889 188.583 C 284.024 188.583,283.949 188.647,283.949 189.389 C 283.949 190.173,283.754 190.307,282.673 190.267 C 282.488 190.260,282.322 190.362,282.304 190.493 C 282.285 190.625,282.240 190.853,282.203 191.001 C 282.166 191.148,282.121 191.437,282.102 191.642 C 282.084 191.848,281.647 192.094,281.132 192.191 C 280.617 192.288,280.208 192.452,280.224 192.557 C 280.486 194.338,280.145 195.805,279.449 195.885 C 278.869 195.952,278.692 196.129,278.626 196.709 C 278.544 197.422,278.273 197.569,277.224 197.472 C 276.942 197.446,276.790 197.708,276.745 198.300 C 276.665 199.351,276.715 199.298,275.729 199.373 C 274.939 199.433,274.923 199.464,274.861 201.047 C 274.788 202.887,274.845 202.741,274.144 202.862 C 273.473 202.978,273.213 203.321,273.208 204.097 C 273.204 204.600,273.056 204.701,272.320 204.701 C 271.520 204.701,271.431 204.781,271.372 205.560 C 271.292 206.607,271.348 206.551,270.302 206.630 L 269.443 206.696 269.443 208.385 C 269.443 209.314,269.322 210.089,269.174 210.107 C 269.026 210.126,268.633 210.156,268.301 210.175 C 267.824 210.201,267.679 210.392,267.612 211.081 C 267.532 211.910,267.154 212.144,266.152 211.986 C 266.041 211.969,265.950 212.377,265.950 212.895 C 265.950 213.790,265.906 213.835,265.010 213.835 C 264.493 213.835,264.084 213.925,264.102 214.036 C 264.403 215.943,264.036 217.296,263.197 217.377 C 262.429 217.451,262.314 217.567,262.240 218.334 C 262.166 219.102,262.060 219.208,261.366 219.208 C 260.644 219.208,260.578 219.287,260.578 220.148 C 260.578 221.043,260.533 221.088,259.637 221.088 C 258.772 221.088,258.697 221.152,258.697 221.894 C 258.697 222.344,258.549 222.712,258.361 222.728 C 258.177 222.744,257.784 222.774,257.488 222.796 C 256.926 222.836,256.895 222.951,256.845 225.185 C 256.817 226.454,256.812 226.461,255.893 226.461 C 255.048 226.461,254.963 226.534,254.886 227.334 C 254.816 228.059,254.702 228.193,254.212 228.125 C 253.729 228.059,253.591 228.211,253.449 228.970 C 253.308 229.721,253.127 229.925,252.488 230.053 C 251.880 230.175,251.665 230.395,251.539 231.022 C 251.440 231.520,251.208 231.837,250.940 231.842 C 250.085 231.859,249.665 232.482,249.599 233.831 C 249.520 235.432,249.399 235.664,248.750 235.458 C 248.344 235.329,248.216 235.479,248.071 236.253 C 247.895 237.190,247.566 237.380,246.392 237.223 C 246.199 237.197,246.062 237.334,246.088 237.527 C 246.247 238.716,246.061 239.054,245.198 239.137 C 244.441 239.210,244.327 239.319,244.340 239.960 C 244.353 240.610,244.255 240.698,243.524 240.698 C 242.782 240.698,242.686 240.790,242.628 241.557 C 242.548 242.606,242.450 242.713,241.571 242.713 C 241.005 242.713,240.858 242.860,240.771 243.514 C 240.641 244.485,240.724 244.402,239.753 244.532 C 239.125 244.616,238.947 244.779,238.926 245.288 C 238.911 245.645,238.881 246.440,238.859 247.055 C 238.826 247.957,238.727 248.158,238.348 248.097 C 238.089 248.055,237.703 248.156,237.490 248.322 C 237.185 248.560,237.151 248.544,237.330 248.246 C 237.491 247.979,237.459 247.929,237.222 248.076 C 237.029 248.195,236.934 248.614,237.000 249.058 C 237.110 249.808,236.675 250.045,235.527 249.864 C 235.416 249.846,235.326 250.255,235.326 250.772 C 235.326 251.691,234.956 251.912,233.680 251.756 C 233.588 251.744,233.512 252.037,233.512 252.407 C 233.512 253.255,233.363 253.398,232.443 253.432 C 231.783 253.456,231.690 253.573,231.616 254.467 C 231.540 255.380,231.472 255.460,230.894 255.315 C 230.330 255.174,230.234 255.268,230.074 256.120 C 229.895 257.074,229.670 257.216,228.522 257.096 C 228.193 257.061,228.049 257.205,228.083 257.535 C 228.203 258.683,228.062 258.908,227.107 259.087 C 226.248 259.248,226.160 259.340,226.307 259.923 C 226.451 260.498,226.381 260.578,225.727 260.582 C 224.447 260.589,224.394 260.751,224.346 264.809 L 224.302 268.637 227.933 268.637 C 230.858 268.637,231.565 268.564,231.565 268.262 C 231.565 267.765,232.068 267.597,233.177 267.726 C 234.499 267.880,234.990 267.649,234.990 266.872 C 234.990 265.955,234.957 265.969,237.287 265.890 C 238.694 265.842,239.391 265.707,239.484 265.465 C 239.559 265.270,239.744 265.187,239.895 265.280 C 240.046 265.374,240.089 265.581,239.990 265.742 C 239.879 265.922,239.935 265.956,240.138 265.830 C 240.319 265.719,240.402 265.458,240.322 265.252 C 239.980 264.360,240.447 264.070,242.221 264.070 C 243.326 264.070,243.893 263.971,243.785 263.797 C 243.692 263.647,243.485 263.605,243.325 263.704 C 243.151 263.812,243.110 263.759,243.225 263.574 C 243.330 263.404,243.604 263.264,243.832 263.264 C 244.092 263.264,244.190 263.112,244.094 262.861 C 243.934 262.445,244.009 262.429,246.474 262.356 C 247.472 262.326,247.543 262.272,247.475 261.605 C 247.373 260.626,247.660 260.513,250.205 260.529 C 252.677 260.544,253.201 260.356,252.985 259.531 C 252.789 258.781,253.073 258.647,254.886 258.633 C 256.486 258.621,256.806 258.419,256.813 257.421 C 256.816 256.894,256.963 256.813,257.958 256.788 C 260.191 256.732,260.178 256.737,260.124 255.944 C 260.071 255.176,260.142 255.138,261.585 255.153 C 262.075 255.158,262.460 255.024,262.462 254.847 C 262.465 254.632,262.535 254.641,262.685 254.878 C 262.805 255.068,263.096 255.149,263.332 255.059 C 263.878 254.849,264.176 254.093,263.803 253.863 C 263.350 253.583,264.631 253.152,265.749 253.209 C 266.516 253.248,266.761 253.156,266.775 252.822 C 266.790 252.487,266.846 252.510,267.015 252.921 C 267.289 253.588,267.730 252.806,267.467 252.120 C 267.291 251.661,268.221 251.053,268.672 251.332 C 269.034 251.555,269.433 250.967,269.438 250.202 C 269.442 249.682,269.567 249.640,270.853 249.723 C 272.446 249.827,273.352 249.481,272.666 249.030 C 272.397 248.853,272.375 248.764,272.599 248.762 C 272.784 248.759,272.935 248.541,272.935 248.275 C 272.935 247.858,273.135 247.806,274.412 247.887 C 275.377 247.949,275.890 247.878,275.890 247.682 C 275.890 247.517,276.007 247.455,276.151 247.544 C 276.294 247.632,276.492 247.368,276.591 246.955 C 276.836 245.928,277.259 245.411,277.515 245.824 C 277.728 246.169,278.308 245.934,278.308 245.502 C 278.308 245.354,278.198 245.301,278.064 245.384 C 277.930 245.467,277.960 245.233,278.131 244.865 C 278.414 244.256,278.594 244.195,280.121 244.193 C 281.168 244.192,281.800 244.079,281.800 243.893 C 281.800 243.730,281.612 243.668,281.383 243.756 C 281.144 243.848,281.036 243.803,281.130 243.650 C 281.220 243.504,281.468 243.385,281.681 243.385 C 281.899 243.385,282.069 243.130,282.069 242.803 C 282.069 242.483,282.143 242.296,282.235 242.387 C 282.326 242.478,282.586 242.369,282.811 242.143 C 283.147 241.808,283.267 241.798,283.474 242.089 C 283.655 242.344,283.692 242.282,283.602 241.870 C 283.400 240.938,283.811 240.598,285.138 240.598 C 285.973 240.598,286.367 240.485,286.367 240.245 C 286.367 240.051,286.457 239.907,286.568 239.924 C 287.235 240.030,287.492 239.846,287.363 239.355 C 287.230 238.847,287.723 238.630,288.625 238.800 C 288.976 238.866,289.313 238.247,289.318 237.526 C 289.320 237.182,289.441 236.980,289.590 237.072 C 289.738 237.163,289.861 237.080,289.863 236.886 C 289.866 236.610,289.918 236.614,290.102 236.905 C 290.455 237.463,290.934 237.009,290.934 236.116 C 290.934 235.346,290.968 235.326,292.293 235.326 C 293.040 235.326,293.587 235.221,293.508 235.093 C 293.325 234.797,294.273 233.920,294.515 234.161 C 294.614 234.260,294.694 234.210,294.694 234.050 C 294.694 233.890,294.543 233.698,294.359 233.623 C 294.037 233.493,294.152 233.449,294.828 233.444 C 295.141 233.442,296.276 232.271,296.155 232.075 C 295.944 231.733,296.969 231.309,297.606 231.476 C 298.120 231.610,298.187 231.519,298.187 230.681 C 298.187 229.866,298.262 229.754,298.725 229.876 C 299.472 230.071,300.136 229.450,299.992 228.693 C 299.869 228.051,300.341 227.914,302.163 228.064 C 302.981 228.131,303.559 227.620,303.559 226.831 C 303.559 226.431,303.716 226.192,303.978 226.192 C 304.209 226.192,304.322 226.071,304.231 225.923 C 304.140 225.776,304.193 225.655,304.349 225.655 C 304.506 225.655,304.634 225.783,304.634 225.939 C 304.634 226.096,304.757 226.148,304.907 226.055 C 305.057 225.962,305.110 225.774,305.025 225.636 C 304.940 225.499,304.999 225.386,305.155 225.386 C 305.312 225.386,305.440 225.205,305.440 224.983 C 305.440 224.762,305.631 224.580,305.865 224.580 C 306.099 224.580,306.241 224.432,306.181 224.250 C 306.027 223.788,306.569 223.275,307.026 223.450 C 307.304 223.557,307.367 223.444,307.260 223.034 C 307.157 222.642,307.219 222.512,307.464 222.606 C 308.137 222.865,308.995 222.165,308.862 221.467 C 308.780 221.039,308.862 220.819,309.104 220.819 C 309.305 220.819,309.469 220.698,309.469 220.551 C 309.469 220.403,309.597 220.282,309.754 220.282 C 309.910 220.282,309.957 220.415,309.856 220.577 C 309.743 220.759,309.865 220.835,310.176 220.776 C 310.535 220.708,310.701 220.407,310.759 219.724 C 310.835 218.818,310.885 218.773,311.699 218.872 C 312.360 218.953,312.466 218.911,312.156 218.693 C 311.808 218.449,311.818 218.409,312.223 218.406 C 312.492 218.403,312.691 218.200,312.689 217.931 C 312.685 217.530,312.647 217.520,312.424 217.864 C 312.232 218.162,312.163 218.174,312.160 217.912 C 312.155 217.455,312.821 216.789,313.278 216.794 C 313.541 216.797,313.528 216.866,313.230 217.058 C 312.949 217.241,312.931 217.320,313.172 217.323 C 313.361 217.325,313.589 217.136,313.679 216.902 C 313.811 216.557,313.889 216.544,314.085 216.834 C 314.249 217.076,314.304 216.910,314.253 216.326 C 314.212 215.850,314.283 215.467,314.413 215.476 C 314.542 215.485,314.750 215.331,314.875 215.134 C 315.045 214.865,315.104 214.860,315.107 215.111 C 315.109 215.296,315.245 215.447,315.408 215.447 C 315.572 215.447,315.631 215.252,315.539 215.014 C 315.417 214.694,315.488 214.625,315.811 214.749 C 316.160 214.883,316.224 214.782,316.123 214.256 C 316.013 213.680,316.104 213.584,316.830 213.513 C 317.322 213.465,317.635 213.294,317.596 213.096 C 317.559 212.911,317.649 212.760,317.797 212.760 C 317.945 212.760,318.066 212.592,318.066 212.386 C 318.066 212.181,318.365 211.938,318.730 211.846 C 319.566 211.636,319.904 211.045,320.195 209.281 C 320.206 209.215,320.360 209.306,320.537 209.483 C 320.993 209.939,321.377 209.883,321.187 209.388 C 321.084 209.120,321.136 209.039,321.331 209.160 C 321.540 209.288,321.593 209.125,321.502 208.644 C 321.427 208.256,321.477 208.009,321.612 208.093 C 322.229 208.474,323.265 207.921,322.733 207.495 C 322.252 207.109,322.257 207.099,322.834 207.257 C 323.187 207.355,323.439 207.305,323.439 207.137 C 323.439 206.979,323.227 206.838,322.968 206.822 C 322.710 206.807,322.947 206.654,323.495 206.484 C 324.042 206.314,324.601 206.054,324.735 205.908 C 325.091 205.520,325.371 203.831,325.046 204.032 C 324.901 204.122,324.782 204.068,324.782 203.911 C 324.782 203.755,324.903 203.627,325.050 203.627 C 325.198 203.627,325.319 203.406,325.319 203.136 C 325.319 202.738,325.480 202.669,326.163 202.769 C 326.941 202.883,326.995 202.842,326.846 202.250 C 326.670 201.549,326.795 201.283,327.587 200.672 C 327.963 200.381,328.048 200.370,327.891 200.630 C 327.734 200.891,327.814 200.965,328.175 200.897 C 328.492 200.837,328.708 200.529,328.762 200.065 C 328.809 199.660,328.962 199.328,329.104 199.328 C 329.245 199.328,329.499 199.023,329.670 198.649 C 329.893 198.159,330.039 198.066,330.193 198.313 C 330.336 198.543,330.465 198.368,330.582 197.788 C 330.678 197.310,330.853 196.979,330.970 197.051 C 331.087 197.123,331.244 197.031,331.319 196.845 C 331.420 196.594,331.461 196.602,331.476 196.876 C 331.544 198.045,332.304 196.442,332.304 195.132 C 332.304 194.170,332.416 193.677,332.639 193.658 C 332.824 193.643,333.217 193.613,333.512 193.591 C 333.887 193.564,334.059 193.350,334.079 192.881 C 334.135 191.591,334.226 191.135,334.362 191.471 C 334.505 191.825,335.315 191.929,335.613 191.632 C 335.709 191.535,335.578 191.284,335.322 191.072 C 334.880 190.708,334.880 190.696,335.326 190.836 C 335.627 190.931,335.796 190.842,335.796 190.589 C 335.796 190.372,335.919 190.195,336.070 190.195 C 336.224 190.195,336.280 189.874,336.198 189.456 C 336.065 188.781,336.075 188.770,336.318 189.322 C 336.609 189.983,337.000 190.100,337.299 189.616 C 337.425 189.412,337.361 189.373,337.113 189.502 C 336.906 189.609,336.958 189.516,337.229 189.295 C 337.500 189.074,337.788 188.400,337.869 187.798 C 337.950 187.195,338.121 186.702,338.249 186.702 C 338.377 186.702,338.482 186.548,338.482 186.359 C 338.482 186.170,338.713 185.849,338.995 185.646 C 339.277 185.442,339.446 185.113,339.369 184.915 C 339.282 184.688,339.426 184.553,339.755 184.553 C 340.444 184.553,341.278 183.614,341.070 183.072 C 340.964 182.795,341.013 182.711,341.211 182.833 C 341.423 182.964,341.463 182.811,341.342 182.331 C 341.101 181.372,341.354 180.875,342.053 180.936 C 342.814 181.002,343.200 180.783,342.780 180.524 C 342.578 180.399,342.527 180.092,342.647 179.716 C 342.799 179.235,342.892 179.187,343.094 179.481 C 343.269 179.735,343.321 179.491,343.259 178.711 C 343.170 177.584,343.181 177.569,344.039 177.569 C 344.808 177.569,344.908 177.484,344.907 176.830 C 344.905 175.387,344.991 175.136,345.377 175.457 C 346.053 176.018,346.661 175.199,346.078 174.513 C 345.622 173.976,345.622 173.968,346.078 174.321 C 346.340 174.524,346.639 174.606,346.741 174.503 C 346.844 174.400,346.751 174.202,346.534 174.062 C 346.201 173.848,346.197 173.770,346.509 173.569 C 346.712 173.438,346.811 173.221,346.728 173.086 C 346.511 172.736,346.834 172.368,347.683 171.995 C 348.212 171.762,348.433 171.459,348.463 170.926 C 348.485 170.516,348.532 170.060,348.566 169.913 C 348.600 169.765,348.652 169.281,348.681 168.838 C 348.709 168.395,348.794 168.183,348.868 168.368 C 349.131 169.019,350.577 168.105,350.567 167.293 C 350.564 167.070,350.476 167.092,350.302 167.361 C 350.080 167.705,350.041 167.695,350.038 167.293 C 350.035 167.035,350.160 166.823,350.314 166.823 C 350.468 166.823,350.575 166.672,350.551 166.488 C 350.386 165.221,350.581 164.788,351.310 164.798 C 351.949 164.807,352.051 164.700,352.071 164.003 C 352.138 161.558,352.165 161.465,352.861 161.291 C 353.380 161.160,353.472 161.038,353.251 160.772 C 353.051 160.530,353.049 160.371,353.244 160.250 C 353.399 160.154,353.526 160.204,353.526 160.360 C 353.526 160.517,353.647 160.645,353.794 160.645 C 353.942 160.645,354.063 160.027,354.063 159.273 C 354.063 157.949,354.998 156.577,355.737 156.817 C 355.851 156.854,355.944 156.763,355.944 156.615 C 355.944 156.467,355.792 156.345,355.608 156.342 C 355.365 156.339,355.374 156.274,355.642 156.104 C 355.846 155.975,355.933 155.740,355.835 155.583 C 355.469 154.991,355.950 154.064,356.645 154.023 C 357.549 153.970,357.516 154.048,357.580 151.841 C 357.627 150.248,357.702 149.955,357.999 150.202 C 358.477 150.598,359.341 149.966,358.910 149.535 C 358.549 149.174,358.551 148.825,358.914 148.825 C 359.071 148.825,359.124 148.946,359.033 149.093 C 358.942 149.241,358.981 149.362,359.120 149.362 C 359.260 149.362,359.374 148.736,359.374 147.971 C 359.374 146.945,359.500 146.487,359.853 146.229 C 360.410 145.822,361.314 144.516,361.310 144.124 C 361.309 143.976,361.191 144.036,361.048 144.258 C 360.891 144.500,360.786 144.533,360.783 144.341 C 360.781 144.165,360.875 143.962,360.992 143.890 C 361.108 143.817,361.233 143.357,361.269 142.866 C 361.390 141.203,361.500 140.900,362.013 140.818 C 362.446 140.749,362.463 140.783,362.122 141.034 C 361.784 141.284,361.806 141.318,362.257 141.246 C 362.552 141.200,362.809 141.012,362.827 140.829 C 362.846 140.646,362.899 140.406,362.945 140.296 C 362.991 140.185,363.048 139.550,363.071 138.885 C 363.161 136.357,363.244 135.538,363.375 135.863 C 363.449 136.048,363.628 136.199,363.772 136.199 C 363.916 136.199,363.968 136.092,363.887 135.961 C 363.806 135.830,363.923 135.571,364.146 135.385 C 364.488 135.101,364.523 135.125,364.366 135.533 C 364.245 135.848,364.282 135.955,364.469 135.839 C 364.642 135.732,364.770 134.561,364.787 132.927 C 364.817 129.964,364.864 129.778,365.462 130.274 C 365.681 130.455,365.999 130.518,366.169 130.413 C 366.393 130.274,366.378 130.159,366.113 129.991 C 365.833 129.813,365.861 129.759,366.238 129.756 C 366.580 129.753,366.713 129.569,366.679 129.147 C 366.481 126.708,366.699 124.969,367.186 125.096 C 367.765 125.248,368.571 124.542,368.565 123.889 C 368.562 123.500,368.526 123.494,368.301 123.842 C 368.078 124.186,368.040 124.176,368.036 123.774 C 368.034 123.516,368.137 123.304,368.266 123.304 C 368.394 123.304,368.499 123.093,368.498 122.834 C 368.487 120.150,368.546 119.939,369.397 119.617 C 370.110 119.348,370.218 119.181,370.176 118.417 C 370.149 117.928,370.139 116.048,370.154 114.238 L 370.181 110.947 370.869 110.947 C 371.253 110.947,371.484 110.830,371.392 110.681 C 371.296 110.526,371.411 110.486,371.667 110.584 C 372.018 110.719,372.094 110.597,372.043 109.977 C 371.836 107.407,372.081 103.671,372.465 103.551 C 373.800 103.134,373.801 103.133,373.434 102.906 C 373.139 102.724,373.138 102.663,373.429 102.566 C 373.690 102.480,373.804 101.599,373.863 99.243 C 373.934 96.392,374.002 95.997,374.480 95.669 C 374.775 95.466,375.017 95.134,375.017 94.930 C 375.017 94.727,375.112 94.560,375.228 94.560 C 375.345 94.560,375.458 94.316,375.481 94.017 C 375.507 93.663,375.410 93.541,375.202 93.666 C 374.997 93.789,375.009 93.702,375.235 93.423 C 375.428 93.184,375.565 92.828,375.539 92.632 C 375.512 92.437,375.505 89.963,375.522 87.135 L 375.554 81.992 376.196 81.831 C 376.944 81.644,377.299 80.940,376.893 80.451 C 376.690 80.207,376.726 79.995,377.020 79.701 C 377.381 79.339,377.429 76.392,377.423 54.714 C 377.416 28.106,377.509 29.819,376.069 29.819 C 375.585 29.819,375.552 29.569,375.523 25.588 C 375.506 23.261,375.486 20.908,375.480 20.360 C 375.473 19.812,375.366 19.426,375.242 19.503 C 375.118 19.579,375.015 19.484,375.013 19.291 C 375.010 19.035,374.937 19.049,374.748 19.342 C 374.517 19.700,374.487 19.700,374.480 19.342 C 374.473 19.013,374.429 19.006,374.240 19.303 C 374.073 19.567,373.957 19.583,373.819 19.360 C 373.594 18.996,368.909 19.010,368.683 19.375 C 368.603 19.505,368.681 19.610,368.855 19.610 C 369.078 19.610,369.090 19.710,368.895 19.946 C 368.730 20.145,368.603 22.189,368.582 24.960 C 368.545 29.833,368.491 30.218,367.871 29.980 C 366.984 29.640,366.794 30.065,366.828 32.312 C 366.890 36.415,366.756 37.072,365.856 37.072 L 365.077 37.072 365.077 38.818 C 365.077 40.539,365.067 40.564,364.338 40.583 C 363.932 40.594,362.935 40.621,362.122 40.644 C 361.310 40.667,360.556 40.810,360.447 40.961 C 360.324 41.133,360.248 41.104,360.246 40.884 C 360.244 40.691,360.113 40.612,359.955 40.710 C 359.797 40.807,359.721 41.026,359.785 41.196 C 360.163 42.190,359.490 42.698,357.969 42.566 C 356.857 42.469,356.496 42.523,356.547 42.776 C 356.584 42.963,356.449 43.081,356.246 43.038 C 355.984 42.982,355.915 43.158,356.007 43.642 L 356.138 44.325 353.738 44.325 C 351.434 44.325,350.481 44.627,350.598 45.318 C 350.734 46.123,350.507 46.206,348.153 46.206 C 346.400 46.206,345.734 46.298,345.731 46.541 C 345.729 46.767,345.638 46.745,345.454 46.474 C 345.251 46.173,345.224 46.252,345.348 46.788 C 345.554 47.677,344.935 48.080,343.603 47.924 C 343.048 47.859,342.593 47.950,342.465 48.152 C 342.299 48.413,342.250 48.406,342.247 48.120 C 342.244 47.818,342.168 47.814,341.827 48.097 C 341.495 48.372,341.482 48.486,341.760 48.663 C 342.029 48.833,342.032 48.885,341.773 48.888 C 341.588 48.890,341.437 49.073,341.437 49.295 C 341.437 49.671,340.043 49.879,338.419 49.744 C 338.128 49.720,337.967 49.881,337.991 50.172 C 338.109 51.583,338.118 51.578,335.259 51.578 L 332.572 51.578 332.572 52.384 C 332.572 53.228,332.639 53.197,330.625 53.272 C 330.292 53.285,329.931 53.422,329.823 53.578 C 329.697 53.759,329.624 53.728,329.621 53.493 C 329.618 53.191,329.542 53.186,329.202 53.469 C 328.870 53.745,328.856 53.859,329.134 54.035 C 329.403 54.206,329.406 54.257,329.147 54.260 C 328.962 54.263,328.811 54.440,328.811 54.655 C 328.811 54.946,328.384 55.065,327.132 55.125 C 326.034 55.177,325.442 55.321,325.420 55.541 C 325.401 55.725,325.371 56.118,325.353 56.414 C 325.322 56.907,325.129 56.951,323.016 56.951 C 320.786 56.951,319.656 57.338,320.046 57.969 C 320.367 58.489,319.677 58.815,318.157 58.861 C 316.624 58.907,316.521 58.950,316.521 59.553 C 316.521 60.464,316.355 60.551,314.701 60.508 C 313.551 60.478,313.230 60.558,313.230 60.875 C 313.230 61.098,313.106 61.204,312.955 61.111 C 312.804 61.017,312.697 61.040,312.718 61.162 C 312.898 62.197,312.703 62.324,310.928 62.324 C 309.262 62.324,309.165 62.358,309.211 62.928 C 309.309 64.132,309.246 64.178,307.388 64.259 C 305.604 64.337,305.572 64.352,305.440 65.144 C 305.310 65.922,305.257 65.949,303.924 65.925 C 302.564 65.900,302.538 65.915,302.218 66.886 C 301.893 67.869,301.888 67.871,300.510 67.788 C 298.803 67.685,298.147 67.875,298.205 68.457 C 298.305 69.479,298.188 69.577,296.859 69.577 C 296.129 69.577,295.456 69.700,295.363 69.850 C 295.271 70.000,295.063 70.042,294.902 69.942 C 294.713 69.826,294.661 69.956,294.754 70.311 C 294.960 71.099,294.661 71.431,293.676 71.506 C 292.928 71.563,292.814 71.670,292.814 72.320 C 292.814 73.123,292.823 73.119,290.799 73.177 C 289.667 73.209,289.450 73.298,289.417 73.746 C 289.396 74.039,289.366 74.429,289.350 74.614 C 289.331 74.845,288.778 74.950,287.576 74.950 L 285.829 74.950 285.829 75.878 L 285.829 76.806 284.016 76.885 C 282.260 76.962,282.200 76.988,282.118 77.703 C 282.040 78.378,281.792 78.576,281.167 78.464 C 280.781 78.395,280.156 79.046,280.285 79.382 C 280.534 80.030,279.983 80.315,278.348 80.385 C 276.865 80.448,276.684 80.515,276.798 80.953 C 277.062 81.963,276.713 82.203,274.978 82.203 L 273.318 82.203 273.252 83.062 C 273.172 84.117,273.177 84.112,272.171 84.141 C 271.457 84.161,271.341 84.272,271.270 84.997 C 271.191 85.804,271.151 85.827,269.980 85.764 C 268.196 85.668,267.480 85.888,267.635 86.483 C 267.857 87.333,267.449 87.579,265.738 87.626 C 264.212 87.668,264.094 87.715,264.214 88.228 C 264.396 89.007,264.066 89.392,263.129 89.499 C 262.483 89.572,262.307 89.733,262.240 90.313 C 262.176 90.871,261.993 91.054,261.434 91.119 C 260.837 91.188,260.697 91.353,260.628 92.075 C 260.546 92.919,260.502 92.949,259.285 92.977 C 257.069 93.027,256.953 93.059,256.912 93.620 C 256.891 93.915,256.861 94.301,256.845 94.476 C 256.830 94.651,256.424 94.833,255.944 94.879 C 255.186 94.952,255.060 95.073,254.989 95.795 L 254.908 96.627 253.243 96.601 L 251.578 96.575 251.494 97.448 C 251.427 98.140,251.288 98.322,250.822 98.325 C 250.023 98.331,249.470 98.719,249.629 99.163 C 249.864 99.823,249.315 100.513,248.708 100.320 C 248.337 100.202,248.214 100.243,248.337 100.441 C 248.438 100.605,248.393 100.739,248.236 100.739 C 248.080 100.739,247.952 101.041,247.952 101.410 C 247.952 101.996,247.834 102.082,247.028 102.082 C 246.183 102.082,246.098 102.156,246.021 102.955 C 245.956 103.629,245.825 103.809,245.447 103.745 C 244.770 103.629,244.147 104.208,244.330 104.784 C 244.536 105.434,244.268 105.546,242.335 105.623 C 240.805 105.683,240.680 105.733,240.807 106.238 C 241.006 107.032,240.596 107.530,239.718 107.562 C 239.091 107.584,238.937 107.723,238.867 108.328 C 238.788 109.020,238.574 109.181,237.846 109.095 C 237.472 109.051,236.803 109.827,237.024 110.049 C 237.270 110.294,236.688 111.239,236.319 111.192 C 235.731 111.118,235.325 111.213,235.358 111.417 C 235.528 112.498,235.299 112.827,234.374 112.827 C 233.768 112.827,233.438 112.950,233.465 113.163 C 233.598 114.187,233.416 114.708,232.924 114.708 C 232.637 114.708,232.326 114.831,232.234 114.981 C 232.141 115.131,231.946 115.180,231.801 115.091 C 231.645 114.995,231.570 115.241,231.618 115.691 C 231.686 116.335,231.605 116.449,231.095 116.422 C 230.762 116.404,230.488 116.525,230.486 116.690 C 230.484 116.856,230.365 116.810,230.222 116.588 C 230.028 116.288,229.960 116.439,229.957 117.180 L 229.953 118.176 228.140 118.255 L 226.326 118.334 226.377 119.998 L 226.427 121.662 225.437 121.744 C 224.539 121.819,224.445 121.901,224.436 122.624 C 224.425 123.522,223.286 123.974,221.793 123.672 C 221.266 123.565,221.079 123.610,221.205 123.813 C 221.306 123.976,221.260 124.110,221.104 124.110 C 220.947 124.110,220.834 124.201,220.851 124.312 C 220.980 125.127,220.753 125.426,219.946 125.503 L 219.073 125.588 218.995 127.364 L 218.916 129.141 218.123 129.049 C 217.687 128.998,217.344 129.045,217.361 129.153 C 217.549 130.384,217.303 130.826,216.428 130.826 C 215.606 130.826,215.526 130.898,215.505 131.660 C 215.476 132.666,215.456 132.690,214.552 132.764 C 213.961 132.813,213.835 132.955,213.835 133.571 C 213.835 134.319,213.671 134.418,212.576 134.331 C 212.080 134.292,211.976 134.443,211.904 135.309 C 211.827 136.249,211.754 136.333,211.014 136.333 C 210.567 136.333,210.193 136.482,210.175 136.669 C 210.156 136.854,210.126 137.239,210.107 137.525 C 210.083 137.905,209.842 138.068,209.209 138.129 C 208.475 138.201,208.343 138.322,208.336 138.930 C 208.326 139.834,208.224 139.928,207.172 140.009 L 206.313 140.074 206.313 141.763 L 206.313 143.452 205.507 143.452 C 204.765 143.452,204.701 143.527,204.701 144.392 C 204.701 145.284,204.654 145.332,203.778 145.332 C 202.935 145.332,202.847 145.407,202.771 146.197 C 202.696 146.958,202.590 147.063,201.880 147.070 C 201.012 147.079,201.025 147.044,200.967 149.563 C 200.946 150.474,200.842 150.705,200.457 150.705 C 199.795 150.705,199.328 151.227,199.328 151.968 C 199.328 152.495,199.190 152.586,198.388 152.586 C 197.871 152.586,197.462 152.676,197.480 152.787 C 197.611 153.617,197.373 154.277,197.213 153.526 C 197.080 152.899,196.878 152.701,196.305 152.635 C 195.566 152.550,195.422 151.988,195.491 149.453 C 195.496 149.281,195.099 149.065,194.610 148.973 C 193.846 148.830,193.708 148.684,193.636 147.943 C 193.563 147.185,193.445 147.068,192.680 146.994 C 191.912 146.920,191.807 146.815,191.807 146.121 C 191.807 145.424,191.713 145.332,191.001 145.332 C 190.236 145.332,190.193 145.274,190.168 144.191 C 190.110 141.671,190.123 141.706,189.255 141.698 C 188.545 141.690,188.439 141.585,188.364 140.825 C 188.288 140.035,188.200 139.960,187.357 139.960 C 186.430 139.960,186.248 139.659,186.417 138.400 C 186.443 138.207,186.306 138.070,186.113 138.096 C 184.848 138.266,184.553 138.085,184.553 137.139 C 184.553 136.278,184.487 136.199,183.765 136.199 C 183.071 136.199,182.965 136.093,182.891 135.326 C 182.817 134.558,182.702 134.442,181.934 134.368 C 181.104 134.288,180.962 134.097,180.982 133.082 C 180.986 132.919,180.629 132.776,180.191 132.764 C 179.213 132.736,179.212 132.734,179.135 131.724 C 179.100 131.273,178.946 130.905,178.791 130.907 C 177.584 130.922,177.429 130.814,177.432 129.953 C 177.434 129.142,177.373 129.082,176.561 129.104 C 175.714 129.128,175.471 128.708,175.657 127.535 C 175.674 127.424,175.598 127.348,175.487 127.366 C 174.239 127.563,173.808 127.313,173.808 126.394 C 173.808 125.876,173.717 125.468,173.606 125.485 C 172.604 125.643,172.226 125.409,172.146 124.580 C 172.072 123.809,171.953 123.692,171.122 123.573 C 170.286 123.453,170.181 123.349,170.181 122.633 C 170.181 121.885,170.118 121.833,169.308 121.911 C 168.409 121.998,168.291 121.813,168.425 120.530 C 168.459 120.201,168.315 120.057,167.985 120.091 C 166.843 120.211,166.612 120.068,166.438 119.140 C 166.287 118.332,166.156 118.200,165.511 118.200 C 164.837 118.200,164.762 118.110,164.784 117.327 C 164.807 116.516,164.747 116.454,163.936 116.457 C 163.129 116.459,163.062 116.393,163.062 115.584 C 163.062 114.762,163.004 114.708,162.122 114.708 C 161.227 114.708,161.182 114.663,161.182 113.768 L 161.182 112.827 159.329 112.827 L 157.476 112.827 157.516 111.954 C 157.553 111.133,157.504 111.084,156.682 111.121 C 155.794 111.161,155.763 111.118,155.688 109.738 C 155.665 109.317,155.471 109.201,154.794 109.203 C 153.937 109.206,153.761 108.926,153.909 107.790 C 153.936 107.581,153.619 107.455,153.065 107.455 C 152.242 107.455,152.178 107.391,152.180 106.582 C 152.183 105.634,152.231 105.655,149.983 105.605 C 148.615 105.575,148.589 105.558,148.506 104.701 C 148.436 103.974,148.299 103.814,147.683 103.743 C 147.260 103.694,146.944 103.493,146.944 103.273 C 146.944 103.061,146.793 102.886,146.608 102.884 C 146.385 102.881,146.407 102.793,146.676 102.619 C 146.897 102.476,147.018 102.347,146.944 102.333 C 146.870 102.318,146.449 102.248,146.009 102.177 C 145.012 102.015,145.034 102.040,145.006 101.035 L 144.982 100.201 143.277 100.201 L 141.572 100.201 141.572 99.367 C 141.572 98.723,141.476 98.569,141.155 98.692 C 140.882 98.797,140.804 98.744,140.930 98.541 C 141.058 98.334,140.975 98.286,140.683 98.398 C 140.115 98.616,139.396 97.897,139.614 97.329 C 139.726 97.037,139.678 96.954,139.471 97.082 C 139.266 97.209,139.216 97.129,139.324 96.848 C 139.465 96.480,139.255 96.435,137.817 96.517 C 136.074 96.618,135.472 96.184,135.877 95.120 C 135.969 94.877,135.907 94.811,135.705 94.936 C 135.073 95.327,134.353 94.829,134.267 93.943 L 134.184 93.083 132.371 93.003 C 131.209 92.952,130.543 92.808,130.518 92.600 C 130.496 92.422,130.466 92.035,130.450 91.739 C 130.435 91.444,130.242 91.186,130.020 91.166 C 129.799 91.146,129.421 91.116,129.182 91.099 C 128.868 91.076,128.772 90.857,128.836 90.304 L 128.925 89.540 127.128 89.482 C 125.245 89.421,124.821 89.168,125.039 88.236 C 125.156 87.735,125.026 87.682,123.524 87.623 C 121.552 87.545,121.461 87.500,121.620 86.668 C 121.748 86.002,120.947 85.460,120.365 85.820 C 120.223 85.907,119.976 85.734,119.816 85.434 C 119.656 85.134,119.616 84.889,119.728 84.889 C 120.590 84.889,118.538 84.098,117.507 84.033 C 116.422 83.964,116.199 83.865,116.264 83.479 C 116.308 83.220,116.187 83.007,115.996 83.005 C 115.745 83.002,115.758 82.931,116.044 82.750 C 116.453 82.491,115.954 82.109,115.352 82.221 C 115.220 82.246,114.537 82.252,113.835 82.235 L 112.559 82.203 112.555 81.195 C 112.552 80.529,112.472 80.311,112.320 80.553 C 112.159 80.807,112.033 80.827,111.905 80.620 C 111.804 80.456,111.132 80.322,110.411 80.322 C 109.129 80.322,109.099 80.303,109.016 79.449 L 108.932 78.576 107.233 78.534 C 105.320 78.487,105.238 78.447,105.238 77.552 C 105.238 76.949,105.136 76.905,103.606 76.859 C 101.700 76.802,101.786 76.852,101.755 75.783 L 101.732 74.950 100.026 74.950 L 98.321 74.950 98.321 74.115 C 98.321 73.471,98.226 73.317,97.904 73.440 C 97.675 73.528,97.553 73.494,97.633 73.365 C 97.713 73.235,97.085 73.143,96.237 73.160 C 94.703 73.191,94.694 73.186,94.613 72.364 C 94.533 71.546,94.514 71.536,92.893 71.488 C 91.111 71.434,90.697 71.302,90.964 70.871 C 91.059 70.717,90.970 70.486,90.766 70.357 C 90.476 70.173,90.472 70.122,90.748 70.118 C 90.941 70.116,91.025 69.993,90.934 69.846 C 90.842 69.698,89.997 69.577,89.054 69.577 L 87.341 69.577 87.257 68.711 C 87.173 67.849,87.167 67.845,85.648 67.836 C 83.965 67.826,83.771 67.727,83.678 66.832 C 83.643 66.495,83.599 66.126,83.580 66.013 C 83.561 65.900,82.790 65.824,81.867 65.845 C 78.599 65.918,78.487 65.893,78.393 65.077 C 78.302 64.291,78.284 64.285,75.957 64.233 C 74.683 64.204,74.681 64.203,74.681 63.264 L 74.681 62.324 72.935 62.324 C 71.732 62.324,71.180 62.219,71.160 61.988 C 71.144 61.803,71.114 61.410,71.093 61.115 C 71.059 60.636,70.848 60.573,69.174 60.539 C 65.670 60.466,65.860 60.512,65.767 59.704 C 65.685 58.994,65.615 58.962,63.936 58.875 C 61.892 58.768,62.027 58.845,61.997 57.768 C 61.983 57.301,61.897 57.040,61.805 57.189 C 61.699 57.360,61.492 57.368,61.242 57.210 C 61.024 57.072,59.917 56.957,58.781 56.955 L 56.716 56.951 56.632 56.087 L 56.548 55.222 54.533 55.175 C 51.083 55.093,51.310 55.156,51.310 54.280 C 51.310 53.846,51.189 53.416,51.041 53.324 C 50.893 53.233,50.770 53.317,50.768 53.510 C 50.765 53.745,50.699 53.765,50.567 53.571 C 50.458 53.411,49.765 53.273,49.026 53.265 C 45.805 53.228,45.937 53.266,45.937 52.384 L 45.937 51.578 43.181 51.578 L 40.425 51.578 40.427 50.705 L 40.430 49.832 37.811 49.755 L 35.191 49.678 35.161 48.815 C 35.072 46.227,35.117 46.346,34.184 46.256 L 33.311 46.171 33.311 42.562 L 33.311 38.952 32.371 38.952 L 31.430 38.952 31.399 36.602 C 31.381 35.309,31.383 34.115,31.403 33.949 C 31.422 33.783,31.130 33.647,30.752 33.647 C 29.769 33.647,29.770 33.652,29.736 30.308 C 29.718 28.548,29.588 27.183,29.426 27.069 C 29.248 26.943,29.275 26.870,29.499 26.868 C 29.692 26.866,29.776 26.743,29.684 26.595 C 29.593 26.447,29.165 26.326,28.734 26.326 L 27.949 26.326 27.877 20.887 L 27.804 15.447 25.342 15.402 C 23.987 15.377,22.809 15.427,22.722 15.514 M361.101 53.244 C 360.924 53.421,360.777 53.451,360.775 53.311 C 360.773 53.171,360.654 53.237,360.510 53.459 C 360.281 53.814,360.250 53.812,360.246 53.445 C 360.240 52.835,360.826 52.324,361.155 52.653 C 361.334 52.832,361.316 53.029,361.101 53.244 M376.897 80.783 C 376.897 80.857,376.702 80.842,376.464 80.751 C 376.150 80.630,376.076 80.700,376.193 81.005 C 376.281 81.236,376.245 81.357,376.111 81.275 C 375.978 81.192,375.807 81.277,375.733 81.462 C 375.641 81.689,375.589 81.663,375.575 81.383 C 375.546 80.818,376.074 80.332,376.527 80.506 C 376.731 80.585,376.897 80.709,376.897 80.783 M22.302 89.597 C 22.724 90.106,22.442 90.449,21.943 90.034 C 21.741 89.866,21.516 89.789,21.444 89.861 C 21.371 89.934,21.312 89.812,21.312 89.590 C 21.312 89.069,21.867 89.073,22.302 89.597 M369.609 119.183 C 369.459 119.363,369.173 119.449,368.974 119.372 C 368.684 119.261,368.702 119.139,369.060 118.769 C 369.562 118.251,370.066 118.632,369.609 119.183 M60.175 185.661 C 60.175 186.137,60.108 186.176,59.772 185.897 C 59.550 185.713,59.369 185.456,59.369 185.326 C 59.369 185.197,59.550 185.091,59.772 185.091 C 60.003 185.091,60.175 185.333,60.175 185.661 M337.256 188.555 C 337.338 188.687,337.224 188.865,337.003 188.949 C 336.759 189.043,336.602 188.948,336.602 188.709 C 336.602 188.274,337.022 188.175,337.256 188.555 M324.379 204.970 C 324.287 205.118,324.371 205.248,324.564 205.260 C 324.837 205.276,324.840 205.311,324.579 205.417 C 324.393 205.492,324.302 205.652,324.377 205.774 C 324.452 205.895,324.283 205.934,324.000 205.860 C 323.522 205.735,323.517 205.691,323.925 205.213 C 324.394 204.666,324.652 204.527,324.379 204.970 M211.254 248.065 C 211.173 248.275,210.927 248.516,210.708 248.601 C 210.488 248.685,210.371 248.855,210.448 248.980 C 210.525 249.104,210.407 249.205,210.185 249.205 C 209.570 249.205,209.860 248.411,210.614 248.030 C 211.448 247.607,211.430 247.606,211.254 248.065 M190.195 252.074 C 190.195 252.504,191.046 253.324,191.492 253.324 C 191.951 253.324,191.886 253.159,191.123 252.396 C 190.344 251.617,190.195 251.565,190.195 252.074 " stroke="none" fill="#ededed" fill-rule="evenodd"></path></g></svg>